<mxfile host="Electron" modified="2025-04-07T19:59:52.498Z" agent="Mozilla/5.0 (Windows NT 10.0; Win64; x64) AppleWebKit/537.36 (KHTML, like Gecko) draw.io/22.0.3 Chrome/114.0.5735.289 Electron/25.8.4 Safari/537.36" etag="mZsQhcqPYub2Zrp4jBxY" version="22.0.3" type="device">
  <diagram name="By strategy" id="l_vv1-ra6wJKjXw2N5_A">
    <mxGraphModel dx="2623" dy="1057" grid="1" gridSize="10" guides="1" tooltips="1" connect="1" arrows="1" fold="1" page="1" pageScale="1" pageWidth="1169" pageHeight="827" math="0" shadow="0">
      <root>
        <mxCell id="0" />
        <mxCell id="Z35FE3b0g6n7arF6alle-15" value="code image" style="" parent="0" />
        <mxCell id="Z35FE3b0g6n7arF6alle-75" value="" style="shape=image;verticalLabelPosition=bottom;labelBackgroundColor=default;verticalAlign=top;aspect=fixed;imageAspect=0;image=data:image/png,iVBORw0KGgoAAAANSUhEUgAAA4gAAAKfCAYAAAAsFOZZAAAAAXNSR0IArs4c6QAAAARnQU1BAACxjwv8YQUAAAAJcEhZcwAADsMAAA7DAcdvqGQAAP+lSURBVHhe7N13dFTV3sbx78yk90AISQgJoYWEFnqV3quKIs2CYm+vqHhtIGAXuSp2sYIIkSoICBIEAZEaQgklkIQSShLSe5n3jyQQhhavMgnyfNaatWDvc86cKZk5z9n7/MYQEBBgRkRERERERG54RssGERERERERuTEpIIqIiIiIiAgoIIqIiIiIiEgZBUQREREREREBBUQREREREREpo4AoIiIiIiIioIAoIiIiIiIiZRQQRUREREREBBQQRUREREREpIwCooiIiIiIiIACooiIiIiIiJRRQBQRERERERFQQBQREREREZEyCogiIiIiIiICVSYgNn+LlhO/xLe6Zcc/z6nXTNqMfxtPZ8seERERERGRG1vVCIgiIiIiIiJS6SopIBqw86xLyw5NqWnZdd3wpUm7ZgS62WKw7BIREREREbkOGQICAsyWjdeMwQ7PoCa0aBpCQHU7Cs9EsXrZdk43f4uWQ704uyULj5YNcTBkk75nDod+mk+BGbBpgtfQZwhs5IOtqYj80zuImz+Zs8mFAHjevpDgECcoyiM3cR/Hl08l6Xh2yX2630zAiLvxqekI2XGcjrPHOyCRmM8mkJIFBt+7CBx6C97ejhiLsknf+yMxP/1AfnG57Z6MYH9sEHXbBWFbnMzpXyYQt8OWzsO70dC5mIxTRziwL4roo+kl+ysiIiIiInIdMrm7u79i2fiPM7lRp0UnuvboTIsAZ/LOxBC5cQ3rI4+RCeDTG99GgdgXHSR+yVckG0KpGRYKcctJTyvCpe87NAw1cybiY2K3HcMQ1B3/eu4k79pGEZCfsJuk3WtIPJoNPm0IaNqQ9KjfyC/yovqtL1HHJ42E5W9zNLY6Hk3q42RMJnn7anILOlLrzofwMe/iyLIPOXXSC/c2PXE3bCU5PoX8hN1k2DSjml8t7O1iObZ4MTm1OuPn40jijpXE7t1LXEoxTjXr0LBxc5o18MXVJo/kM+kUWD4HIiIiIiIiVZx1pph6NiIsrDam43+yNHw+y9dt51BiHsUXLJRL2o6PSDm6mZSde8kqcMS2mgvQBY8gL7J3f8KxP9eSffA7jm49iLlaEE5OJWsWp+4jL7uQ4rN/khR1gFzP2ri4AHTC1c+JzN2fcHznVrJ2vsHJwxmcG+Sr351q1c5ycuVrJB/cScafr3IqthgnnxbYlG43P68Is0sR6RFvk3J0OalxiZjd/HB2BiggJX4Xv//8I+HL/iS+yJuGrZvTUAVwRERERETkOmSdgJiyjy1/HCDTqxWDRo5iWL+ONPF3x+aChTLIPZFyQUuJ6tg6m3BpNYV2E1fSfuJK2g1qim1Zt/vNBDy0hDYPv0bIyEmEdG+Kw7lHZcRghOL8pHOhsDgv73xAdHbD1uSN/91LaD9xJe0nLqFhsGNZ73mZp8hKygMga9W9bJleMj0VkwM+wW3pdfNoRg9ph1/xcXZv2MqBLMsNiIiIiIiIVH3WCYhFmSREb2bVgh+Yv3onJ4p9Cet9K6NvaYef5bIXOUFeWiE5ez5g65R+bC67lYY0x1YDqWm/jwMfDmPHu8PYsXgLOUUXbsFo53WukIzR3v58UZnUJHILUzm54I7z253Sj53h8ym5uvFK6nDT7SMZ0KEeLhkH2fRzOHMXr2HrwdNk6zpEERERERG5DlknIJ5TRGZCNJtXLeCHH39hy5EU8i0XucgWUg+fxDb0PuoPHIOrfzMc6wyiWmjD80HPZI/Jzgj2LfFuFoQJEzbV/DEZfif9eDYuoePwC2uDc4vn8a3nen69+F85e9oRn/5v4d+2O05+zXBuMhx3b3vABVufZtjZmzAY7LD1boaDh+u5vYI8kg5s5OfwuSxes5WDp7PPj0yKiIiIiIhch6xTpOYSzPkZJJ1OJpuyIjVOZG79icwcwK0DNZrXpjBmGamnciiI3U6WYxjVm3ahVpu++DRvg1NxPInRB8g/a8ImuBsB3e/Gv11rzIe2kevTAt8W3bFJX0bCllSMDTri16oP3rUhKeoUTj5mUrevJrfgFJlH0jD7t8WnZW/8WvemZqMgik6sIvV0TwIffp46Aa4Y7LzwbN4bT/d0kvbuK712MpOkU8lkqRqNiIiIiIj8S1j3Zy5ERERERESkyrLyFFMRERERERGpqhQQRUREREREBBQQRUREREREpIwCooiIiIiIiIACooiIiIiIiJRRQBQRERERERGojIDYv39/yyYRERERERGpAqweEJ2cnCybREREREREpAqwekAUERERERGRqsnqATE+Pt6ySURERERERKoAQ0BAgNmyUURERERERG48Vh9BDA0NtWwSERERERGRKsDqATEkJMSySURERERERKoAqwdEERERERERqZoUEEVERERERAQqIyBGR0dbNomIiIiIiEgVoCqmIiIiIiIiApUxgqgqpiIiIiIiIlWT1QOiqpiKiIiIiIhUTVYPiCIiIiIiIlI1KSCKiIiIiIgIVEZAVBVTERERERGRqklVTEVERERERAQqYwRRVUxFRERERESqJqsHRFUxFRERERERqZqsHhBFRERERESkalJAFBEREREREaiMgLht2zbLJhEREREREakCVMVUREREREREoDJGEFu3bm3ZJCIiIiIiIlWA1QNiYGCgZZOIiIiIiIhUAVYPiCIiIiIiIlI1KSCKiIiIiIgIVEZAVBVTERERERGRqklVTEVERERERAQqYwRRVUxFRERERESqJqsHRFUxFRERERERqZqsHhBFRERERESkalJAFBEREREREaiMgKgqpiIiIlWHrbMn1d0crH9AICIiVZLVvw/i4+MtmyqP/aMET1xG/faWHf8gx3vo/10k4ybejo1l3zk16PZVHC989LJlRyVxpNsT0/ns3UdpZ2/ZVwV4jOWd8O+ZfOuFzY7dnmD6Z+/yaJXcaRGRKsihPh0HDaVzsCsGipg15ihRPQsslxIRkRuI1QNi165dLZuqLIP3YHxu/oTmzy+n/Uuz8K9ruUQF2PjjXt0N9xoNcbLs+1859uA/X4Tz/eRbcb/7LebOncHjLS0X+jts8KpWHTcPL/zcLPsu4xKhzWPsO8yd8Tj/6K5dgY1XNaq7eeBV4Z2+Osce/+GL8O+ZfKs7d7819y89ns6T5vJrRAQR5W9fj6ea5YKX4+BD9/un8N4n3zD3p2WsWPAOQ/6xN5GIXPfGfsQvEV8zvsIfKhfzaNiAANNRovckUmTZacm+iP90SuOPe48T98QJ1rW+6hoiInIdsnpA9PLysmyyKpNDTYLbtyG4AgfahpC+1PIzkhF3knzLzorKeJW5A+vy7uOvkW7Z97eYyc/LJv9YChmWXX9bBvNfuZuR901mUaJlX9WVMf8V7h55H5P/6Z0255OXnc+xlAuf6WqN2tCiXjXsr/RXdPw3Jo4fz/jx41kaU2jZe3l17mPG3Fm8eFtjqhmSOfDbr/w48yPW5FguKCJyJSYcagbTvk3wJU5S+tCgrjc5R2OIq8hnS7Vcbg7OJ/e0M8kXfSnaEBTWnhBfR0yWXSIicl0xBAQEmC0br6Vhw4axYMECy+ZrzIRDzfqEhTWlgZ8bptx4tixZw76iRwl+rj/FOzdi2+gm3ByLyD26jsPfTyOj3AwbQ8irNBsWSPKcOzl+pPx2r8Djv4xdeAu1S/9bGP0lrz86tfR/BpyGfsfocR3xdTaQe2IzMUUdaZRVsky3x6YzPNSh3MZKHV/LxNd/JMmhCxPef4Tae95mwt4+fPBALaLefpwZOxzp8Z8PeCAwi9NOPngXHCDyRC1aNHLg5G/TeeqTHSUjfZ/3JxAzhTkpHNuxkA/eX8UJADwY+87n9C/7JZKCaOaOnsRCAEq37R/L1tQGtG7ojCH3DLvmv8EbP50o3W4vsueOZlLJCniMfYdPWx7l7cdnsAMbGtzyNA8PCcPf2URx7hl2LX6X6QtjyStd9vP+gWAuJCflGDsWfsD7q0r2CoMHvZ6cyOh2/jgbcji+JRpz+6Zklt7XuXVLdprocvvg2OM/fPCAP7FbU2nQuiHOhlzO7JrPG2/8xAnA4NGLJyeOpp2/M4ac4/yxLokmPe1ZUfq4HbpM4P1HarPn7Qns7fMBD9SKKn084NN2KH0bV4PsROIORrN7Xyxn84pL96NkBPGVOlsYPnY6Z4GxH/3CnU6/cNvY6ZzFge7Pfcjj3ergYQ8FKYf59cPnmLY2FTMOjHzvR+722MikJ97iz3SLP9GxH/HLnU5ERhQT0jUIF0MBKQcWM/n/PiGqAHDoznMfPk63Oh7YU0DK4V/58LlprE29+p/62I9+4c4Q2wsb07bz3uhn+SkbHLo/x4ePd6NOyU5z+NcPeW7aWlLv+YhfRtch/qeneSTjcX4eks1Ho7+i7ozpDKm2h/dGP8vZZ+fySldvjMUFZKfEse7jsscL0JlJc1+hq3f5tJ3G9vdG82zJHV/+MXWexNxXunJ+1SKyjv/Bl09NYnGyufT5CsGWIvLSThK1+G1e+nYPBZd7vJx/zGefncsrYcf4oPTx/xWdJ1msW/q6/XLbWKafLe2/7PNxBecej6Xzz1edYZN5eUx7gtxtKS5I4cCyN3n+w62UvJXqMGzyy4xuG4iHvZGivGSORHzMc9PWcsuHV34+fsquw5hprzOymQ+ONkVkHd/B/Ldf4ts9BcBYPvrlTs6vXkxBygEWT/4/Pjl4G+/9OA7fyInc9fJG8gC4nelLH6JW5ETuOjKKn0qfm4W3zOC9EY1xI4uY5S/x6H93cfUJj5d7TAU8+YPl+6pU/DJuG7uFx+e+QtiZ3zni05EWXrYUZR3njy+fYtLiZMzl3yNFeaSdjGLxucdr+Tdt8Zq3nMTcV8I49kHJa+IwfDrzHgzj7M+3MXb62SuuG//kLKZ1y2L+HQ/xWWrJ7oY8+y0f9Mq5oM3yPXUBkwM164cR1rQBfm4mcuO3sGTNPsq/jR3qd2VoBxcOrVjJjqQioIhZY07Q/Gw1jlRLI6xaMfkpbiz4xZ3nz5Rb0S2P1XckYbfTh67byuKgLY17j6BtbRMFqSeIid7DroMnydEgo4jIdecS35r/JrbUaNievreNYmT/lviaT7ErYj7fz13DvnPfkibc6tTg7NLn2bN6P8X+3fHr6HPhZv4X6W/x0/i7mPmfLzlgOXTo/ASD7ruJGlk7WT5pHMt3e+Hve757y7wPmDZt2sW3b37hLEBuFInlt2nOJ6fsgAEwOCSx+sU1JLgGYLv1FdYct8Pbp05JZ/oiZkyaxKRXpjPn9+M4trqb/7u3bO5sOotmTGLSpFf5ca/lTpcweoUSkL6YaVNmsjHJneaDRlF+0rCtWwghISW3es7nr7o01R/HI3c0xy5mMTNeeZc5kfmEDHuMuxqV9KcvmsGkSZN4Zfocfj/uSKu7/4+y3XIe8DijO/qQufN73np1NtGedSj/CpWt++qPey89Smv0IjQgncXTpjBzYxLuzQcxqiuAMwMeH01Hn0x2fv8Wr87ej99NYbiXWzU3KvGCbZrzcyh7qk9tWcL3C1az7VgBXiGdGTLidgZ1bUGQRwXOn/d5mUd71yZ/74+89sq3ROYH0X/8K9zhAjCYNvWcOH3kBP3+u5BfIiL49Zd5vDumfrnrWP1oFBjHN8+P5+2V8dg1upnH7vfBAPR5+VF6185n74+v8cq3keQH9Wf8K3fgUv7+r6TcqOdnW5I4H3n78PKjvamdv5cfX3uFbyPzCeo/nlfucIGF77DiiC01ajfE7tzy7WngX8SBXz5nTQ5s++wVnh4/nvHTZrP5jBd9nn2dseWfbOD4bxMZP34845fGUH689eqPKZ093/+H8ePHM3HhQcy1OjJ4jEdJ18J3eHb8eMZP/JQVB8yEjnmRFzuWXKe68J1nS+5v/FJiCsvd/4vvX/PR2oo8H5dU9njKRqXPvV4v8v6aHPB9hBfu74THyeW8P2Ein6w/S8CQZ3i2W8lJp86T3uThTl4k//YRE8a/zY/RRQR2vpVbA0xXfT58H3mBMS1dObVmBhPe/oWTnq2587lnCC13gfW5dT78g2TXEHqN7oVj7g+s3ptG9UYD6VR27mtgK+o4JnFw5bbSwAhwO0/cXI+zv85g7t586vYcxwjXc52XdfnHtJPPXnm6ZH8+20JS8fn3yfjXvj33t+xUPxibiLd5ZuLX7Mj0ofPop+leup9lz8nET1dwwBzKmBdfpPTt8xc054mBjXE1WLZf2q5vthBvCKLVqJK/afClV7AvxbE7mVfus/6SbGvQsH1fbhs1kv4tfTGf2kXE/O+ZaxEOwYOGDQIwnThEdNKFKc7FL5fiPTV5YHl1TtilMaRlPjUuWOJSCti7ejY/LN3A/lQnAlv35Y6Rt9K7fQg1z38oiIjIdcDqAXHdunWWTddQbUJbh1Ij9yC/LZzHolUbiIpPp+CCU/Rm8mLmcmr/LjK3/kpahgE7l3rlF/jfFJ8iOXI9CbtPkH/+CBsAm86d8HFOZ9/s29j2ewR73n2R/eVmRWYnxnHkyJGLbwnppQfrqXz97Agen7GDnIg3uX/k08wsN7JpzkwjIbOQYnMmaQmZFJa//+JUjh44SZY5ncMbl7H9WBF+gWFlnaQejSY6+hDJeZcZxyg4RMTbS9i+ZxWzdp/C6OxC9XOdttQfMJnJk0tuz3WpVdpuom6fEHzTd/Lja/P4fd+f/PTpSvbn+OAfWrJEcepRDpzMwpx+mI3LtnOsyI+S3XKgVWN/HFN3Mv/tJWzfs5qvvosi6dx9lqwbHR3NoeS8y4y+FHAo4m2WbN/Dqlm7OWV0xqU64NCKxv6OpO6cz9tLtrNn9ZfM3HrywlVTv+bZEY8zY0cOEW/ez8inZ1J+ELkw/Th7N/3CgvAlbDiYg0e9FrQIvvo06oE9QvDIPcjPkz9jzfpZPDd7B6mOtWlxkyPggr2dAe8WN2Gz9gOen/g128960uKOx7jtXCLKIWbFdBZui2TltP+y/riRwGZDcWcgPUI8yD34M5M/W8P6Wc8xe0cqjrVbcJPjhftwWUWZ7IuMJDIykhM55d48A3sQ4pHLwZ8n89ma9cx6bjY7Uh2p3eImHNPiOJGZh41LbZp52GIw2FOjiQe2hgIyE06QZYbcU/s5cCoX86ndLFuwgwRbX0K6XjjprShzH5GRkUSmFpR7LSvymMzkJe4hMjKSbVtOklacQ8bp0nGntDiiYlMpzjzM+rnriMn2JrC9c2lXVMn9RaZSYC53//uOk1W2AwZ7ajQJIywsjLBQf5wreJAPFut62JYe7JeoyPNxSWlxRJW+PqklO136eu3jeJYZ39taUqcwmsXPvc+SbRtY8Nocdpytjn8LJ2Agg5p7kRs9n/FvLWJb5Eo+H38Pt4x4gq/ii67yfPhyW8s62J3czPR3F7Ft5TQmrYql2Lc+vcuFuHPrrDlEUn4x2anxFAA/R0ST6hlC/z4lj7Fz6zq4pRxm7fayeGjCZUAYfo6n2fPFIj7fGE+OozcNm10tjV3pMWVxav+ukv05kUNxufdJZEzyuZMftok7efuzNezYMIvnFu4hq1o9urcqud+0uChiU4vJPLyeuetiyPYOpPTtU8LkQmhYyWtcy/HSX6kOw++mdfYhDl99KLTEyfnsiDNTt80ofA2AQz8a1TITH7WENMtlLdUOpXVoDXIP/sbC8EWs2hBFfHr5v6dSPg2o653D0Zg4LM+FFCS5MDXShlUxDqw7Y4OtUxFBFstcmpncxBi2RSwhfP5qIhPtqB3ahiYVW1lERKqIS3+bXUNJSeUP7a+1Y0Rt3EY8dehy6xhG3NyTNg1r4nTBoy4mN2VL+YZrzmBrwmDOJ7/sTHBRHPnlrufo9th0Pv7444tvL9zO1aPHldgQPGoKX3z/Ka89N4EJE56ke+BfO7VbnHqWY5aN5xQQPXc4w4eX3B5YUVax1o7abk4YPdrwaHg44eHhhH8zjrCyWjI2wYya8gXff/oaz02YwIQnu3N+twzYGI2Ql3vuWsuixJy/dk1ocSpnL7XTBhtKNn1uyyTm/JUtG7H3qk/LboMZMfoWOte15Uz0Zv7cV/Ieb+DtSebZuHKjI+d5uzpjLMglrezEfVoO+djhUG70MX3Pt7w6e23JQevyA+Q5+9K4ednBcgonfssq/Xc0SZnF2No7Y8QbV2cjBblp5wpOpOXkg50DFRnYvCJvV5yNBeSe32lKNu2BCVj6fTiHPG/m9cH1sXFrwug3B+N1aClzV5ZOEf3qJ5bO+i+vTp3K1Kc64Vvh/anIY3Kn1f8tIyIigp9ebEz6r9N5ZV4mUIcx08L5ZcFnvD51KlOn3kqjv5TwALcmjH5zOtOnT2f6h9+xOPwtbq1ewW2UX3dwuRHgv/V8XFm9ai4YnRozdklZcaSXualG2YdeyXOZGPtzuWuXc8nJuSg+XEI9qrkYIT+Hk6XDuycz8zAb7XD2Pr/zgYPml9zvnCG47JnNK2/vKxkNXhXO9pMuNOoxBBdC6FC3Ohlxm9mcW7amP93u7YB3RhIxucDJNLLMdjhUv9oT83ceU4m0MwdIKVu8/P3WGcO08F9Y8NnrTJ06lam3Nrr4BIF/N6ZML3mNH2zrdYkv1aY8NdCHA+G7/sLn1km+WrufnNotuDvEBgY3JcA2gf2LT18c9NJKn68yx6LYuC0e6nTh1tEjuLlnWxrWdLLYLweCQxvglnSE/Scu3qu8DBM7LRsrxAaX2k3o1O82xozoSzOPLA7vWM/OWMvlRESkKrv4u+was24V0wJS4qP4fdk85ixZx75kR+p2GMgdY/rRrMLz7a4Rgx12pTPgMNXBrlxOu+oU0/+VQ0eGdm1A5u+vM+6esYwd+ziLLjiyuFZy2Zucjjkriu/uPB8ghw8vuVbQoeNQujbI5PfXx3HP2LGMfXzRhQc8APYOlA1SmGo4lpvG+PfZO5zbMjUcK75ln7ZDGTWkMyHV84jfuooFcxew6o99nMgoAkLwcjGSdfbAJQPimYwsim0dcC879nV3xI58clOLgEzy8i86DAQKS/sBPKnVrWwYo+S+iouLMHOGjKxibB3czxWKcHe0g/xczq36vzqTQVaxLQ7nd5qSTadSBNx+zyjqnviEwbOiKUjbznuDZnGy/mBG9HOC22+lW60zLB03kMGDBzP4gRUcrXDNnoo8pjS2vzeIHj160OeuBeS0e4FPJnXEvu0YBjQ3sHPaiJL7HfwJu9IthvSvJm077w3qQY8ePRgw9XeSPVsxsGz66tWUW7fHrOjz19L9refjyrYlpFBUEMP8UT1L7rf0Nnb6WSCOpNRiatQbirdl0Lmqw5zNLAY7R3xLk66viz2G4nyyzpx/c8Uvu63kPoe9xD7vUXw4497Sadu7WByVgEO99gxqOYgmfpnE/P5ruWmP8Sx7Zx1nXL2o7wD4uuNsyCc3+Wpv3L/zmEq4ewfjWbaurzvOhmKKC8y0HTOA5oadTBsxuOR1+mQXF7194pdxW+lzPHHdmXJTskvYdxhLWNoKPvjtr73AuT9s5FCOL6FDG3JHhwY4HtvN3JMWnwtfP0rfWyyujy1IIT7qd5bNm8OSdftIdgyiw8A7GNOv2fkp2R4NqVsLjh+KxmJ26d9gS+M+oxneuyX+tonsXruYufOWsi4yjrMXZ1AREanCrB4QK6uKaUFKPFG/L2PenEVERJ4g86pfigaM7o1w9GuGo6s9BoMRk3szHP0aYnOJGg6WDNWb4RfWBb+mtbAzArZe+IV1wbeOFwVr13Myy5WGd8yh9U09aPL0azQqd4HH1aeY/h0GbB3csMWIV5e7aeltBls3grzswehBQEgIISENqG5vAGxxCwkhJLhWxa9fuyQzSWuiiLVpyrDXn+WOm0IICWlCj5v7EFy2iMEWBzdbMHrR5e6WlOxWEF72Ofy5+yg57k0Y+tRQWjXpzb13NSs3kmrEI6DkmscG1e0xnLsOMphaV9vpnD/ZfTQH9yZDeWpoK5r0vpe7mlX8/ZmfeoQ/f1nA3AWr+GPfCTLOvacc8GkzlFDfDM4cc6JJ6fQzD1sDmFxo4O/M8ohoUh0aMnDSg/TscidvjWmJR84xdv6eAyxl6+FsvFo/yMtjutOy8528NSAY28QjbDpcdpBpT91+/2FM95b0e+YpuvgbOBmzmgx+JiI6FYeGA5n0YE+63PkWY1p6kHNsJ79bziP7q36OIDrVgYYDJ/Fgzy7c+dYYWnrkcGzn7+S416G6vQlzcaHFCIctLn61SkddbHDyccHg0Ig7Hm+GRy7Y1wiiupMPbcYMJdQrl8zES83Bq8hjMmBfo0nJVM4O9fC0N1LNpyklM1BtsHd3xIA7nZ7uSYARTC4N8L9oKOgyyk0Tbd3YCydDEQW5lwrwf9Vlno+/+amcu+xPDubVY/D06TwxtDVhYWH0u3MEHRwA1rJ6zxnsQobz3vQnGNo6jLCwzgwb0p5LlMWycJL5O+LI923P+KdvoXW/Z5jcJwjjyRhWlyvwa3IJLXkdWrehprMR++pBNCkd+I6e/SextiH0eagxvnnHiVprUfnnz30k5NSkyf238ECnQBwLUzi+91KnWMr7O4+pREH1MP7zxFBad76Tt25tgnN22d8iYGOPu6MB3DvxdM8AjJhwaVDRqcbuNGnjStTXc0m81FvGcnqqwZ4aQdVLv5h/ZGVUKr5h4+kZ5MjpmF84Y7GNOvd9wI/hH/BAw0v9ym65E6SLIog8kVk6Am+iVnBdvHOOElOh0qXn2doX09G7iC6exdgawMa+mC7eRTR1ADCTlbCLiMVzmbd0HZFxZ//CiKmIiFQlf/NQ5DpUkEJ81G6OXPV70Q6XHq/QfNzbNOvXFAdDdXwHv03ze1/Gp6w06RU43PUh46Z/x7g37yPYDWzqD2Xc9O8Y++zDkPUBy77cQIpHOwZMnsmApqfZvfuS5VX+WbmbWLLuALYtH+Or8DlMH+7G3n1J2NYfwBuTHqCl2y08Pnkykye/xO2N3cC2PgMmT2byxAfoY7mtv6joyHe8/tFqEpyacfPjk5k8eSIP3tKOBkDupiWsO2BLy8e+InzOdIa77WVfki31B7zBpAdakrV8Bt//kYxn29E899IYQpK2sPfchThu3PJ4yTWPL93eGLdz10FO5IGr7nQWy2d8zx/JnrQd/RwvjQkhJe6U5UKXdfbgLvadyLjEb4e15sGnexFo40Hze94qmV44fTqD69uAfzf+82RPHFdN5aPVx7BrfDsvvnI3YXaxrJj+CvMyAXL54b1v2JDgSpt7X2balLtoZnOQBa9NYe25kdVT7D3kxbD/TGNCv0Dy9y/gnWklU/lWTf2I1cfsaHz7i7xydxh2sSuY/so8Mi/Yx//FKqZ+tJpjdo25/cVXuDvMjtgVpVM5b32W/nULSDx2sNxB4Wb2HC6ift8H6LlsIb8dc6f7G4tZs/QdBhbu40C2K01Gz2DapCd4+q5m2Bz4mS/mXvpHW67+mNxoMvrNkud6Ql8Cik/w58r5pG2ZzfJdeQTfP5tffw1nfN1DRCYU4d/tDWa8MvgSZf8vodw00Sk316dg/2I+/upqlUKu4scrPB//9zd+1A7g5Dc8O2U+hwwNGfTk20yfPp0Jd/WkZen1mhumvsBnvyfg0GgIT749nenTp/DQLR2pdbWZnMDJj19n9o4MfHo+ztsT+uKbso1Zb01jX7nBMf9uU0pehyljaeGRRvRvP7KlLOOd/Io/DhdTp34A+bFbWHzRy/0jC9edxKvX44xobMeRlZ9Qkaf67zwmgOwDe8hs/yBvThlLS5dTbPhyKvMyYcvs5ezKC+b+2b/ya/h46h6KJKHIn25vzOCVwRV695C1Zynv77zUiY9LTE91a8LoZ+6mbHx61YrdJFWvS3330+xbfOCCwk0A/n5euHtWx8fryg+0ICWeqN1HSq41dKhPcD03zhyM4thfTHD1G6Xz1YgTzBqaSJBDEf6tTjJrxCk+bFIEFBK3J5I4DReKiFz3bpCfuRCpCHvaP/0eTzU5xtdjX2elZXeFlfxkQ9ixDxj97E/lptBdrv0vulJpe5GqrvPLzJnYhjNfjeL/5v790xZ/zz/0N/kPsfzpC/DlnhmfMdrjD54c+8YFQfx/5dGsP4Ob5PHnoggOXvVEqYiI3IisPoJo3SqmIldm9Ago+VmO0HYMGvcso8KqkXloJ2stFxSR/52DD4363skTE//LnP90w/PoGj6dX9nhsOpyq9OJYQ9M4NUvPmR0SAE7wt//R8IhQNbhzSxftokYhUMREbkMq48gilQlHmPf4fP+gUAxeVmpJET+xKefLif2apc9VSaNIMp1ZywfrRhBYGE6p3ct5b+Tv6P0t+YrWdUaQSzTedJcXm7vTHZqPBs/f4l316ZeXL1URETkGrF6QOzatatGEUVERERERKogq08xrawqpiIiIiIiInJlVg+IIiIiIiIiUjUpIIqIiIiIiAhUxjWITk5OZGdXlVIAIiIiIiIiUsbqI4gKhyIiIiIiIlWT1QNi//79LZtERERERESkCrB6QHRycrJsEhERERERkSrA6gFRREREREREqiYFRBEREREREQFVMRUREREREZEyVh9BVDgUERERERGpmqweEFXFVEREREREpGqyekBUFVMREREREZGqyeoBUURERERERKomBUQREREREREBVTEVERERERGRMlYfQVQ4FBERERERqZqsHhBVxVRERERERKRqsnpAVBVTERERERGRqsnqAVFERERERESqJgVEERERERERgcqoYlrZTA41qR8WAFFbOXAN6+XYBIXR2uE0uw6eJKfIsldERERERKTquUECogmHmvUJC2tKAz83TLnxbFmyhn1FjxL8XH+KI7di37gdLrZF5B5dx+Hvp5FRANg/SvBzg/EEinNTSNs3j9hli8kHDHUn0mR0GJnLbiV2J4ABm64f0+omW45+MY5kr97c0bY2poIUTsTsZ8+ug5xUUhQRERERkSrM5O7u/opl47U0bNgwoqOjLZuvEVtqNGzLTd270bFxTWwzEojetpaIjfs5XQDYtMWrcwieLnmcXPo2xxP88Ahri5M5guT4TCg+TMahPzmzcwvp+d64h/XDw34HSbFJkF6IfZOeeJpSOLX/EFCd6l3uxDNvK3Hr/yAv8Qi79x8n0+hOraBGNAlrQlANJwxZZ0jKUlAUEREREZGq519+DWJtQluHUiP3IL8tnMeiVRuIik+n4IIx02Kyor/j1P5dZG79lbQMA3Yu9Uq6zGfJP3mcInMaufvnk3iiEDffdiV9RVtIiU/GPrAj7gB2g3H3tyE9djm5pVs25yYSsy2CJeHzWR2ZiH3tUNo0CSq7YxERERERkSrlXx4QjxG1cRvx1KHLrWMYcXNP2jSsidMFj7qY3JQt5RtKmXDoOJ2wF2bTbNQkQkY+T+3aduX6C8jae5Bs13q4NwJjyxZ4GuM5u2X/uSVsXGrTpFM/bhszgr7NPMg6vIP1O2PLbUNERERERKTq+JcHxAJS4qP4fdk85ixZx75kR+p2GMgdY/rRzMVyWQs2XfFu3YiCHZPYMW0YO94dQ+yRsrHBEub4NaSmuONerzsegbUxnNjN2fSSPrvGfRg9vDct/W1J3L2WxXPnsXRdJHFn8y/YhoiIiIiISFVh9YC4YMECyyarKEiJJ+r3Zcybs4iIyBNkVvAyQKOtBwaM2AQ/jqdXMdi4Y+/qUNJZtIXk2CSc6o7Cp7YtqYcXUlC6XnF2ArsiFjN33lLWRcahXCgiIiIiIlWd1QNipStIIT5qN0dyLDssFK7jzLb9GBs/RZuJywjrVY20w0kYAwcQdufTlAxAFpCz+yBZnrVxsz1K6q5T51eP3UNk3FmUC0VERERE5Hph9Z+5GDZsWKWNIoqIiIiIiMjl3XgjiCIiIiIiInJJCogiIiIiIiIClREQs7OzLZtERERERESkCrD6NYgiIiIiIiJSNVl9BNHJycmySURERERERKoAqwfE/v37WzaJiIiIiIhIFWD1gFhZWrdubdkkIiIiIiIi5dwwATEwMNCySURERERERMqxekBUFVMREREREZGqyeoBccWKFZZNVqFgKiIiIiIicmVW/5kLJycnhTUREREREZEqyOojiJVVxVQ/ryEiIiIiInJlVg+IlaWygqmIiIiIiMj14oYJiCIiIiIiInJlVg+Iuv5QRERERESkarJ6QFQVUxERERERkapJVUxFREREREQEKmMEsbKKxXh5eVk2iYiIiIiISDlWD4iVpWvXrpZNIiIiIiIiUs4NExBFRERERETkyqweEJOSkiybREREREREpAqwekBct26dZZNVKJiKiIiIiIhcmdUDYmUVi6msYCr/Mva1cPBrgI2NZQeACRuvZjh6ull2iIj8K5kc3anu4cQlPxL/aU5DeGfRr8yd1NmyR0RE/kFWD4iVVSymsoLpP8+H7l/H8fxHL1p2/IPs8bl7PvcvOcRLEXFMXLWe7vUsl/lrbHp8Tvv/vEt1y47rigvug6bT/NaROBZa9oHB51Hq3z8V/xBHy64bnrHJ64RNXEn7iStp/+I31KpjucSNxXf8ev4TEcfEiDgmLl1Bm1qWS8gleXTjiWmf8vbDbXG27LuMRvdOY/ZXkxhaw7JH/jZbP1r1GUrPZjWtfzAhIiLXzA3zmV5ZwfR6ZGz8AYPvbInT8UX8OP4uZj7zIH8ctlzqEsIe5YMfwpl2Xw0Gvfwt4V+8QG8Xy4UupwY+962kzYhRlh0lXJ6g0cSfqNfGssOK3EdTs6EDZ3d8RoZlH464tGuHe8Z2Tm06bdl5wys+9BH7Z04gavVe8iw7q7R2PPXJPMLfvBPb26cyJ/wznu1sslzoLzvz3WN8O/4uFvyWQL5lZyVrdO80Zod/wCMNuvPcF/P4atJQrnm2anQv02Z/xaSrpTjnGlSv5kG1Gj44Wfb9z3ry/JfhfDVpKG3ueZtZ4R/wSAPLZS7Fln5vLiQiIsLi9iufPmC57L+TY2BDgtySObg3tsq9j0VE5H93wwTESmfjQu2mnWhR5UdOjLgObIxvUQxbnp7Agcj1JERFk2u52GUVkJ9TxPGzaRRZdl3XbHFs1xbP/GiStlwiADoMpkYDd9L3L7xEeBTyTpCbEEVuRh5my77rQH5eNuajZ0n7h3a+KCmKk5HrOZt5iaHoqqAwj9yCkySmFVj2VK4TPzLp3hGMm/ITiZZ9f1NhXgYHjqVcGHRqNqZt8zq42xrKt16g+MgKxo8fX+72NG+FWy51vTJiV60uLds3wduyC3fq1fPHdPIIMcmWfZfgHkzrVvXxstdhh4hIVWcICAj4hw55KqZr166Vcj3gsGHDWLBggWXzNWfjUpuQls1pEuSNozmd/evnsykO7Dq8T9PewdiaCynMOMmZ9W9xbEdMBQ6efej+9Wba521il2tLWvo6UJQWy9YPBvLr2mycxv/OM4NqQ8F+Ij7LoNmDrfEy5ZGw7iW+mTqfQkMN6j8zlwG96uJha6AgLY7tnw5j1S9l3/CuNH5nI7f47+D7kfcQe+5+G3PP1Edpe4k5ome3fsJLX++GJg/x3gutOPP1Uyxv+DrPhZ3iq6deZ3VmyRTT1m1zOLHbDe+WvtgWpnF2y4ccWvM7ph6f07pzgOVmKTr4HVvnrsbnvlnUuWgKXj6JK4ZweGsNfO6bRe3cTZx0aUGtmo6Qe5pTv75E/I5jgB2ObSdSp2NTXN3sS86IFCdzYt5ojh0q25YL7rfMpFFwCnFfPszpSx152g+izsMP47x/CntX/mnRaYtDjw9p2jKTI589TXJGyeNt1SKJA+//jOuDL+F16lN2/hJIo6e6kPvzN9DlIRyiniIm7wladLXn2BfjyenyJcHuG9kb14Qml1t3yW3ERVncvSVTE6oPeYrA0FrYmYooSIwkbv4UkhPzsWn+Go0HB5O15v+I+eMYhtr/IfTujhRteoH9EXtKRmrHD8ADM8U5KaTu/YG45UvJL50m3Lq9LWlnvXH3OM3JQ0XUbOxH/v7Z7AlfivOwLwn2PkxCan38GrhhLDj/Gpe9r41NXqfZUD8Sv7+HE3Hld7rkdQrq0gI3JxPm3NOcXvsq8VsPVeBvAgy+YwgYNBRvH1dMFJKfGM2xZS+ReDwPTM3wvuM5AoKqY2MsIPfoH8T99DqpKS64D/uSYN8sspx8cM4/wOkz/vjUsyN98+tEr/4TaMmTHz1HaNwMHlnfhg/HN+LIjEd4Z0NFTn84UPOu2QwZ1hwfV1soyCYx+idWTPwP8eklS/iOX8/d3bNY81B/tp4ov+693Lp4Ik3coDg/k8T9y1hZbj1TyH8Y8sJoGvq4YG8qCS/Jm/6Pz15aTCGBBD/3Bb06B1HN2RYDQG4Mvz7Si03mUUx8rjM+5e8KgEx2fTeBzzZD/XveZlKXLOY/N4/qz71E54wfeW7yEhJpxL3TXqJzXiSH3ZrTrKYdhWmHifj0Nb7cngVAz+e/5MEWrlCcR8bpA6z56r/M2ZUFtl15ZsbDNIz7nGfejCCd0lHDl3phjniBZzf1YNpLncn48TkmL7nEH2Cje5n2Uj8C7Er+m7n3+9J9onQE8EF8D28is3476rkYyDm1k0VvT2PJ8SIa3TuNlzpn8ONzk1mSCDS5n3efv4m8n5/nhTkngO4898VD1Nr5Ek8cuI0vH/Rl+4tP8PEhIKAjt3VvhKs5k9OxB9gXtY/4tILS96Qt/d6cxzMeK+n10Ofl97ZUSf+Eth7l2swkbZzC8JfXgeMTfPnzzQQBhbkpnNg+j6kvh3MEwLYfb86bQPlVC9Pj+O2jR3l9dSH93pzHs3X3MmX4y6wDHJ/4kp+HFDC310N8Xvb/m4OAQnJTTrB93lReDj9SsiFjI8a8/jzDW9XGpWww3JzExinDebnsq9loR7U6TQhrFkJANTsKT+9i1c87OFO2M4CtX1sG9PQncf0yNsWXxGrnehlsHpiCGwbys+2J2VGd23aYyALwasXggc3wIoeko4eI3r2HI0l5FJfb5lU5DeGd75+gduQrjJi8wbJXRET+IVY/lVcZ4RCrVzE14FirKV0GjWT08O6EumcTu2UFP3xfEg4BCiKns3fmBHbN/pJjR43U6PsivhdnpMuyqd0It52v8vVrszlSXIe2o1/BFcj59lG++X4vGSYfmt/syf7/PsCK3fn4dbyXMMD+jq8Y2s+HtPXvMGvC62w66UGbR74kzMGInX87/MI64GpvAJMT7mFd8Avrgm+d6sAhfvp8GtOmXXz7bMmBkp3ac5KU8sfNBbmklR8gsa2Nh8tODn79FodjzXi2HYGXKxT9+Sa7Zr7KsVNQFPsTu2ZOYNfMCez5ZRlwlqQlE9g1ex3pFJC8rqRv18wXOLb7/KaN/o2wP/gRUV9/yokUD3y6P4qnDeByPwF9W2J3JoKDs0rX/eoVTp5PvkA++alJ5KYkkn/JoVIDtm37U8PhMGc2WoZDwLYz3o1rk7d/Gcmlw4fmjEwKbe0x2QZiSzZm55rY1fHBoTiD/OQ4CnINmOxqYOvqTFGuCbvqjjh6uFOcdZrcK62bYnnnlmxx7PkU9UNsOBsxjV1zZnOmsAl1Bz+EA2YKd71O3N4Cqnd6Gi+vlvgN6ILj0WUcidhTsnr298TOnMCur94kZsdxbJveT1C38vPtikhdMZPTed44pX3BwX3Z2FULxL601+AejEvOQvZ+Vfoat7sbH99yq1+GwfdJgvo0xxj7I3u/eoND0YV49XqWmhVYF/tBBN4xhpoOR4kPn0DUopWk2zXCp1UfTNji2PNJguoaSVk/jaglf5Dn04X6A+87V1TDYH+GhK9+JcO1Nsbo/3D0pD0u1csuut3B6dTyETWf3JSKRFZwGvY9d9zVHPu4n1jw3CMs/CUeu4a9adG3ItMI5rPmxbuYOf4RFi2OJDfwNoa8dH/ptMq2dHrmXkIcT7J95mPMHH8XM8ffRfiMlRQCDHiH/n0CyN89m/DnSvpmTnicHceAE8v58hJ/w9OmfciCyJJ7jrEYRSvMy7hgWrBz3YY47JjJq9OXcsgcRNdhQyk7f/PH128yadIk3vhiOXtyAhn08KN0dwMKNrE1JhW3gDAaOZQsG9i6Ad7GE0RHXHCm4NIOL2LG1ElMmjSfvSVZ9CI1G9UhefHbvPn1JpI9WtJ3eCtK7+oCgWF1qWFI5Mi2U6UtFiOlhXnklv336Cbmz1nImsgEqNmErreM5PYBN9E8wKXCX57nRhj/s4aj5TtyZ/P6+PGMf3oKX62Jw67V/Ux6rnG5Bcyc3f4F48eP5+lXl3PUrg7dbrnMFHwLubNfL1lvylesibOj1f2TKNu03S0PMLxtDZIj3mH8+PE8+20UaWUrmtwJatmDm0eOYmjHujik7GfDT3OYYxEOwZHAhkG4nT3CgdJwCJB91Jlxc2tx5zwfZsfYENDxDN83LO1M2s7S2fP5ZUsceZ4N6TRoBMMHd6dVPU/rFLgREZEKq+h33D+msorFWDeY2tKgWRvqOSexa8WPzFsawebok+SUC0/mnHjyUtIw5x0mfcd6UnI9cQks+ya9uuK0nWyaNpsTa95iz5EMjM7eeAHm5ChOJeZhNrqQuWUcEStXs2vDETJsa1CjUzWadqqPfezPLHztY2K3fc761zZyyrkWvq2cafDkF4yb/jl9mrhi9GrLkOnfMW76d9zz7ENAPmePHeHIkYtvx86WHSAsYfKd9/P66kwiP3qCkY9MZ0v5wFWcRvKmD8g4vpbkPUfIMzpjVx3MWUfISThAURFQkEpOQlTJLSUdKKIwKYqcM1kUY6Y4u7QvYc+FYS5jD6fX/krOscWcWLODbKf6uIeW6wcwp5KfEEVOwiEKL5jZl0/O2sfY9dlEUi41P9TUmBohdSiMWUfSJfpNTQfi5ZpA4va159rMWdkUGl2x9fPBNuMwGcZq2JuMGIrOkhd/isI8sHOujb1zLikJRdi6OmAwFJGTFnfldY9dcNcXMwVTra4vuXtmE/fHr+TE/EDClmgKvQNKi3pkkrZ8NqcKGhB4z8vUco4mdunn5wNBcTJ5p05QXJxCTvRCkhKKcfMpd+FncRr5pwowm4vJT9uH2Xzh+X+D4RhJy+aSdXwtiT/9ylmzD+4hV7ugyxaH5o1xTd/B0QXfkHF8HWdXLSM51wdnf8tlL2Zq1oPqLimcWv00Zw5Ekb3nQ2I+Gc6eJUspMgVTrW4tio+uJf73X8mOeoe4Xaew8WtEWa1Zc1Yq+bmFmIszyU9Jx2yR/+a+OIIH39lA0Z//5eE7HmfG3oqMefgQ0jUEj5Tt/PL80+zbupy902/hk2HtWPxjBQIR6aTtjSSrIJOUzZ+zKzoVt9odKD8WVaKAnNhNJESuJ/H0Jc5u5MZxOnI9CXuiyS0CClM5cYm/4SNHjpJUtvqaN7jv3sksSdzPV8+M4YGyEb8yp3fw7dfr2L15Nr/HZuPg4nHuesDsU4eITykkNyGSlb8fINXdn5CaAAVs2hpDarX6dG7mANSiQ0gtbE5EU5F8SEEK8QeiiY5OJv8yT39mzK9889NOdq5Yxd4zBTi4+uJa1mmwwz2oBT3vepFn+wWRv38dSw6WfSCXPM4nPj5U8thHPctX5fepIJWjURtYPj+cZX/EUVCjAa2aB5/f9tUUphEZGUnk7owLp92bz3J411EyzKnsX/MDm+ILqBXUqfwSFOcmlKy7dQenM81kpZ8832l0wC8sjLCwMJq6XnhdrPnsYXYdzcCcup81P2wivqAWZZs21XLHpfg4W99bQWRkJFGnc8+P0lcLJizMH+OxP1kaPp/l67YTc6lRPvd61PM3cfJIDOVnl5oLjGxJMZBnNrI22pXdKYXU9in3YVuUQUL0ZlYtDGfx+v1kugXRvEUINcttQ0REKp/VA2JlFYuxbjAt4OC29exOdCG07x2MuX0wXcPqUK10ehTGYLxun02r8TNoPHISIcOGUr2iJflKFaccufBstKXiFM7sLDnKyV9wM//t1YYVG+1wdXHEpu5wniqtoPjyrIGlZ/8z2PtsM6b0aMqC7ekUn/6NWT3qMKVHHd549LXSKaYf8/HHF99eHdvU4s4voyIB539UfDaOzNJ/m8+kUGCww2QPZH7B0ZV/klu9Bw3v+pw2Ly2myfD7cPwLp6xNze/Bp0YiZ7YtuHi6o6kJNVuHwJHfSCx37FZ89Ax5Bjts/KtDeiz5djVwrF4N29REcsklNz0TG1t3HFzM5JzOxs57MPYuReQm/3mVda/Cpg62DkYcw54uqRg6cSVthoadG+EDIG8Zx3/fh9nJjqy9c0k+Nypph2Pn9wh7/juajppEyMhn8fcve9NWTHHKKXLKjgeLTlGQY8BkV81iKUv22Dk7YvBoR2hZpdPnHqRmBY/ADa4u2BYmkLW/XGNBTslrZVMHWwcgP7NkdI0CCvLzweSA6S/+zf019XB1tSHr9C7OZJe15VJw7sm5Mtehs3hgeSSPvv0pI6d+Sq8WnuU+rLewcdpX7EmvQctxn/H4ooM8O2cpnTuUPs/Ln2XF8sMYGo9h+PvreeGX3YydeD/uJiBwFBMv8Tf88cdv82D78/d/JVkpJ8+POJVXoxdPvfcdX737EhMmTGDCbc3xLPcNU7BpKzGpntTt2BSHWjfRtDbE7fyFiuTDishKOnBBWLmAcwMGPfM8Dw5qjjdxrP+64tcwmhxq0rBNT4aOGsXQDv5wYg8bt+7/m9caGwl5YAYLfwnno1enMnXqJPoHWf6tGfDqNImIiAjWzH+cwJNLeWPy8vO91Vpx//TpTJ8+nTd7lpt+YgzhgRkL+SX8I16dOpWpk/pTftMF249xGn/a/F9/wsLCaFbToWQaMsDZffz5x0EyvVsxaOQohvXrSGN/N4sRPlv8Gwfjkx3HocNln7oAZh7omsj+BxOYNeQ0nw1OpKXFGQ2jXTXqtujKoDvGcGvXBtgn7+fPzXu4xFXdIiJSiaweECuLdYOpmdzEGLZFLOKHuT+zOTaLaqHduXnUSLrWB/yH4dPAzOn5d7D93WHs+PBzzvy9o40KyiH5bAZFJ1YyszT8TelRhym92rBio+WyliowxbQSGavVoaxgqsHbE1uKKRncyidn62QOzBjK1ncfZ+/aWGwa3UJgl6uNapUy+FG9STDG+N85fYkjWWO92/HyTiVx++zSAFKqKImCPBfsfd0hfSu5WW641HTCnH2WPPLIz8rB4NoAZ9s08uLPgkddbO2zKMi42rpXkb+LvEwzefu+4M8p/dhcdnvz6fMHz7bd8OsQiiE7H5emo/HyLG2364F3q/rkbX2Z7dOGsePd+4iLu2okvYDR0+d8+Db5YOsI5uKrFTrJIictA3NWJAdeL7fPU4ZweKvlshczJ58lz8YPl8YXxOAShXEU5AJ2LqUHubbY2tlBUS5Fl5mq+M/YTvLZfJx9W+L7l38Wsy0thrTD+dBHfDwklHcHhzJ/Y9IFo09F0W/y070teHtgJz6eMp/jTo3p8uDk0kIi8Rx4dyCfD23AW3eN46fNGdTs9ji9Btes0BTT/1X9gX1o6XyQWU/fy9ixYxn74WYSL5hyvomtMWlUD2pDs7aNqMVx9qy74MLLaydzL98/OpzR76zjpDGI9rd3rNjPZAR0YtjIgXRs4EZWzGaW/ziXRb9u4cCprItH1f4Km+7c2SeU3E0vc8ugwQwefBuz9+dYLGQmaeNkevToQY9+D/GrqSevffocZZNQzUkbmdyjBz169GDg4vNz5m2630mf0Fw2vXwLgwYPZvBtsym/6cKNk7n/xWUk17+X16ZP5527m+Fe1lmUWTLCN/8H5q/eyYliP1r0Hsbom9txbra3YyD1azuRdOQA5WaXgn0uo5sWcOS3WjSc6UfIlzVZXz6xe7Vm8Kib6drYi8Jj21i9YC4LVm5i7/H0Cz87RUSk0t0wAbGymHMTidkWwaIffmDphv0knjveNmJ0rI7B6INrp964GAswOtTC1vbC9f8aE071u+BTwx4DRuxrdcGvUUC5s79p7P9tPxm+vbntww9p1rkLfi1vI2zkbRWYLlWRKaZ/Rx75mVkYa3fGr1kHHP3CcGnQ8vy+F54iP9sWj8YT8AhqhqN/Z1xrl5uY5BxKzT5Dca59M7V6tsQ5/ygZBwHb9nh2GIqzXzMc3F0x2toARRTllp80Z4dj9w9p/uAUPC2eCIP/XdQIyCN5j0UABDB449mqCQ6ntpF4ruBNqeJ0igodcPBwoCAtmrwsE44eNhRmnaawbBTLoQYOxSnknUmmyNkLB1MG+clXW/c8Q60naPjk1wSElXsezKdIiYnDFDKK4KH34OrXDMfaA6nWtOyw0gX3QQ/h53iI+G/fJyGnIXUGP8D5AQYDJjsPjJiwDXkIj2pmsPXA3vUS4esSzOZaeA25B1f/7tQY0otqplQyYnec78/Oo8hUHY+wETj7tcSt8U3YYKZg905SbZoTdPdkvIKb4ejXEvfWQy68hswUhs9dP9D45lsvGNEo2r+Bsxnu+PSbQUCHXjj6NcOx/i24+QBFBzh75ATGgO4E3tQLp2bPUqe5D4UJ+y+cNvmPy+Xwhn2cdWvN4Bk/0L5vb/zCulB/yN34lPt9htzMPIqcahM8Yiy1w26n8YAO514Lo50H9iawa/EqYfUdMBud8Qj0wogPgaNeolnHLviF1sfZzREjUJiXVvL+qDeWdneOpnZYF7y8PLGzM4K5gPy0nIpNMf07TPY4OxnBKZSRPevigBFHXz9KZkAWsO6PA6R6N+GOLkEYju5i7QX50ICdexAhISHnbw1K1rX1DCQ4JISQkOrYGcFg505QSAgN/Fz5Kz86UrD1e9bsz6J680EMrVOBNfOSObhpOT/OXcSvWw5wKquCsdDghH+nuxnQ0J3MjMuPj9k4eGKPAa9ez9DR1ww27oT4nv8dVaODH2FhYYS1aE+guy2mGn40v2ALl2ODg6c9GLzo9UxHSjYdgq+jASf/zjx0/yBa+qawfFwP+r69hVTL1SkiMyGazavm88OPv7Altuy6VCOeDerjbzrJkcuULrWzL8YZM92bZtHI0QajXTGh9kBBGrFbV7Fg7gJWbtrL8fSLPlFFRKSKsHpAjI+Pt2y6MZhzSYzZyb7jwPEFnDpYhNegmbR74VPqeJ0gJdGER4fnCB3Q3XLNv6AG7V78jntGN8bVWJ1mD33HvZOmULvcEvlLxxA+ayc5tfsyZMp3jJs2jQED+lA2iFR50klZv4hTqTWoNXQSzce9SeMBQ8//1lnuYk6u305OtZsIvvNtmt/7AnVbhp1buzhhLzn+d9F47EPU8kzl5Kp3SMwAY/2++Pd4mKbj3qb5uNdp1N6Xgv0/cfyCn6qww87DCwcPL+wuSCRueHZsg/OpjZyMvHjszuBzNzXrmUnc9vHFUz/z/iQ3wwbX6jbkJWeRnV6Iaw1X8jJK5tgWn0ki39MHp+wTZBfEk+/kg3NhGvmJV1+3jMHTG0dXTxzcyg9RFZC77gUObDqJXaPbaTzubZqPfYygRiGAAZvmL1CnsS3JG98lKfE3jv+0npyAQdTt0QTyIziz/RCmps/QZuJPNOvmStqRZExBQ2g++qkK/e6cOXUv6aa+NBr7HPWCDKT88SnHy4Vnc+xHHNudilPTe2g6bioNe/bBBTCf/piYhavIcAqj7h0lr1VI986cP1QGbPyx93TH0b3mhaEgbxlHw+dwKt2Tmr2eofm4t2k+8i5qBHiWXKO35n1ijxTj2eUZmg3tgP2p9cT8/OXFgf8flr3oLn6ctZ1Uj9b0fu4Lxk3/jpHjRhJYbrZ7yjdvsvWwgcABkxj77hsMuHUEHmxh509/kuY/igdWxvLMpI5k7Iont0Y7bvtwFq1q9aTZLWMZ+mrJNcJ3P9GXmll72fTNdM4CNfuO5qZ7XmPs9O8YN/1tejdz4NS6T1m//tpG4pifV7EjrTa3vPE98754iqbJeziW4027x15l/KDS3zfcuIWDqdWoXQuO7V5PuVnZgDMNBj3D5MmTz9+ev58e1aDeLY/z8uTJTJ58G42dwbnBIJ6ZPJnn7+/B1SYwXyiVn8I3cMxUj64jelzimk4Lp/cTeeAUFc2F59h04bGnR9CgMIpFnyyx7IXCtcxatQ9j2HgWRqxm1gNeREUlYqzbnw/ff4GS+S4GqrW6n+nTpzN92pN0rZlL3IZlLLLcloXCtbNYtc9I2PiFRKyexQNeUUQlGqnb/0Pef6EHXR57igF1Ctm/5E0+Ki1seiVFmQlE7zpYMgPB1o+QBjXJOryPA+VnlwLkOfD9bjv82p9g3xMnmFHfxPYTBqqFnmJpnzxIO0TU3uMoF4qIVH1W/5mLytK6dWu2bdtm2SxW4BrQGO8W/Syb/yEOODbsgnNBDEmxFTja+SvsgnFv5I/51CbSz1hO/7LBNqAjHs7ppEZHcrVJlP9+ttjV6YS7fTIpB3Zf8/BlDWd2riTj6F7LZpEblmP9bgzp4MyB5T8TeekBxGtLP3MhImIVVg+IgYGBN+4oolwDpb+DmPUdW+fOsez8e+xr4VDdicIzllVPAUzYeDXGtiiutNrqja70NwVr7GTvp2+W/O6ZiPyrmBzd8bAvIC01u3JOAikgiohYhdWnmLZu3dqyySoCAwMtm0SuLO8EuRf9JEaZ0p/fUDgUkRtEUU4ayZUVDgGyf+LZW3opHIqIXGNWH0EcNmwYCxYssGy+5irrfkVERERERK4XVh9BFBERERERkarJ6gFR1x+KiIiIiIhUTVYPiJVVSVTBVERERERE5MqsHhArq1hMZQVTERERERGR64XVA6KqmIqIiIiIiFRNVg+IlaWygqmIiIiIiMj14oYJiCIiIiIiInJlVg+IKhYjIiIiIiJSNVk9IFZWsRgFUxERERERkSuzekCsrGIxlRVMRURERERErhdWD4iVVSwmNDTUsklERERERETKsXpArCwhISGWTSIiIiIiIlLODRMQRURERERE5MqsHhCjo6Mtm0RERERERKQKsHpA3Ldvn2WTVSiYioiIiIiIXJnVA2JlFYuprGAqIiIiIiJyvbB6QKysYjGVFUxFRERERESuF1YPiJWlsoKpiIiIiIjI9eKGCYgiIiIiIiJyZVYPiCoWIyIiIiIiUjVZPSBWVrEYBVMREREREZErs3pArKxiMZUVTEVERERERK4XVg+IlVUsprKCqYiIiIiIyPXC6gGxslRWMBUREREREble3DABUURERERERK7M6gFx27Ztlk0iIiIiIiJSBVg9IMbHx1s2WYWCqYiIiIiIyJVZPSC2bt3asskqKiuYioiIiIiIXC+sHhADAwMtm6yisoKpiIiIiIjI9cLqAbGyVFYwFRERERERuV7cMAFRRERERERErszqAVHFYkRERERERKomqwfEyioWo2AqIiIiIiJyZVYPiJVVLKaygqmIiIiIiMj1wuoBsbKKxVRWMBUREREREbleWD0gVpbKCqYiIiIiIiLXixsmIIqIiIiIiMiVWT0gqliMiIiIiIhI1WT1gFhZxWIUTEVERERERK7M6gGxsorFVFYwFRERERERuV5YPSBWVrGYrl27WjaJiIiIiIhIOVYPiJXFy8vLsklERERERETKuWECooiIiIiIiFyZ1QPiunXrLJtERERERESkCjAEBASYLRv/jby8vEhKSrJsFhERERERkVJWH0GsrGIxCociIiIiIiJXZvWAWFnFYiormIqIiIiIiFwvrB4QK0tlBVMREREREZHrxQ0TEEVEREREROTKrB4QVcVURERERESkalIVUxEREREREYHKGEGsrGIxCociIiIiIiJXZvWAWFnFYiormIqIiIiIiFwvrB4QK0tlBVMRkX8nA9VCTfgFGCw7bhgGDyN+oUZcHSx7pIQtLp7VcXO4YQ41RET+FfSpfd3xofvXcTz/0YuWHf8ge3zuns/9Sw7xUkQcE1etp3s9y2WqHoehs7h/we/06epk2XWe74fcF3GQEXdadvzDXPvy4sw5vP9wc8ueqsG2AaMmf8xHL92Cr2Xf5dQcx7vh3zFxsGVHFVb/Mx6IiGNiRBwTI6K5/XbLBUo5dKXLxzt4ZNqzuFv2XU79z3jgStu8RnzG3MdPEdOIiJhGxMr/45kWlktce7bdHLnv++o88pon9z5uZ9l9w7C51Zl7X6vGk997MvZxG2wtF7jBOTToxMChnQh2uXFPIoiIXI+sHhBVxbTqMzb+gMF3tsTp+CJ+HH8XM595kD8OWy51CWGP8sEP4Uy7rwaDXv6W8C9eoLdLuf6hk5hV2hb26Ad89/ooqp3vZNKscL54oTdtHnqPOeHTuK9GuXUrwOTtjaebBx61/7nRYte+LzIz/DsmDvbm3nfmMuf9h6kSke+yYa0m494N57uLOy5k8qRGNU/cq9fE27Lvf1Zy33Pef5j2PZ/n80vun5XFT2XR+LuY+dZGzlj2lWdbC/dq7rjVqIOrZd+10m48n4aH88YYE8Nf/YHwz56hYwU+kROXLuaF8TOYvCiGLMvOf0LoLXwf8Qrv3mLZUaqOPXc86IxnYibzHkzm1WfzLuz3COW9Z+/ls+7VL2y3r8n9w4ex6OUHWTlxHIse78ujQVUlUjkzauSd/HRfS5pYdgGm2h34btIYXmt8YXvBVxm8OuosSzcX49XdjWEjLgxCvsOm8HX4F0zoEsqjH8xj1lt30+CCJS7HgGuX8Xw6fyW/RkQQsepn5v73PkIdLZeryjwIbhCA6eh+dicVWXaKiEgVVoHDkX9WZRWLWbFihWWTddm4ULtpJ1rUseyoaoy4DmyMb1EMW56ewIHI9SRERZNrudhlFZCfU8Txs2lc8pAgJ53jueBfzZ28zETyLboLctPYfTLl0uteRdYXfXm7d1PCZx+17Pp7zPnk5eRwIjXTsuf6lbuF9x8fyZinPmWXZd/fZM7L4dSeRDIsOypDwXESI9eTcDiTYsu+8jLmsHREPd68+1GOW/ZdU/nkZ5uJP5tm2XFZRWnJ7ImM50BKAZVRgrrxnU7UMeay/j+5HDpziT0wF1N8UbMtPft145Z6BqJ/XcaE7zYQVVSLQbd2YfgVBvyriqIi8+XfPznF7Ho3g82xBup1daCWZX9xPrm5KZxKzb6g2adxO5oFumN7icE1g8cIXn1mIP7Z25g16Wmmhh/CpukoXp00wHLRymVywCe4PW2CL/Ei+jYkqEY28YdiK/T94dukHc0C3S75fIiIiHVZPSD279/fsskqsrMv/HK2FhuX2jTtMoiRo4fTu4UvZSeA7Tq8T6uJK2n/8jJa/98XBLSsz1/6XjQ1ZsD3+3kpIo7nF62lV/eSL2in8b+XTKf7ZSWdb/2RR36JZeKv+xn38m3YABhqUP/ZNTzxSywTI+J4ftFv9Olb/ky/M/413Cg+m8CpC77VG3PP1I/5+OOLb6+ObVqySGERxeZsMhMtY18Yj37wA+GjG2Pv04XJc8K5q6kj7mH3898XelMyyFhEcTFkp1XsYKI8t2c2lE4hjGOi5fRRY22avfoHz6yOY+Lq/dz3qF+5N30vnnj/4sfz8ccf859b3QAwFxZTXJRFemK5bZapOY53w8MJD5/H9998whuP9bxouqbBozevf/0D4eE/8O2Ml7gjpGw6nj2N75zKp7N+IDx8HrM/f4PHepaubTk99YL/l4zShc/oQ20caHJnOOHh4YRXdLTOtS8vzixbp2S07/yIqCt9X5zJnA+e55nXv+aH8HB++PYDJgy0fFSljAE89N9wZr82gpJ3kJni4mKKMpOJs1z2qlwJ+L/VPLHiCBMjYvnPgjX0HVQ6r9nrKYYvieGBd8K5e9kRJkYc5tnZc2le7kjcrvUUhs3ey/Nr4pi4JoanZy+mXbMKDLd4PcXwJWXvnTie/+4T/C9YwBX/BxbzwE8xvBwRx8u/7OOBdyfia3/BQiVM7en7fRwTPp6IM2154K2L31cff/wxk0YHlSxfWEwxWWScstwQ4NOJD36aRkTEO6xeMYlZ73ShSYVnchrxG3QrXy56gzUR01iz8kU+Hh9c8nd2bruv883zN/HC11NYHfEOK+fdyQhfP178fhoRH3bCFxdaPF46jfWC0UQb6gSayNqXx5a/8ofq5E/PIDdS9m3hlT9OEBW3nyk/7eO0sz+dw64+Ztuk/zBWPt2Nsnjk26YP858fwuN+5fonPcjKifex4LF+jG90YWBxDWzGWw/dydKJJcv8+EBXRtX8B7/+iov5Y0sehd421K9ZrrmoGHNBJmkp5RcuYe8RQMuetzLytgHc1CwQ93LJyGHYTQQ7nWLzey/x7e87WTtzAl9uT8OjaR9GXrCVS7Drz1sL1xA+pawwmxNPfhnB6k/uL9cfQUREBL+uXMrcDx+jbfk/FVMjxrz5LYtX/kpERASrfp7Lh4+1PffdBWBy8CG4fV9uHzWSAR2CcDOV6wTAgQbBQbgmHWZ/QkFpWzFThiQQ/8RR4h49we7bM3jas9waHoG07DmMkbf1p3OzQNyUFEVEKs0/+A1ZMU5OlzjTaAXWDaYGHGs1pcugkYwe3p1Q92xit6zgh+/ns6n0yLkgcjp7Z05g1+wvOXbUSI2+L+IbYLmdy7Op3Qi3na/y9WuzOVJch7ajX8EVyPn2Ub75fi8ZJh+a3+zJ/v8+wIrd+fh1vJcwwP6Orxjaz4e09e8wa8LrbDrpQZtHviTMwYidfzv8wjrgam8AkxPuYV3wC+uCb53qwCF++nwa06ZdfPtsyYGSndpzkpTyQ38FuaQVAkTy0RMjeX3dKTKj53L/8ClEJBRy9JdHuf/11ZSMyx3nbFq5lQvyyangMGLmN48yc/xdfDs3unRb5zmO+pQ+Hb3I3PYRs174gKNe9Tg/AXUTc/978eOZNm0a3/5asqVMi5Ewc14O58Z6khbwwaRJTJr8HvM2JuDS7h6evKv8ELEJzwY+nF34DpPfX8pBYwg3P/Yw7QHb0HE8MLA+xCzj/anfsDXLny53P8Jwi1l5F0tiwQeTmDR9AwnkcXDpJCZNmsSkSa8yc63lspeQtYEv35zEpEnT2ZBg2VnCxjuUWmcX8s7Ur9l81pOWg0bSyXIhwOjTjTreBZw6sp1kACxGWc355OWc/++V2HT4kAGD61J84AfmvjCDvbm1affQh7Q9N83YBu/QWiTPfpxvvthMulcbOj1wW0mX11Pc/PJdNLQ9zPo37uKbT37hjHMoLW+7g6vWDkn5llUv3MXM8S+x47RlJziPmMPwEY2xPTyPeeMfYsmakzg1HkSrnhdPYzbUG4FfjXwSDy4niygWfnTx+2ratGnM/PlYyQrbT5NafqQtP5eUsv8n7uDdF2YwfvxnfLI0hqKQAUx8yWJ+4+XU7srLD7fD8+RGPnjpUz79LQW/frfyfH+b0u3O5o8zttRs0ZZaR5cz9cOtJHuG0HeELV9MnsH4d7dzhmz2zp3B+PEzGD9+Ju+tLtu4EQ9PSDtdwT/OMh418XPP4Vjs8XOzBorOniYh3Y7q1St81edlHdywhgkzF/DivE1sPutGt8E3cU9Z+HBvxOTb2xNiPMbCHxYwaeluzrjUpVerWv/odGLz6WKyDSacS/M/wOmYZMqfmizKzzr3eRK/8Ue+X7iGyJNQs2l3bhl5GwNuakaAiwPdGvpgmxLL5h1la+bz28FT5NtXp04F3waXVbCeD14az/jxz/Be+A7Sa9/My6+VXUhrR//XX+feVq4krHiX8c/8l6VxNjTscTuDq4NtjWDa972dUSP70dLHzMldEcz/fi5r9lmcgPUIpkGAiROHokk+91Yx8uG6mtw5txZP/lqNQ8Z0HumXRdk3c+yGcL5fFMGuU0Z8m3bn1pG30b9zM2o7KyiKiFib1QNiZbFuMLWlQbM21HNOYteKH5m3NILN0ScvCDzmnHjyUtIw5x0mfcd6UnI9cQlsWH4jV1SctpNN02ZzYs1b7DmSgdHZGy/AnBzFqcQ8zEYXMreMI2LlanZtOEKGbQ1qdKpG0071sY/9mYWvfUzsts9Z/9pGTjnXwreVMw2e/IJx0z+nTxNXjF5tGTL9O8ZN/457nn0IyOfssSMcOXLx7djZskO+JUy+835eX51J5EdPMPKR6ReMMgR6eVKUl0ERNpiMheRfkABLQuQzXybCksncOfoF5pwt130FxUm7SIhcz+mkPItpYB4ENffH4ew21j7/DrFbPybisx2cP5mfzZm4ix/PkSNHOJleuqXTM3l61JN8siuDX14bx+gJ35wfHStKIf7gKbKLUzm0YQU7joNfndLR1FJ5B1YybekO9m6cw8cRh8n3qEWjOrY07NkI38Ij/Pbh92zcvYKPZ27htENtGra7YPVLKCIlPpro2GyKMJOfGk10dDTR0QdJsEzHl1KcxamYaKKjY8m+3DF+7gFWT1vKjt0rmLv3DEZnl3LXihqw8wihae97ePH53tTJjmbd4kOlfSXP0V1TlpY8b3eM461fz614BU7492+Md95htr72Igc3T2fFR3+S5BRA7ZvOL5UTPZtlc3/m6A9vcSTRhJNbycim260DqOOURNSnQ9j463qOzn+U2aNa8sXEb64+Gl10ltS960mIjCKv0LKzLs26NcAx8Q9+eepFDkauJOrtPnx0S1eWLS+bKm/A1qsLAbd9wPCpA6iVuZed328Dckk6evH76siRI5xILbujH3jhjgeZtqmYP6c/xPDHPyS6LCAW5RAffYaUwgKObNrM6gMZuAUEUZF6NIGDQggkhiUTl7FkUww/vvMzO5JcqdW4Vsl295whu8iAqSieeZM2s37JnxxIsqO6fw3OHIwnMjaXIorJT4wnMjKeyMjjHCt7bxkMGIyQn3PZCZeQtp/x077iwbUlpw3KKyoqt152Oul5RuzsbMovcnkGG2rU8qJZLS8aOJsu+PLKz0hlf3ohBZmJ/LI9jlM2NWhQOroY1Kwe9eyT2bjiN74+lMSfO7fwxIxZPLT8WMWnQSds5p7Js3lxr2XHeUWbi0gzmHAtPwS9ZwaP3fkc3x46yYKJY7nn5fmUHzAuSD1K1IblzA9fxua4Qmo0aE3zhs4lneZiysbeAIoSMsg22ON48bmJSzI6+hEWFkZYWFNcyj/F5ixORB8iMb+Y4zuWsHh3Ik7+TekKYD+Mfo3dSY/8lkfeX0HkjqXMeOxOho5+lvBkCGjcmlCvHA6uXci8xavYEBVPesFF84nxbRhEjex4DsVe+Bd4Js3E/jxISbHjy2gXctzy6HH+w4WClHh2/f4zP4b/zJ/xRXg3LPd8iIiI1dwwAdG6Cji4bT27E10I7XsHY24fTNewOlQrmyJmDMbr9tm0Gj+DxiMnETJsKNX/4ndgccoRrnilXXEKZ3aWRJn8BTfz315tWLHRDlcXR2zqDuep0il1L88aWHrNTAZ7n23GlB5NWbA9neLTvzGrRx2m9KjDG4++VrEppldkj43JQE76cXIJxMsz7xJTUf9pRkxGI+b87HNBoehUVrmDrqtPMb28kimiM2d/zKvPTWDChEfpFmBZcKOIrHJzU4tyCyg02GLv7IC/myMU55FVegxdkJRDPiYcXDzOr15JCtOSOWHZeI49DQdP5uX7B9C0poHYdV+y9OIc8Bd54OnmAMW55JY+XYVnsinEhJ1bWQmdQtITS0eqLdhVd8EhL4Hj5UZQzTmZXJT3/jIXXJwdyEvYSsy5tiIKcsoPizpQ//bvuOeRIQTXMBP3yzNEJgIVmWJ6WUbqjB7D3KWT+fyte5k69S5GhlZ8lM25mhMOjsHcHV46RXT143TzsVwKchPiWA9QFM+UUc8w5OltlotczGzGXAx2jv/bV4fJVG49Jzfc7IvJz6/gK+Vcj5HjhvH2uGG80DWAc6f87H158p47WfTkLUwa2Z9JQ0LxLfen6OzigH1uMrtjz7cVFRRedP0zQF7qWfZYNlaQqb0Jd3MRGRW+iNWEQ81g2vS8mVGjh9DeH07s2cDW/aWlhwzGC6qimvxccTLnkVOhy/gNVGt1P9OnT2f69DfoWft8u/vgV5i9dAlfT5vK1KmTebhVucRp8sbFqZiTB5ecbzPnUPaWP7prA9uPQp2utzJmxM30bNOQmk4W7wWHRoQ2cCPp8H7OzS4FbKvl8dOdJ/hz1Gk+G3Kaae0yuPBrz4SDTzBte93M6NGDaedXzPHdG9h64JqUYhIRkSv4377l/4ZKLxZjFWZyE2PYFrGIH+b+zObYLKqFdufmUSPpWh/wH4ZPAzOn59/B9neHsePDzzlT4VPZf0cOyWczKDqxkpml4W9KjzpM6dWGFRstl7VUgSmmlxXGox98wx2N7PDpMpk54aNpbO9O2P1f8cW5axCvHYOd07mphiYf53IHXVefYnpZLp0ZclNd0ta+yn33jGXs2PH8dNiimuMFnGjeuBYu2ac4vDeX4+k5YLTHuXRKqa2XI3YUkZuZarkiGGwwVplZVrnsmTWc4Xe+zu+nbKjTcSSdK3xt3OWkkpKeC0YHHEqnlNp4O2FDEfnpV6w9CkDu8RSy7GtRu28Frjn8S1JIScnC3q89wZe65hCAHKI/qcOUQU+x/Ywdgd0n0cAeqMgU08uqyYh+TbHdE86wgZMYPPg13t5eweF0IPVEGll5cSx66Bl69Ci7vcA90+ItF/0fFJOaAu41L7ro7MoyzpKU6YCPvy9lbxeTR3VqOOeTnFzBAj2ZB/hg8mf0m/wZY5fHnptOXrNJYzrXPMuymd8ybNoshn21g6Pl0l9qSibZDtVpXv9KX3dZzPlhFrcv+OtXz5Yx1DTiZC4iq1wQvZLAzrcxcmAHGrhlErNpOeFzF/HrloOcys5l3dFkzJ61CatbtrQNrep4YZeXTNwVRjHPM5O0YTI9evSgR49BLDm3T46MGdKZavFzGD5gMIMHD+Wp9eXGNAtjOZtmxLfRbRdcc1imZIRvGfPmLGFddDKOdTsw8I4x9G12Pup5BNellvk4h6KTLyg21qNJGk3M7rz0hR8hM/3ouMb9ghHcoJtuZ+SADtRzyeDgpp8Jn7uYNVsPcjr74hFKERG5tq70jXlNVFaxmMoKpubcRGK2RbDohx9YumE/iedm3BgxOlbHYPTBtVNvXIwFGB1qYWs5CPWXmHCq3wWfGvYYMGJfqwt+jQJKitMAkMb+3/aT4dub2z78kGadu+DX8jbCRt5WgWtxKjLF9HIi+eiJd/n9dCbRc+9n+OvrOFV0lF8eHV7uGsT/lQ3O9UuulazpZY8RsPHsgl9YJzzdzhKz8yi5nmF0nvIsQW0eoceDLTlfF6ECU0yvyICtoxt2mKjZYzTNvYox2LkTVL3sENiA0dGHkMYduOXpqYxr6ULCtpX8SgEH1+znpE1duj02mk5N+/PIuLbUzD3GwT+BgjRy822o3qg3g1s2pf/YXjR0NWB0rMa5Teclkp5lT1DHh+ndMoSQxm3p0OT8BYwGOw9CQkLK3Rri5wJGZx/qh4QQEhKEkwkMRkd8QkJoFFT93IF7heRFMmtNNLleYfQfdpkiNhWWzfEVezljX482L75Gw/bj6f9oO7yyj3Lsd8tlL5a5YhXxmdUIe2Qlg+4dgV9YF/x7P0pwo3ILFWSSX2hPrW7TaBjWk4bDRuMNGNyC8Qnrgl9YM+xtwGBywTOsC74N/LHhGNEbY8jy6sDAj7+nXa8u+JVb9wLZi1i/6iD53m1oe2e9Ck4xvTKjnRPedkZq3NSdYQF25Nk4Uqv2+aSam5pPgW0Nmt3cno5h9Rk8uAFeQMLKvRzOC2DglLE8ObQBYWFB9BnRjo5eYHKvTpMwb5xMYLRzIyzMn9qWZ2gyUknPcaJ+38EM7RhIWJsQerQoW6iQuPginEPtaXvVCzzLyTjK7/FZeDfvwCsdatGsTiMm3twM/9zjbIj8B86OGW1wcjSByY1hHfzxNBuwd3GnugmOR8dzJLc6nQf358W2tWhWy4tWwfXoXn6qptGNMcNvZ9bIppf8mYurMhrp0NYemzOFxFziWtZLyUs6wMbl4cxd9CtbDp4iu9xHTs6czRzM96fbK69y900t6D5uGv/XoTqpu1fxQ/mN/K9sXfBzNOASdhcPN3Ahy+iIb5AH5K8kIjoFl7B7+OytB+kfFkZYi27cPtBicnNBCvG7fmfZvDksithFQmZpFDTVIrhuDbLjD2Exu7SE0UwNR7B1LmRKSC6mAjPursW4ALlJB9j4czhzF69h68HTKBeKiFQek7u7+yuWjddS//79iYk5P2HLWgoKyl/NURkKyT57isR0IOMMxd6d8es4koCb+uGcs4ezeXWo2aw7nm4nOH3gSmexXQi6eRz+BTvYsPx3wB7vPvcR4naS3Qv+oMm7PzP0Jm/sDU7UbH0LYa2DiF+wmLJxqaKDPxFv6Ejd9p1o1e82WvXpQz0fOLRoaWnxlfLbO7/e39eG/qMakL91Bb9nh9G/nTNxK9awu4JFTC4vgJumL+Hm4bcQ1qQGdpjwbHQLLfsOxjNnBpFzfiezwWCatO9B656tMEav5aRnfYzRM9gTZbmtvyA/gRSPpnTuOoA7RtxKd/9k/jhoommLtnRv5UnMmjME9WpNwwat6N6tLQ1cMohe/j5Tv91DEVCcGMUxxya0a9Oe7j1a4FMcz8bvP+TrvZlQmMChotq0bdOGTt06ElRwkPiC2gQ1akErzxhWbjsNuXGcsa1D47A2dOnZkx7d2hPsEMeyP5Jp2XcAwXWD6d69e7lbR/zTF7G91pO8On4E/bp3IMAVjC7+tOzenZuaOHNgZRQuXfoR5nySjSu3cRpwadmXAYF5RC1ax0GXlvQdEEhe1CLWHYTcI6ep0aYbrRv5kPbLRo5c7prGCig+voYz1foQ0q4Lrfu2o3phPNtmPsz6yBRw6kDjoW1xOLaUHRtjgZrUu3UkPtl/sOmXLZC9mZjD1anWsjWhHQfQpt8ttOgchulkOPv2lJ6QSvuD1FqDaNKmIy36DyG4UQDZu2aRdNM3jH3hIdr37YGvCxhdAwnpewvNWvhyZNHPJO/9meMOnQhs0ZLmPYfRqu9QGofW4PTyHzjpPJhWgwPJ3fYR+/ZBfvRpnLsOoUlIKElL5pP4Pz8f2Rx3qknXrjcxamxvhjYvYm9kBrVbNKdrb2/Sf9jFfiD3cAIOzZvRoU0revdtQYu6Zo4u2MvhzGNsOGKmSdvmdOrZgQH92tKpsTOZf2whtuso3vtPT+o5g613A/r2bUKdpN9Ytb/c3aefItGtJi1btqBnvw70692cRg6xzF9XMrcx8aiZOr2dCW1fzKk/Ckm50sD5OYUcOJyIk3cAHduGMSCsNtXzTrB25UZmnrz6Z7N3g1D61Mjhzz/iOAS41qrHgLo2xO86QER8Dn6BwfTo0o67Oten5umDxNrXpWXzYFpzlGX7j/FHQgGN6gTRonlj+rUKpWfjGjidOMCasmI7tp70bd+EYKc0dmw7fuXp+5YMBpo840b3pgbilmfyRwXnqGYmnSI58zI/VZIbyfpj1Wnf+Sa6DxhAtxA3Mg4s5Z0Xv+fE1c4vmBrQ+7aOeJ5Zx49r4wFb2g8dRcOiPcz6eQsHqUvXrr0YOfYebu/gzoEtJ6gZ1opOg8Kwm/UT836LorhRK1qEtafHgH707duV5l6prFi2nYs/rovJTTvNmZSSnXIIbkvnujnsW7eTkxbnDY9m2NCtXgpDO6byROMCCuNcyPVJo22TXFqfcuHrmFMkZ139vSAiIteeISAg4JLfT9fKsGHDWLBggWXzNde/f/9KG0UUEfk3se3myF33O+PrBPn70nn7xavNIvh3shnjwrPDHDAVF3Hitwxmzyi8oLDMjcWD5gOG0Dh3MwsjDl69QJSIiFRZVh9BDA0NJTo62rL5mmvevHml3K+IyL9NcVwhOxfmsGdPPqlZxSQctOp5xqrDaCY7KodVn2Tzx+/FFlWUbzRFZCUd5VBsAlmFN+j7QUTkX8Lq1yCKiMi/gZmzewvZtvR/nkt73SuOLGD72iJS0i17bkQFZKYkk557Y8dkEZF/A6sHRE3zFBERERERqZqsfg1iZXFycqq0CqoiIiIiIiLXA6uPIPbv39+yySoUDkVERERERK7M6gHRycnJsskqKiuYioiIiIiIXC+sHhArS2UFUxERERERkevFDRMQRURERERE5MqsHhAXLFhg2SQiIiIiIiJVwA1TxVRERERERESuzOojiMOGDbNsEhERERERkSrA6gGxsiiYioiIiIiIXNkNExBFRERERETkyhQQRUREREREBCojIKqKqYiIiIiISNWkKqYiIiIiIiIClTGCqGIxIiIiIiIiVZPVA2JlUTAVERERERG5shsmIIqIiIiIiMiVKSCKiIiIiIgIAIZ27drdEEVqWrVqxfbt2y2bRUREREREpJShT58+Vg2Itra2FBQUWDb/a5kC2tKjiQvJOyLYccqyV0REREREpOowNG3a1KoBsVevXvz666+Wzdecg4MDubm5ls3XnE29rgxq5UbipqVsPG7ZKyIiIiIiUnVY/XcQhw0bxoIFCyybr7nKul+bhr0Z1t6d07/N57ejlr0iIiIiIiJVh4rUiIiIiIiICFRGQMzOzrZsEhERERERkSrA6gFxxYoVlk1WoWAqIiIiIiJyZVYPiE5OTpZNVlFZwVREREREROR6YfWA2L9/f8smq6isYCoiIiIiInK9sHpArCyVFUxFRERERESuFzdMQBQREREREZErs3pAVLEYERERERGRqsnqAbGyisUomIqIiIiIiFyZ1QNiZRWLqaxgKiIiIiIicr0wtGvXzmzZeC117NiRTZs2WTZfc/b29uTl5Vk2i4iIiIiISClDnz59rBoQGzduzN69ey2br7nKul8REREREZHrhaFRo0ZWDYj9+/evlOmelXW/IiIiIiIi1wtDQECAVQNi165dWbdunWXzNTds2DAWLFhg2SwiIiIiIiKlrF6kpjLCIUBSUpJlk4iIiIiIiJRj9RFELy8vhTUREREREZEqyOojiF27drVssgovLy/LJhERERERESnH6gGxslRWMBUREREREble3DABUURERERERK7M6gFR1x+KiIiIiIhUTVYPiKpiKiIiIiIiUjWpiqmIiIiIiIhAZYwgVlaxGFUxFRERERERuTKrB8TKUlnBVERERERE5HpxwwREERERERERuTKrB0RdfygiIiIiIlI1WT0gVlYV0/j4eMsmERERERERKcfqATEwMNCyySq2bdtm2SQiIiIiIiLlWD0gtm7d2rLJKiormIqIiIiIiFwvrB4QK0tlBVMREREREZHrxQ0TEFesWGHZJCIiIiIiIuVYPSBWVrGY7Oxsy6ZLs3XGs7obDlZ/ZkRERERERCqX1WNQ1S4W40D9joMY2jkYV4Nln4iIiIiIyL+b1QNilS4W49GQBgEmjkbvIbHIslNEREREROTfzeoBsbKLxZgcahLcvg3BTpY94NOgLt45R4mJzbHs+oe5E9y6FfW97K3/AoiIiIiIiFzGDZJPTDjUDKZ939sYNXIgHYLcMFku4lCf4LquJB3ez4mCkqb+Xc8Qf08acwac4vDjR4l78Aw/tyjCvnSV/l3PEP/EUeIfP0706FQ+DDSX9hQzYcBJYkdlMbhs+8ZCZo85SvSgPOphi4tvE24aPILhg7vTqr4X9jfIKyEiIiIiIlWXyd3d/RXLxmspNDSU6Ohoy+ZrxJYaDdtyU/dudGxcE9uMBKK3rSVi435Ol4bAMh6h7Wjrk0LUhr0kFZa0NaiTxaCAHJyTqvHyWjeKPTPpGGQgf589W4ogIcmRPw+6sjLOEQ/3LHo2LcL5kAMb8g0k2BYzPDgP+2NOLMsCW58cnm1RwOkodz44k8PJg3s4fCYXu+q1qR/alOaNalPNvoi0xBRyiy/cNxEREREREWuw+riVdauY1ia0dSg1cg/y28J5LFq1gaj4dArKBvrO8aFBXW9yjsZw0ezSPGd+2eLAwpO2zDjiSK5tIQHOJV3ZWUa2ZRnIybLh630uJNrl0KJ6SV9svCPx+bk0r1tyMWPHoBxq5DmxPrbsKS8iIyGazasWEr54Pfsz3Qhq3oIQ79JuERERERERK7N6QLRuFdNjRG3cRjx16HLrGEbc3JM2DWviZPGoHYIb08AticP7T2AxsAj5NkSlWDYCDoV8PiyBPfec5LMhp/msRyreNuX6s2xYe9JEDf98ulLEqNo55Bx34vPM0n6jHdXqtqDroDsYc2tXGtgns//Pzew5U24bIiIiIiIiVmT1gGjdKqYFpMRH8fuyecxZso59yY7U7TCQO8b0o5lL2TIeNKzrB8cPsT+p4qVLGzbI5KZqjsz9oRYhM/0IWViNhAvSpZEf45zIr5bDoLr5hHracCTWlkQAvGg9eBQ3d22MV+Extq1ewNwFK9m09zjppdNbRURERERErM3qAbGyqpgWpMQT9fsy5s1ZRETkCTJLs6CpVjB1vXM4GhOL5ezSqzKacbUzg6mY55rl4GYGB+difEqf1dg4R44U5NC9dQY+ec6sjCv7ccUC0mK3smrBXBas3MTe4+koF4qIiIiISGWzekCsdAUpxEft5kgOgAP1G9XD7cxBoo5dNLn0ig4ecuH3xDwG3H6MuIdOMaTQiUNZ+TTvdZK5LUrTZ7Ytv540UsMnl9wTDoTnla2dxqGovRzXcKGIiIiIiFQhhoCAgItKtlxLw4YNY8GCBZbNlcOjGf0HNyHvz0VEHPzL44ciIiIiIiL/Klb/mQuDwUBiYsmVeJWuKJPkozHEJmRRaNWYLCIiIiIiUvVYfQRRREREREREqiarX4MYGhpq2SQiIiIiIiJVgNUDYkhIiGWTiIiIiIiIVAFWD4giIiIiIiJSNSkgioiIiIiICFRGQIyOjrZsEhERERERkSpAVUxFREREREQEKmMEUVVMRUREREREqiarB0RVMRUREREREamarB4QRUREREREpGpSQBQRERERERGojICoKqYiIiIiIiJVk6qYioiIiIiICFTGCGLr1q0tm0RERERERKQKsHpADAwMtGwSERERERGRKsDqAVFERERERESqJgVEERERERERgcoIiNu2bbNsEhERERERkSpAVUxFREREREQEKmMEMTQ01LJJREREREREqgCNIIqIiIiIiAhUxghiRZkc3anu4YSNZYeIiIiIiIhcE1UzINr40qrPUHo288GEmf/eepQjg/Msl/rnmQpYcM8xdnQttOwRERERERH516uSAdExMJgg92QO7TuCFWKhiIiIiIiIVF5ANGDnWZeWHZpS07ILN+rWq4Xp5BFikiz7rh82QWG0D/HF0WTZIyIiIiIiUjVZt0iNwQ7PoCa0aBpCQHU7Cs9EsXrZdk6XW8TGty0De9Umaf0yNsbnAWb+e+sxhhZVY71jOl29CynOdGHNGk8eiDcAUK12Dj/2SKauezHGQlvio7y4dYMtSQB2Oax/KJFAoDDXjoSD1XjoNzv2lt5fu7BUPu+QgYetgfQj7hz3SqVmrC8t19kAZm5pl8orLTPxsDVTmOnCurWe3BtrKLddAwc3+pDS6DRtqpspOF2NiQucWRjcmzva1sZUkMKJmP3s2XWQkzlF5R6piIiIiIhI1WJyd3d/xbLxH2dyo06LTnTt0ZkWAc7knYkhcuMa1kceI/OCBR0Jat2eBkUxbN56nOzS1n4h6YR6F5N3wItntjoRHJhKey87foq2JdUmn/DbzlAnrRrv/1qNtWnFdGmdRo8MF+YkGaDYhu2xrqzY48qJPAhrcpaBts58ddyIyTObeYNScD3pxZQV7pz2yqJjzUIKE135LN6Ic3AGc7tkc3aXNxPXu5LtkcWAZkXYRDnwR6EN2+MdaRaQhW/1Iowx1Xlmv4leTdOon+nGt3uOsHv/cTKN7tQKakSTsCYE1XDCkHWGpCwFRRERERERqXqsM8XUsxFhYbUxHf+TpeHzWb5uO4cS8yi2XM6tLvVqmTh5JKZk9K8cc5YL72225bejDvx4whaDYxHNAZcGOTRwcGHFKmc+PG7ii23urD9VhJ93aQgzG4hKNJKKgW2xzqw7acC3RkkRGpe6ufjiworVTnx3xoZJa92IPVefxszD9TJxTPDkng12LDlty7Nr3DjhmEcLn/PbzTWbcct25t7NtqzZ78jhDDM1qpVsxJybSMy2CJaEz2d1ZCL2tUNp0ySo7A5ERERERESqFOsExJR9bPnjAJlerRg0chTD+nWkib+7xU9Y2FCrcTC+ufEcPJJxQQ+AOd2GFZaNgI1LEY7GTG699yjxTxwl/oljDPE7398uLJXdjxxnwdDTfDbkNINrnY+lBiMYzUbSy4YxzQZyC851U8uhEGOtRH57omTbcfcnUvt8dykDKUm2xAIU2XLL17VLp6eCjUttmnTqx21jRtC3mQdZh3ewfmes5QZERERERESqBOsExKJMEqI3s2rBD8xfvZMTxb6E9b6V0be041yWcwykQYALSUcOEP8XSpfmp9iQUezI6rkBBH5QdisNaaYCnm6eQU6UL2Ff+BEy05eZ8RZVYwzFuLmU/duMg+25DqIz7Sg+U527z203gMAZ3ow5fn71y7Fr3IfRw3vT0t+WxN1rWTx3HkvXRRJ3Nt9yURERERERkSrBOgHxnCIyE6LZvGoBP/z4C1uOpFASlwx41q9PLdNJjvzF0qXZsY7sy8ilx4BUPgkupIt3EcMa5XNHWegDbGzNOAL+dbLpWc0ANsW0djaTEePACTLp1SOHu7wLmdw9naByw5qzYpxJ9zrLB4Ozecy/iC7ehTwZUkgQYHQopkuNYhwMYLQr+XdguXWLsxPYFbGYufOWsi4yDuVCERERERGp6qwcEM8rykwgetfBkmsNbfxo1MCH7CP7OHDx7NIrK7Jl1DJvtmfn0Lt3ArNGnGB6zzT6upX0vbvLFVPwKbY/cYy1nYvYEmePqXYi82/JYnCKE09tcKO4VhJTR5ziVjsXNpcrqZpzxJX713qQWeMsT996glkjEngyLI9GgFvTVGYNP00TVzOeIaeYNSKJ13zOr1sYu4fIuLOlAVhERERERKTqs+7PXFyGY71uDOnkzMHlP7Pzrw0gioiIiIiIyD+kSgREk6M7HvYFpKVmc66IqIiIiIiIiFhVpU0xLa8oJ41khUMREREREZFKVSUCooiIiIiIiFQ+BUQREREREREBBUQREREREREpo4AoIiIiIiIioIAoIiIiIiIiZRQQRUREREREBBQQRUREREREpIwCooiIiIiIiIACooiIiIiIiJRRQBQRERERERFQQBQREREREZEyCogiIiIiIiICCogiIiIiIiJSRgFRREREREREQAFRREREREREyiggioiIiIiICCggioiIiIiISBkFRBEREREREQEFRBERERERESmjgCgiIiIiIiKggCgiIiIiIiJlFBBFREREREQEFBBFRERERESkjAKiiIiIiIiIgAKiiIiIiIiIlFFAFBEREREREVBAFBERERERkTIKiCIiIiIiIgIKiCIiIiIiIlJGAVFERERERERAAVFERERERETKKCCKiIiIiIgIKCCKiIiIiIhIGQVEERERERERAQVEERERERERKaOAKCIiIiIiIqCAKCIiIiIiImUUEEVERERERAQUEEVERERERKSMAqKIiIiIiIiAAqKIiIiIiIiUUUAUERERERERUEAUERERERGRMgqIIiIiIiIiAgqIIiIiIiIiUkYBUUREREREREABUURERERERMooIIqIiIiIiAgoIIqIiIiIiEgZBUQREREREREBBUQREREREREpo4AoIiIiIiIioIAoIiIiIiIiZRQQRUT+n737jq/p/AM4/sneUySRRWImVuy9Yu/ZoEZrlLZKK5SiRFBqNLWrrZaiQlB7772JBCEihMiWvefvj6zritFfNaG+79frvl7J8zxn3nPPPd/zfZ5zhRBCCCEE/LcCRDOMuq+m9sdu6Gko1wkhhBBCCCGEeJX/UIBogKaRKdrG5mhqKtcJIYQQQgghhHgVFTs7u1zlwn+fCpom9tSopseT835EKFeXFDV7nBtoE3kjgNDUbOVaIYQQQgghhHivlGyAqKKJiX0N6tR0xK6MJlmRvhzec5WMD/6iqmUs8VpWGGTcJCLGHkt7deLOeRBw9Dq5tedTt2dtNMkmKzGC6AvLeHT+OjkA1KHcJ7MoXy6/X2mSL3d/nkRsct6/Jh/8RVXjO4RkVsXKTg9Swgg/+i2Prj8BDSfaDWiEnVomcaGB+N+8QUBoKhIqCiGEEEIIId5HakZGRjOVC984NUMq1GlGK5fm1LHTIz0yEJ+zRznl85gkQKd6f8wMH/Jgjz/adaqReWIlsabNMVF9RNSt2+TE3SH2zhkibt4jVcMBi8at0Yg8RPzTDCCWtEfXibpxhGTD5pjqx/D06mHSMvMWrVO9P2YVzCHIi4DD18i2aYx1eXNir58iMyuKIL87hCSqYGjtQLUaztRwMEeXJCKjkyVQFEIIIYQQQrxXSmYMokk1nJ1tUQu5yG7vrew7eZV7Uen5GcB8KTGkpWaTm5tMRng8ubkKic30ENKexpCb8YikqyeISTBF3868oJKs6JukhvqSlfmCZGjSHUKPbSHl4VaeBkWRrW2IplZ+XW4aUfevcnynN1sOXSdSwwanhjVwUJqFEEIIIYQQQvzXlUyAGHubS+fvkmRWj24DP6Rvp6bUsDFCXbldsaww7rmW+l//RPUP3XEc2J+yhn9ztZOiSE1RLsynro9tjaZ06jeYgZ1qY5Jyn+unfAhSbieEEEIIIYQQ/3F/M9L6P2UnEep/gUPbvNh6+DpPcsrh3L4Pg3o3wkq5rTKrDyjnpE30rpFcXdSXaz8sJjz2DXX+1KhOh0GutK9ri0bUTU7s3MTm3Se5/uApGcpthRBCCCGEEOI/rmQCxELZJIX6c+HQNry2HORSUOxrBmJqqGnrooI+ui06YqCZi4qWHZpaqqBuhla5WuhY1UJdQwVUNNEwr4WOpQ1qKsrzUZKTTKjvcXZu2szuk9d58PT11kYIIYQQQggh/otKOEAskp0Uiv+NAKKVK5SFbiHsdiLG7X+i0XQvqpQPJTYsA4O631C9Zx/ULYfi8PECao9cQMVKOqBXDYchC6j94TgMdZVnpiT7ITevP0DiQiGEEEIIIYQo6Z+5EEIIIYQQQgjx1iq1DKIQQgghhBBCiLeLBIhCCCGEEEIIIUACRCGEEEIIIYQQBSRAFEIIIYQQQggBEiAKIYQQQgghhCggAaIQQgghhBBCCCiNALFz587KRUIIIYQQQggh3gIlHiDq6r7q1+uFEEIIIYQQQpSGEg8QhRBCCCGEEEK8nUo8QAwODlYuEkIIIYQQQgjxFlCxs7PLVS4UQgghhBBCCPH+KfEMYvny5ZWLhBBCCCGEEEK8BUo8QKxfv75ykRBCCCGEEEKIt0CJB4hCCCGEEEIIId5OEiAKIYQQQgghhIDSCBDlKaZCCCGEEEII8XaSp5gKIYQQQgghhIDSyCA6OTkpFwkhhBBCCCGEeAuUeIDo6OioXCSEEEIIIYQQ4i1Q4gGiEEIIIYQQQoi3kwSIQgghhBBCCCGgNAJEf39/5SIhhBBCCCGEEG8BeYqpEEIIIYQQQggojQyiPMVUkRpajRdSc+wPmJkq1/3LGi9myJZL9Ha1Q0W5rtDX9N//kJFfV1SuEH+D87C5rFo2mU5lXrynhRBCCCGEeBuUeID4Pj3FVMVxDrW/XY+Ng3JNAVXUjMqgY2iGlrFy3b/MzBITY2OMbWzf3EHgPIalXt4sGlGWbtP/wPvXqbTXV6jv6c5670WMKKtQ9ob0dF+P96IRFDfrcu3G8v0vf7LZ2xtvr/X8NHc0rczVlJv9f15jm0zLlMHI2JRypm9omYDzmKV4eS9iRNluTP/Dm1+ntkdxVwshhBBCCPH/eGOxwbtCTduCqo0bUFVXuaY0ZJJycDiXvvuIJ0HKdf+yPQNY2r4KazzPkq1c949kkpGaTUhM/Bue7/+rPR8NbI518kXWzHZn6XYfEsvWpmk945dkTt+sY4tGM3DIZNbcy1Ku+mcyM0jNDiEmXnFPa1OxbkOqWmrz5sJRIYQQQgjxvijxMYh9+/Zl27ZtysX/MjW0LSrh7FyTylaGqKUFc2nnUW6nqKBWcSwOnVtjbKyLmipANjHHhxBwOgYwRL/Nd1RsXBEdDVWyEx/wZP83hN6Jz5utajVMe0ykvKMVWhqq5KRG8PT8Uh5cMMN2zHjKGSmtRk4UIRuHEBKkhWHvP3CqmZ82LCwvaKiCWvWpVOnQCEMDTUiPIvrsYh6cuUoOBlgM20L5zAuEGdbFykyTnMQHPNkzntB7aQoLe4FBe5k8ojpa+f+G7m/L6oX38//TxWHibrq3d8BIPYun166RUKMRWsfasnqhNh/PHkPDMgrzyhdz+Se+XeMHNT5l8dR6RK4Zz74qc5nsHM7v4+dyOKkn7usHUb1goYUecXDMRH6LArScGDDpc7o4maOtlk3ykytsXbCYvWHZlOvjzmxXGx788Q1z9z9Fs+UEFn/uTOyur5mWPJp1g4q2p2jWBxkz8TeianzK4qkuZB0dw8TfopRbAeVoN/ZLXBvbY6yRS2ZsAIdWLmTdjURyAcq1Y+yXH9CgvAnaatmkP33AqfULWH2uFTNesU093dczqLCBwrYCoEWDke6MbGmPibYKmbEPOPHHfFafiyMXZ8YsnYxzzBUeW9aluqkaWbEB7F88hw3+GQDU+HQxU+tFsmb8PqrMnYxz+O+Mn3uYJPSo1bEv9axVyYgJ4Z7/TXwDw0l7O6J1IYQQQgjxllMzMjKaqVz4b1JRUSEqqrgL9X+DBmWrNKRFm9Y0rW6BRmIo/leOc+zsHSIyAXUXbAd9RJl0P4L3L+bx+cNEXDtC7P1gsrNAtfYsnNqXJ/XKGgIPnSPFrCHl69Ym5coR0nK0MOy1hGrVNYk9s5LAY1dINa1DuYrlSPbdQEzAVaKjLTGqqE7UnpkEnT5MxPVjJIQ9JScnh8ywm0TfPEZUVjUsrNRJ8NtOQmzBavehwqDeGCVe5v7ODcTpNsCmfjNUI7cRH62Ffh1XTG2NybyxkntnHqNWqSmWFnpE+lwmR2kPPCf4KkGXDnP9viW2dW3Jub+Oa+fyF+zyOx9+XBvVgM3sWLiZpFqdcbLWIzVwHdfOPeBR4E2uXTzHuXPPvi7deEBCajZEWtOoVxVybhzkXpm2NC8TzYn953mS9YR7t69xPsWGZlXSOb9oEb8dPMGJE2e5HBJPWi40GevBxzUzuLZlNb8dD8OsVhvaOGty/pgf4f63UHFsT9vGlUi+rELXL3ph9Wgbs5dfJjnkHrevnSfFphlV0s+zaNFvHDxxghNnLxMSn0ZuZBb2LRpTq1p9KulEccc/jBSFWyJmA75hcgczQg9vYOVfPuRWaEK75raEHjvP4yxnxswdS3OTcE5vWM7aM9GUcWpAbetsrp8+xJWbL9+mJ/duc+38SR7oVqeWTRZB+w5xPSV/wU3G8u2HTuTc2s2v66+hUb0ZLZtUJv34Se6mW9Kwc3Mq2+kRfXg1Px2Kw7ZeI+rYZXL8hD/pQKR1I3pVyeHGwXuUaducMtEn2H/+CVlkEnHfj4DQZNSMranoWAPn6hUw08klMfIpKa88QIQQQgghxPusxLuY3r59W7noX2SLU30nyqYFcOKvzWw/dAbf4AQyi82ZppEZ5UtqqB8ZaQA6GFerjMbjowQd3EFyyD4id10gXscKPVtAoydmFY1Iu72O+6cOkxqyj8iNI7j60zTiklPIjPAlNTGd3NwcsuN9SQ31JTU0gKxMgFxy4u/klaU+n9pRrdkUE90Eos55EBN0kujtO4hKNcLQvmFhm9yYq4QePUxq4EaiHyegomvyfBatOAl3CfM5RWhIMjlK+8GmYSWMMgI4P/MbAq5u5MyCQ4RlFtRmEPM4iKCg51+PY/KyWrATjyGfMPdwEj4rxjHwc08upQEkEXrXH//4DHLJIvmBP/7+/vj7BxObDdCCptVMibz4C0t2XODWGW88T9xHpWwFauoBRLPzp93cUqnBgO9HUF/NF++l24nKBZJCuevvT3xGLmQl88A/f97BsfldXH34af4azobpULPXZJb/voRvXGtioAJgRoda9uTcPcDCNYfxu3qIVX/5EG1ihaM+0KItNc0zuLtnHqsO+eF/xpt5Ez/h85nePMp+1TZBUuhd/P39CU97Pipr0bQapumBHF3hxbnLu1i05RoxOtY41VPo+/z4Iis2nuPWmTVcepSJjp4JmgV1Oz0Y8slcDif5sGLcQD73vERR/jiHlIgALh/dgfe2o/g+1cGuRn2q2xU2EEIIIYQQolglHiCW7FNMH+N79grBVKBln8EM6NWWBlUs0C3Y6qzjPNm7j1jVKlTot5T6U3bjPGw6xqYA6mjo6qJq14N6Mw7QeMYBGrt1ofBZMqpl0dDNJilsX+HSIJWcwoDqHzDQRzM3g+zU/P9z48nOVEFNs+hJNrkJoSQX/vdmqKmpopKZSlrBNkTEk1EYRFbn49krWbny+decYTWLZvJ/MUVfTxXLlh5s9PbG29ub9f2rFQVDANE7+fHQfdR0NQi58CeHnhYb5Rcv7AjLvhnF8MkrOHRfnRp9JzFloCUq2GCir4qO4wB+zV+u96QWWBQM3jPVR081iken87sUA6SnkfY3Fv0ipvp6qGakk1hwfyAxjYxcDbQM1AvbJMaFKAR9f4OKBobla9G8ywcMdm1HdcME7l09w41Hyg2FEEIIIYR4VokHiCX7FNNMYoN9Ob1nMxt3nuT2Ux0cmnSl/+BO1NIHyCX7/jLur/qAywuG4/PXeTIsm1KxbT8gk7SEBHIjjnJjVicuFLzm5I8VzA4mPVENfeueb34nJiaRoaKJmk7+/ypGqGnkkp0Rp9TwX6Chg7ZG/t8WRmgWPsnlHrt+WcSiRc+/ft55t2j6/8sTYuKyibm8hI9cXXEteH0yl8NJ+U20OvBF+4pkp2Ri22QwHf6Pn4xIf3iS32et4WKkOmUr1EQPf8LjsskM2s24/grLdc0fK/gkhrjsslRobf7GH2gTk5RMjqYWBgXBqIE2miqZpCf+0wfZ6FGr0yD6udTGSiWcG8d2sMl7L6dvBBP7Jm5eCCGEEEKI/7QSH4Po5OSEv7+/cvG/LictnohHAdy6/ZDYbBWyoiOJzSmPYaMuaOWooqqrh7pRdYwq2aASfoKIuwFkUBPT+k0xs7EgPSkFFb0qGFR2IDvsITk5weRYdMSyRn0MTPXISMhG1bAK+jbGpEVHAKCi4oxJ/RroaWuRFpuNqlFttPXvk5Goi4aFI1pGFmjaNMbCWpPkR4FkqBpB2lOyI/XRrtsUM/NKpMWBXtvB2Fim8/Ts0sIxiMbZN3nidwNQR8uxN2UNIom6fJqCzp4volW+KRb29hhUaIpjfVsI9yMszgytrCeEZbagVutaWFe1JD7aAsdPBymMQYwmNSGW2NjnXwnFdJMtlmkd2jeqSlmLXOLiVTCwq4KdWhhhCSFkVGhBmyZNqFMOkpJVMbCrS5MqWQQFx5ODGT2nfkl7owD+nHYQXDrSyimHcyf9KRjSZ1qnPY2qlsUiN454FQPsqtihFhZGQqNPmT2yBdb6kK1mQFWXrrSqY0n6vV3suxxBhGF1WrdoSBNHI7Ji09EqU42mjcx4dC+MrNAMKrRoQf06DalmlEVsuhZlytellkUoD8LzA7kXbpMuVlUrYmNeFhvHRjjbQIR/MAmGemTHxnM3pxIuzWpiX16LuDQH+g9sTyXVhxz9/UjhGETLpOscPB1EBlCtdR9qaT1k36HrhdtcPDX0dDK5f+k453wfEBGf9upxqUIIIYQQQuR7bwLEQjlpxEdEEpsFaH6A7YcDKN+gA5Z122PuYEZO+CWCD60hLRWIPkV8SlUMnRpj3aATlnVbYmqUQczVs2SSTfq9W6Sa1MHMsRHlGnTAsm5LjLVjiPDzyXsCZsot0tScManeDOuGHbGs0wDN5AtEh9TBdvgMKjVtj4W1EajoYlC1PZbO9cl5tJ2Ep3dITCiPoWMDrBq0xtQgiehTnjy6FkYu/yxAdJ59hAFDPqBuA1v0VEG/fAfqduyNtf5Orv3pxVOLLjg2bkn9jq0wDD1BoEol9MPXFz3I5p8ICSa9nCO16zTDpZ0LbZo7YxZ3lOP+aYRfuUFCuZrUa9C8sM5W5T5Hzj3ErM/XfNrGkLubvmeNjx+X48vTrnMbnDXPc8wvL8UYEpxOOcfa1GnmQjuXNjR3NiPu6HH8zevTpXkD6jVqiUubNjSorE/KnYOsWnacyGxIuXuRQPVq1G/YmJbt2tKmTSOqG8Vx+MgNUgnnyo0ELJ1qUbNeM9q6tKFN89qYp17i6LXYvPf4hdvUBrfF43Bt14Y6NnqoYoBd0za0aVMNzeOHuH73OpHGztSv15g2rWphnhnMsd9/YFNgGvBPAsQsYiMjiC9m3KMQQgghhBCvUuI/c1G+fHmCg4OVi4UQQgghhBBClLISDxCFEEIIIYQQQryd3vjzVV6lfv36ykVCCCGEEEIIId4CJR4gli9fXrlICCGEEEIIIcRboMQDRCGEEEIIIYQQbycJEIUQQgghhBBCQGkEiFeuXFEuKhG6urrKRUIIIYQQQgghFJR4gFhaP3HRuXNn5SIhhBBCCCGEEApKPECUp5gKIYQQQgghxNupxANEeYqpEEIIIYQQQrydSjxALC2lNfZRCCGEEEIIId4V702AWFpjH4UQQgghhBDiXVHiAWJpZfJk7KMQQgghhBBCvFyJB4illcmTsY9CCCGEEEII8XIlHiC2atVKuUgIIYQQQgghxFugxANEMzMz5SIhhBBCCCGEEG+BEg8QS8vJkyeVi4QQQgghhBBCKHhvAsTo6GjlIiGEEEIIIYQQCko8QCytTJ6MfRRCCCGEEEKIlyvxALG0Mnky9lEIIYQQQgghXq7EA0TJ5AkhhBBCCCHE26nEA0TJ5AkhhBBCCCHE26nEA8TSUlpjH4UQQgghhBDiXfHeBIilNfZRCCGEEEIIId4VJR4gllYmT8Y+CiGEEEIIIcTLlXiAWFqZPBn7KIQQQgghhBAvV+IBomTyhBBCCCGEEOLtVOIBomTyhBBCCCGEEOLtVOIBYmkprbGPQgghhBBCCPGueG8CxNIa+yiEEEIIIYQQ74oSDxD379+vXFQiOnfurFwkhBBCCCGEEEJBiQeIKSkpykUlQldXV7lICCGEEEIIIYSCEg8QJZMnhBBCCCGEEG+nEg8QJZMnhBBCCCGEEG+nEg8QS0tpjX0UQgghhBBCiHfFexMgltbYRyGEEEIIIYR4V5R4gFhamTwZ+yiEEEIIIYQQL1fiAWJpZfJk7KMQQgghhBBCvFyJB4iSyRNCCCGEEEKIt1OJB4iSyRNCCCGEEEKIt1OJB4ilpbTGPgpR+jTRNy2DoZaKcoUQQgghhBDPeG8CxNIa+1i8htiMOUDtnm2UK4R443SrtaBHjyZU0gYqJOI7LpL15ZRbCSGEEEIIUQoBYmll8t6psY86zTDv+xt1pu6n8Yz9NJywGru6lXit/E+z2XgfO8ax/NfRQ3vYtHwinWw0lFuK90IZHCvbkvPgNr7xucqVz7Epn8qeAaEEjX1E8NgQbvVLYoyhcishhBBCCPFfVeIBYmll8kp97KO6PrY1m1GngnKFMh30W43AzgFiTi3Bd+1yHkcbU67N55gaAWhgX6cRjuV0UFOetFA8139zw81tCj/8dZNMh86Mcx9FVeVm4r9BTYdyjk2pX7mYmwA2VbA3SyA4IJgs5TplGpnMb/6UitkG/LnHmk8PmhBjGsNnTTOwBtCpSN2GVbHQfvGRJ4QQQggh3m0qdnZ2r04rvEGdO3culSxi37592bZtm3Lxv05d3xbHurWpYW+OTm4Cd05t5dzDhtiMmUWZ6NPEmzXCoow62U9vEbx9KlGhmYA6qhoq5GRmAqDqOIeaH1Qk1msgj+5pUb29Kw1t1ciMfcK9OzfxDQgjNTt/gc1m4z3bicA5fZl6LK+ohtsaFrVOYuOnY1lnPxvv2c0wI4eMpGgCT/zCTM9jRANQno+WLGFITUNUgZyMBML8drNw6m/4ZgIOo1m1rD9VdAq2Doi9wJy+UzkGqNt/gLv7YBrZGqCem0bU7b0snLyCK6kADoxetYz+z0ycxv1t4/lkxV2FsuKZtvqKmZ+2o5q5Luq5GSQ8ucqm2TPZFJi3j4pX3DLzFay3uj0fuLszuJEtBuq5pEXdZu/Cyay4kpq/vT1R25e3jupOo1ky7wPsI7cz/pMV3EUd+w/cmfFhA2yNNFHJSiEq4Bi/zPQk/UtvZjczU14qpN1n2/hPWHFXHaeRC5jeqwbmumpkJz3h8sZZzNwUSGbBfuYem8eN5ufc/P9VCqbNm5WaTjmq1HGmZqVy6KukEnR+KycCFPeHLtXa9qKBxk12HfQlPje/i2mPVIJ9tLCrHo+xmhpRAWaMPqLF1RxANRd9VEjKAcjly07huJkZMmqDHgf1a9GpTz2sVNOJeRyI/01fAiPSKDj0hBBCCCHEu6/EM4ilnskrESroWNekZbeBDHJtg5NRCg8u7cfrz62ce1jUSsvGgdxrC/D76wgJ2jWwadY1PyuYVRgcAqgbG6CeHkd6IkA6tw5vwGvPGe7E61Khfkf6D+xN+0bVsNAsmncRdQx0NVHLySQpGbi6Enc3N9ymeLLlSiyWHccxfbBVfttYfA/9zmw3N9ymLGLrjWTM6vXkk4EF9ShkJ934+WqsQrkjY74dTiO9h+zxnIr77xdItu/B+InNUcxrxV//DTc3N9x+vori1C/lMJq5k7pTKccPr1luuP9+jhgTZzr1a4yecttnPMJ7/jd5y/t+Pw9S0wg+tDDv/2+Xcx5wHPMtwxvp8XCPJ1Pdf+dCsj09xk+k+XPJOEM6ftSeqjk32bLYiyDAsIM780Y1wjDsGCunTuGHnfdQcWhK924VubrSPW85bj9zNVZhuyfPwysIcBzDhL410Q45yoqZSzkWaULjj6cxtlbB8rLJUDOjam0jLBo5Ya6WURiIaVo40rSzK4MGdsC5bBYh1w7j/aeXUnAIlHGksm0OjwJu5wWHhTJwsFBlyy4rFvhoo181linl8xvkFASHADnY6uaQlqhGKECSLwc2bGbvuUASDRxo1HkA/Xu1pWGVss+8x0IIIYQQ4t1V4gFiaSnZ7KEGlWs1oKJeNDf2b2Hz7mNc8FfI8uXLjjxP+PkzpNz8i5iIVNR0LVB/tgmo1sSkWgVUo/1JCC8ozCUtMpArx3bivfUwPlFa2FZvSPXC7quqaJVzxtm5EV0+ncPnTS1IeezLlXggLQz/OxGkp4dyddc+fCN1sHGqlj9dAtf37uKkjw8+F49x6EYEKZmJRAZFFcwYyCE9zAcfHx9C0hQ2qEZnnK3Tuek1g6V7L3B641w2+CViYlcbB8Wp08Pw8fHBJ+T1M081ejWmgnoIJ36YwpqTPpzeOItR/fvxyfenSVZu/IwsYh/45S0vMIFMICsxKO9//1BSqUFnZ2vSb3oxY+leLpzeyNwNfiSa2FFbYaXVDRxwbjuSXjUMibi2lQ23YsjEkFbtq2OefJM/pyzgrwsX2bfiaz7uO5Dxa++TFuaftxyfENKyFbbbL4iYTKjR2Rlr1VDO/zKfv07t5PvFx3mEOVWbVMxfaibRj5IpW78VTeqWJelhJBn5NfY1GlDNNInbR7axaedhzt18TFIx/UdtqthjlhBMQLBypSohd/SY80SdFf66RGTkYGT4fEcCrXLpNLOAsBBN/AoKc1KICLjE0R3ebDvmR6xOeWrUd8L22UmFEEIIIcQ76r0JEEtWJgFXTuEXpY9Tx/4M/qA7rZwrYKqU4ctKuE/6s0VKjDHsPAE7s8cE7/+J1MJydfRta9CsUz8GD+hILaMkAq+dwqcwO2lEnRGeeHrOY0KfGmgE7WOJx1oeYUr7qWvYs/sPfpg9m9mzR9HY4rmQlHpTN3D42D5+GWDGPe8fWHTmZd048xmZoKdpiPMX2/MfkHOIbxubKrf6vxiZ6KGZ9IQr14rKslJTeY21egUjTPQ0MXT+gu35D/U59G1jnl1rbcp3+BrPaV0wf3IMrw0X85drhpWBFmlR97kVX9A2i9TU11srIxM9NLMzSC6IcFOSSc9WQ1Nfv7BNangoOXYd6WiVQfCTorG7D66f4lqIOpVc+jG4f09c6leirLbSI4x0a+BUWYewwNuEPxeJqxMZ/YqPvm4GG9rGYBRShgnXi9qqaBhSvlZzunwwGNe2Tugn3OPKWV8ePzOxEEIIIYR4V73iKvHNK9lMXpG+ffsqF/2LckmLCuTKse14bdrLhQfJmDq1odeHA2lVSbntC6jXpKzrSqrWyCZ0z0wiQwsCDy1qdByEa/u6WKtH4nd8B5u893DK5yExBSkmYrkwxwUXFxfadujGgC88ORYNlO9N76ZmPN76BT27d6d79ykcefJ8QHN17mDau3RhyEIfyvT5nl+nNsyrsCiHMbGEF2YyFUSFEZeazJ0NH+PikrdsFxcXunyyglePMHy5qLA4UvVtaNT4TXdkjCIsLpXkOxv4WGGdXboUjfPLGyf5GS79lhNQpj2jvx6CHQCPuBeTirZ5ZeoUM9TwVeJjk8lQ00SvoI+srh5aatlkJCUVNYry5ZFmNSqp3Od6ZFFxRsxDfE7uYtPGXZy+G4d+peZ0HziY9tWL9k8ZR3usMh4RcDue53ODL2dQLo2DrpHUSjPF/ZB23thEAP3adB7UD5fa5VAJ9+HYjk1s2Xsa3+DYNxCsCyGEEEKIt0GJB4jvm9y0KAKvHGO7lxe7z9whKk25xfNUHcZT9av5ONg85fGu5cTEW6FjVQttQx0gh+QnNzi2YxPee07h8zCmsOvh61FDU88QdbRxHDoQJ8NcVLUscDDVAPU6fPbdXMa7tsLZuTZ1atliqK6Glo4O6ib29OhSBZPUGJ7qOOPs7IyNthqoamHhYIpGwAEuB0OVfvNY8HlXGjs706jLQPrUNwJ1Exy796ehrTpJcXHKK/RKAQcuE5xhTZuvl/Pt4FY4OzvTqEsfXPIitX8ggAN5K828BZ/TtbEzzo26MLBPfYyUm8bsYc/tp+g6tGJoRyt0yOLKsZuEa9dk6JIFfN61Mc7OzrTo3o36z038vJv7fXiSY0WTUZPp07In33zVBjsiuXv+flGjnDscOe/DjXMHuKU4cYGMGB76nGTXpo3sOO5HWHJ+KKhmRzV7MxKCA3iud+lL5fJh86dc6ReFVXQZZp3WIsIom5bmOVRQA7ITeXztKDs2bWHvaV+CYyUsFEIIIYT4rynxALFkM3lvkdw0ogKvcztEueJ56hYV0NdVRUW/MhU+mEftkQuoPXIBVds0BjJ5cNOHh0XpwtcXvJ3t58Ix6zSfvUd3Mb9NGjcCEzGq8wnL54+iqnl5LK2q0X7kjLzuqT0rk3tvLz8tOYmd62RGN7NEw7Q+IxZ64unpyeh6JmBUhyFTBuJAEL9+u4g9gao49XJjrqcn8yZ8SLs6ZmDnypej21A28gxevyv0E31dQb/y7aLd3MmwpuUwdzw9PZnnNpB21V/+iJrXEfTrtyzaE4iqUy/c5nriOW8CH7arw/NJwSzOeh3lTro1LqO+oAmQcGQO01afI0K3Fn0mzMXT05OZn/akiY3ytMXwX8EP2/xIs2nLmJnjcDGP5cLa71jmq9gomZM/TmDi8suvyNBlEPPQh5sP86JBXcdqVNQJ4c71sNce55knh7rmaWir5GLoEMXc/k9YP+AJ6wdEM9scSA3CzzcYiQuFEEIIIf67SvxnLkrr5yZKa7n/FQ6jV7Gspxr7FH5moeBnJHqq7cv/2QdR+spQr3t3KiecYuvJoFf/9qEQQgghhBAKSjyDWFokOBTvh0Tunt3NvgsPJDgUQgghhBB/23uTQRRCCCGEEEII8XIlnkEsreDwvR37KIQQQgghhBCvqcQDRCGEEEIIIYQQb6cSDxAlkyeEEEIIIYQQb6cSDxCFEEIIIYQQQryd3psAsbTGPgohhBBCCCHEu6LEA8SUlBTlohKhq6urXCSEEEIIIYQQQkGJB4j79+9XLioRnTt3Vi4SQgghhBBCCKGgxANEyeQJIYQQQgghxNupxANEyeQJIYQQQgghxNupxAPE0lJaYx+FEEIIIYQQ4l3x3gSIpTX2UQghhBBCCCHeFSUeIJZWJk/GPgohhBBCCCHEy5V4gFhamTwZ+yiEEEIIIYQQL1fiAaJk8oQQQgghhBDi7VTiAaJk8oQQQgghhBDi7VTiAWJpKa2xj0IIIYQQQgjxrnhvAsTSGvsohBBCCCGEEO+KEg8QSyuTJ2MfhRBCCCGEEOLlSjxALK1Mnox9FEIIIYQQQoiXK/EAUTJ5QgghhBBCCPF2KvEAUTJ5QgghhBBCCPF2KvEAsbRER0crFwkhhBBCCCGEUPDeBIgnT55ULhJCCCGEEEIIoaDEA8TSyuSZmZkpFwkhhBBCCCGEUFDiAWJpZfJatWqlXCSEEEIIIYQQQkGJB4iSyRNCCCGEEEKIt1OJB4iSyRNCCCGEEEKIt1OJB4ilpbTGPgohhBBCCCHEu+K9CRBLa+yjEEIIIYQQQrwrSjxALK1Mnox9FEIIIYQQQoiXK/EAsbQyeTL2UQghhBBCCCFersQDRMnkCSGEEEIIIcTbqcQDRMnkCSGEEEIIIcTbqcQDxNJSWmMfhRBCCCGEEOJd8d4EiKU19lEIIYQQQggh3hUlHiAGBwcrF5WI8uXLKxcJIYQQQgghhFBQ4gHilStXlItKRP369ZWLhBBCCCGEEEIoKPEAUTJ5QgghhBBCCPF2KvEAUTJ5QgghhBBCCPF2KvEAsbSU1thHIYQQQgghhHhXvDcBYmmNfRRCCCGEEEKId0WJB4illcmTsY9CCCGEEEII8XIlHiCWViZPxj4KIYQQQgghxMuVeIAomTwhhBBCCCGEeDuVeIAomTwhhBBCCCGEeDuVeIBYWkpr7KMQQgghhBBCvCvemwCxtMY+CiGEEEIIIcS7osQDxNLK5MnYRyGEEEIIIYR4uRIPEEsrkydjH4UQQgghhBDi5Uo8QJRMnhBCCCGEEEK8nUo8QJRMnhBCCCGEEEK8nUo8QCwt/v7+ykVCCCGEEEIIIRS8NwHi7du3lYuEEEIIIYQQQigo8QCxtDJ5Tk5OykVCCCHEP9CTaT8t4NNaALX4dMFPTOup3EYI8e6yote0JcwflXcNWfuzhSye0g0L5Wb/JV2nsGLhGOqpAdU/4fuV0+mrqdzoNalqY1TGBD0N5YpSpmmAaRkDtJTLRaESDxBLK5Pn6OioXPTO0+z2ByO3naFTG13lqiJlljD82D0Gfqxc8f9TMWrCJ3N/Yr2XN97em1k9ua1CrToOA9xZuXI6fa0UisUbo9t2Cr96LeOLOso1/y4Hj6t8e+whM449ZMZfW3F8J86sDflq5WZ+ntQCdeWqZ5jTfcpyfpkzlIqve1Zs+BUrN//MpBbFzTlvud7e3nh7e790+Q1HLeDnJRNoo69c8yKvu02iJJhY1aVFv6449x9C+/pWGOcqt3j/tJ27jWNb56L4zfBu6kG3LQ8Z+11f5Yo3yJKKX+3jsz2BTD/2kBk7d1OnrHIbUXqSUTG2pWbzD+jXciiDXWpjY5xLqnKz/5JcI8o5N6d3t7r0G9KeBjYmyi1ekxpl67SjZwdnrNWU60qTHtVb96RHIwfetrj1bfK6l0JvjGTy3hxVc3NMDE0wtjNXrvq/6badwq/eG5jZ24SPF2zCa9kXPBuH6NP1y1G0s07lqtd83N3d+e63Mwr1apiULYOJkRkWb/IWm+lwFnlvYGbv5yoYvijvIjzv5cX6n79nXGf79/fOkG5bpvzqzYaZvTH5eAGb3lAw+fin0fzuNpTdV2J5266BG361ks3e8xmq3Y9ZG18ekBXPCPMyJhiamWP1Rs6KN/hzkTvu7uu4FvPyvVWmTBmMTMpgZfJGFpznpcFrf+ZsyttH9cctz99vym2KYfkJy/7ax6Fjxzh27BiH9m3m15kDqKTc7r2yk1VeZ0ip+imzB9sRc/AnZuxSbiPEi2l3X07X7pXIvbmGP92GsvqbcdyMUm71PP32U/nVez3uPc0YtmATXkvH4KxQX3bEovwyfdpP/YXfvmmvWMkiby+WjmlMm29+wXu9O5L4fpF49vzszZWM6gz5ug/lnx7l5/l7SVBu9l+y7xe8TidSaYQHHzkkcPSXmfyVodzoNWjaUM2hDPH3bhOQplxZisycqGyTxf1bviQp14lCb/CK5PX8FzN5r0VdH9uazahTQbni/5f2e2cWtq/Opj8eKlf9M7kZpKek8zg2UbkG9JpT206bqKteLN51FX//OzyITldokM7VZeMYOOhLVl5XKP6XZd7bi7u7OzM9vbgYa07ToW588gaCondXLhnpKaQ/jqWYd/H/khl+hVCfU8Sn5rx1ASIAGemk5DwiJu7/Wbt7/DZxEAM+XcTpLOW6/0c6UUF38PePJC1Hue5Z++eNYMDQqfz5+BUN37CMtFiuR8Q9+16aO9GwdgWMNVUUS/OEH+fQoc0scXPDze0Htt9Op1zzkSxc2Bcd5bbvkcBNM/mkf3e6d+/PJ/MP/LczC+8IVS1TKtZrTI23PhOniW2TihjH+XB8+ncE+Zwi1P8BmcrNXiQ3g/SUNELiij/L5yTFEoI2NsZ6JCcqR505pKdGcDPq2VBHy6EODatZovNWZXxKV2bgJmaMdKVn9164fjqfwzHKLf5rgtgyaxQDenSnu+tI5u5JeOF3voqGERWcm1LLWrkGdB0qYasVQdC9COWqYuhRqW4Dqphrv5HARE3XGqfm9ahUzFeZXTUHTGODuBP8oq1SVJ7aTapjrVvczdb/NhU7O7vX2UNvTN++fdm2bZty8b/OycmpVLq3quvb4li3NjXszdHJTeDOqa2ce9gQmzGzKBN9mnizRliU0SA3+TFP9k3liX+08iyeo+t2mondbPP/y+Teusp4rc3/V6UcNT220aGJFXoqaYReuEVu01qkrKuM19o2fPHjBzgVk1oLOTaduVufotNqMks+tcF3wWT8Oy1hpNUNFoxdTmGsZzqcRatcSPIazMztinPQpe2UJYyuY5T3b3YEpxaMZfn1Z+uyI87gdb0cvdtXRDcnlpt/eTB7WygaVfrg9mlnapQzQksNIIen55fy2Y93GL5oFZ3sFJcFkMFtr8HM3G7K8EWrcEnyYnDBChn0YuYyV/RPT2Pib/GF0+dmpRL76Crbli7lcCj52ce8ugz/HaxPbsbQumVRTX/M6RVTWXlJrWibstNJirrH4Z/n43UrLyBWMWnPVzM+pKG1HqQ+5sLJGGq4aLBv8Ey2mw5n0apO2JGB/471JDcbSt2yqqQ/Ps2KqSu5pNaWKUtGkzfrJKLuHebn+V7cSs/PAC4ZiXXQeaIdmuBkpEpmfBAnfp3Jr5fS0W07hSUjrQk6H41DEyeMSCPixhbmfb+bUACdVkxe8ik2vguY7N+JJSOtuFH4XryKHrZjttKtS2XK6qiTk5FEuM96dn87n4j8wMnB4yof1nzAtoH98Fe8N4A7gw4Po6IaZKcnEHHjz2em02jwPX0n9KCCmS6a+d8AoQc789t8f3KpTu1ZP9GqnhXGOvkn4iRfdvbvwQ2nkcwbUZf8I0tBJOc8Z7IhEOqMW8431R+xfMwJ6i2dgOPD5YxZcJosGvLVygk4hp0m2LoJzqZqZMTcYfeCWWwOysnvrjmBpmb53yKxV1g2ZkFRkGjbm2+n9KGGmRa5SffYfxG61I1nxZgFnK77FSsnOBJ2OhjrJs6YqmUQc2c3C2ZtJqgw1stffuH6FOk/ZxN9qxR8FT5gz9DJrCu4y6rVlM9mD6dFBUNUMyK5fOQhFTuX5cJHk1mX9rJtqv/s9hSK5cqyMSw4nQX0Y9ZGV7QODGVy+rds6qvBvoJl2zahr0s1DHOTiXx4l1u+/gTHZbzw4qDh9I3MbZXOvo+Hk+5+lL4VlVsAMRf4rt9UjqJL5+krGd3MBkNNyHh6j/2ebiw5/+qQqu3cbUxrrNzNKZCtLqNYCaDbhC9/mEDnyqZoqmaR9Ogcv46fye5YUBnzK0f75nLhiDa1XGzQJYOnt7yZ8uXvBKLCmF+fXe+cjKfc8p7Cl78H5i23yt389QcK2uduxWXUTwp/rwQaMn3jXNpoXlJo/2Kv2qbC+pwMUp4+4PDion2Vt17BHH9cgRa1jVHPSuLR6ZV8NjsvQM3b5opAFmlxofh4z2HqpsD8ZTy/zRDDhe/6MfVoW+Zum0aV4OM8rtCC2sbqZCU94vTKz5h9IPXZabPSiAv1wXvOVPJm3RaPzZNpYRLL3YfqVC3zlIAcB6rohbDX/WN+uKy4vOJVGjCXbwfUxcZQE9WsNKLuH2Sx2xJe4xABVNEytadGnZpUszVFMyscn4P7uB4Fuh3XUKNROVRzM8mMCyb0oDthAU+VZ1CMHnTbshT70JOEWTXBsYw66VG3OD2nL+f9MrCffY0hzUwh5iL7jhjRvE9VDEji/o7RbF55jmyNGjjPWIVLI2v01XNJi7rNuQUDOHO1IG9Ri6Y/e9NcZTtrRk2hKIRry9jFfXEsZtzX46NTmbctDt0237B4lBU35k8loMuPDLf0Yf64Ffjot2fqj5/g/NwJM5vwk/MZt8IHzIaxYLkLyV5DWGm2iBWtE/lziAc7AZ2aHfmgvjWqGTGE3LvDTb97hKdm58+jKmN+/ZG+FYu6HOSkReL71ywmrb5NVjH1kErA5rF8+nMQaNRi9MKpdHcqi65aNomPL7LBw4MtmqP59cfemAdtYvwyLab82Irw71zZ3WIds9prc3mGK9MvVWLAzBl82CB/X0beZNf337DKJw2qjuHXH7uQvTN/Obgwd9u3VLo9HdfpZ3GZu41vK91muut0zgJVx/zKj12y2Tn2U/JWazQLp3bHqawuatmJPL64AQ+PLTzIUm6rQfPpa5nRRoOL012ZflZhM1/AzMWNmaNcqFJWF/XcDOIfX2bjLA+2PMgCzHBxm8kolyqU1VUnNyOex5c3MstjC/aznl3ngn3fJXsnYz/9mSBGserwAKo8E8g/YEe3ESxtMAvvGTV4sLA/kw9kotN+Jr9NbIm2zwL6Tz5AJjq0n7qCz1vYYaQFGTGBHFryNT+eTiQ3f74au7sxYmkK1J3C+vnt0btWMC2AChpG5alepxZOFczQyn7KrWM7ufREYVXUylKvcycqJpxj16n75H21ZeE1NJSmxpCTqU7sExNm7NdhTyaAEc6de1KnnArpT0O45++HX+Crb7A+Sw1d66rUrV2TipZ6kBLI2c2nCFT8AtOrTofedVHx+YuDN5MBGNUhjGll9DiemEIL+wzUsjV5cNWMPhfViaUaLkMaU0Etm/iwQO7cvMHdJynPfJf/V72JQP2dULLBoQo61jVp2W0gg1zb4GSUwoNL+/H6cyvnFJJ9WnaVyL22AN/1G4lIK4d1m9Hov8Zdu9Q/xrDabShr/7z1XHZIq/8vdGhuTsq1laz/ZjEPy1SkqAPqRTYvWcSiRc+/1h6KBSDVL+qZrhO56anEAaiaYOfoiKODHmqooGHoiKOjI47V7DHTAkjl/Jq8LqcLTiueJYrqFpx+gpppNdrZx7Ddcxknw/VxatmTmpgwaKQrdfTCOJE/D3f3mSxYfxWIY/tSd9wXnOYJmdzb655fP5tfDistJp+Kjj5aGrlkpiUWTe8+kx+9ThOi24CPvhqGPeTXfceWWwmoWTSjo+FVfpq7idsZtjTu1PGZbZr16278UirQY/xX+eNq9Ok69kOamCdybcN8vtsQgHWL2kVBTNx2ln63hVsJalg064jh1Z+Yu+k2GbaNyZv1edbMd8fdfRa/7vYjpUIPxn+lOGJHFeMq5UnevYiZi3cQkGNPmwEfUbWw2ohKtonsXjSL385FY+zcjQ9b5tel+vHMTeHcdFLjFP5/CcNPtjOwjwM5NzewccI4dp2JxrhWb5xbv04fxBXsnziU1W7j2H0gAGqMpvfUjvknmc60c3PFnvucWzqM1W5DWe02lO2r7+YFHx//QJfmZUg4/xN/TsirW/3NePzTgJvb+amYY3bRotXsDc5bsnImLCPt2W6wehUrwtGluC8/yhNtRzoN6kzetVdBV1B3DhVFdfnMGfrFB9TSj+TUqpn8sDuGus0rK5009cibtTvLjz5B27ETgzoXc1VXjH2rZuLu7s66azHPBWCtvvyY1nZZ+G/5AY9fLmPSrAHKMV/x25S/PeuuEZMbj6+XR/7nZQFrrxR8pSllWTPSSSnY9Mfn2fbndo5cf0KOeQ1a9RrAB11bUru8QeF261g54ezsjLOzMxkX7hGpakuVrrlsnOeGm5sbbm6HCQYeHsr/f8YyzgH0nMWnbSxJ8fmTmTP/5DaV6fnNLHoUrcnLxV3nN7f8eR7Of+Pz9Zz1DT3LJ3L+l5m4/bCDYL3mfDprqEJm0w4nO39+mujGD0fD0KvpyvjhCnnPh4fy1/1nriSaULPzR7Qoqn0tuh8NpYnl3/xKfck2nVs+Pa/8Ry+uxJaj+7ff86FiA/1qVM3dzRy3may/mY5Nm4+Z3CCvKnfjvLxpZ67mcJA6ziNnMrWW4sSK2+yGm9sMlp0rqtKvVpXc3XNwm7mem+k2tPl4MnmzLnqfZ64+TJC6MyNnTqUWQL+u1C2bQ9ChdTzSMAAduLv2IA9U7Wjc4zX2Ztu5zB/VEOPwg/zo5sYPO+6jWrENrr1flQZUw9i+Hm17DWRgzyZU0IzF/8wuNm7MCw4BUs/OxW/1JG54byAsygTb3u6Ufe0xv2BgX5msQ5P4Y+khInRr0Ojj4WgDIStHs/lAMGk6VWjQOJUL333DmWANKrb+nPKAxecr6NRIl5DdHqyduRK/FAdauC2hgoYmOvZNsXKuiY46qKgbU8a5JVbOLbGw0gfOs3mx8vku/7v6cN7JPeXms9/VOempxAMkHWbuJ8P51SeOmIvLcP34J67FpXPrz4F5wSFAWgiKScfcjHRS8v9O9TvI+k17ORuQiL5DQzr1H0Cvdg2pal40Wiv1wX6+d3PDbervXEk0pXY71/zjI0/s1Z/zjqvfruetU75aY8fTu7omjw4vZeaKk0SbNWX4t2NwDPJi3cnHaJiXp1xh66o0qGhG6s1drLkKtcZO4+P6Wtzf+QNTPNZyOa0SvSe40egfJ3ZqMXZ8b6prPuLw0pmsOBmNWdPhfDummN5udoPoX9/y9YcvVB3DvIldcci8wYaZbnisvUi8WV0692uALlB1zDwmdnUg88YGZrp5sPZiPGZ1O9OvwUueK/GMeHz/+Bo3Nzd+vfr890geKz7p3xTzyJMsXnYqL7Dp4s5nba1I89vE7Jnr8cuuSLevPejz3FeXDh8ObYpV4XWpKvp2zrTuMZBBfVpQWS+Re+f24LVRKTgENG2q4VAmgaC7BcEhgBpT91ozZJM1HqeNiCkTjWf79Pz9GY/P/g1477tAYLIhFRt3of+AnrRtUBmzVw4U1KScU3O69B/MgHa1MM14xJWDm/hzk1JwCJg5VcYm6yF3buUFh4VMkqicbMK4zVZsDoby9eL5zgzgDsfWb2TXqVs81bKlbntXBvbtSJPq5fKvIf67/ua32T/3fjzFVIPKtRpQUS+aG/u3sHn3MS74h1F4Ey5fTtRlIs6fIfXBep6c8yfTpApGBYnBl8h96kuozynCo9KVTgj62NexQzfuGicmL+DBlVUcW36Fot4QKUQ9DCIo6PlXaEL+FWLM70wcOJbl11M4Ou8TPpz4Gw8AjHszzsMDj0ktsEaDyl098PDwwMPdjQFOALmkhAfi7+9PULLShubXBSVng5oajw4vZNflM2y/E45aGQulMUw5xD/2V+i6mkPsI3/8g5LJJpfMBH/8/f3x979LqELncRUNQxwdHXFq3IMxbi7YE8b9K9H5098lPDmX+MCz7L36mByr8vljNXKIfXSPmIxc1AwSuLr4d874HuTywwQ0ytpRh1xSwu8THJtJdpgfh47cJkbPBsc6gE49qtvoEHt9Kwt3XeXm4d/47UqYwmbE8uheDBm5ahgkXGXx72fwPXiZhwkalLWrA7kphN8PJjYzmzC/Qxy5HYOejaPCeE8VeHyBpbuucvucF4tP3CfXsgrN8yJbUMkl+PQP7Lp6k4N/3iRCVQ/9MgXTxvD7xIGMXX6dlKPz+OTDifz2oHDGL2FPnSYV0Q47yV9TZxJ4fRe+c7qypG8TDh55nQEE0cTcuE1abhzRJ5dy834qZct3LGYQeDrJ904T6nOKp0+VgzIgKYAwn1OE3r5PRi6Q/pRHxRyzQUEhxBb0xdr8LQNGL+B01iUWf96fsUtvongUqodd4YctF/E/9SvXQnLR0y+Tf/Ir6ArqT+JztwRbUslWnSdnl7Dq2G2ubP+B3beUu9qoE3blB7Zc9OfUr9cIydVDv8zrnVYTQ/KWG/ncLdI61LYzIuXWbuZvuYj/qT9Yeu4Ryq2K36b87YlMI4ccMqLv5n9e7hNZmIXJ20eT16Xl7bfBM9iqOL4kK47HfmfZv3Uze84/IKNMJerVrlp486PpF7Px9PTMe01pgSWqqKpBbJAPPj4++NxIIAvISsj//3YYqUC/VlUxSL7Ntm/WcOrUGtw2+5JsUIEGrxE7AJCTTrhP3jxvJCi+Wf1oVdWAx8en4+F9Cp+9K5l8JhidctVoWtgmhTs75rHXx4e9837kfLgmFet8UDSLrIS8dfU5xIOnWeQkxead9wBMGzPt2BEObJxNpxf2pW3IhPbGBN3Ju9H22l64TZAaepu7kRnw5AY7tt0gUseaGor3kDRDuTRtDad8TrHGbQ93Msyp0ik/CowNwic4ARICOL7hDA/SrajQXGFaFLfZBx+f24QpZOk0Qy8xbc0pfE6twW3PHTLMq1A0ax/yZn2cDWcekG5VgeaAioUBejzi2qK97A2KhtCbrNq7At8nUMaiZtHMX6Bf15qYJPuy/tMf896nlWMZ2nMg4zcqd41UZkbVOrWxVnnEhV2b2bb/JNcCo0lX+MDkJt0jLSEVEv2JvXKVBFVL9ByeS7G9UGboEU7/uoNHO1ZyLzQdTYPyGACZYZeJTsgkV0edyJ0juXByMzd9QknXK0e5Ks1wqmNFmt8v7Fq2lkenFnFwgy9JxhWwtq9GnW9+Z6TndzSz10arQmdcPdcx0nMdrmM6AilEvuC7OqzguzrqNyYOHMcKnyQOz/2EQV//XnTMooOdqQEZaYmgqo4qGaQXRIAUBJFD8NgJUb9NpP+I71G835qbGsG9y0fZsXkrR32fomNXgwbVyxc1yEwg0McHn6uXeBCTTkZybN6N5HzZaSF5x1VYusJ5qy6daltByBlWLtzJqb++Y8WpEFQtqtLUKob7YUlkaRhSpaoB6qihbeOAgTpkJjwgKC1v2hTfDbiv2MfFkxuYs+kmyaZ2OCv0LtIwrJR/86ocWsqnYTVtbPJvbDkYKIR4dTuRt1orWbjzFH99t4JTIapYVG2KwhYDGjT/qA0Gj+89s60vU7dnQ+xUH3Fk/jTWnfbh5AZ3PnHtx6iF50mhLj0b2qH66Ajzp63jtM9JNrh/gmu/USw8n/9mmTVj9rEj7FvvQRdT5bkD5JIe4YuPjw+hqcrfECpoWdTCud84mttnEXBiKadDUsgFeraphlHKXXZOX83xU3/w9UYfEvTsqNdC6du67ld0NHvEnacF33oGVK1dl/KaYVzZ682Wvce5HBBJmvIlH7o4VLJFKyKIZ3uXqvDgqSqPsyEoUpvV97XRLJuBa+HNzxySw+9y6ch2vP86zq04PcrXrIdjMd1Xn1WJmo2qYBx/k4NbNrHryHluFZvls6OagymxQXd4rndppi4HLmuxN1KdyaeNeZCdSi2Hgn2aQXTQNU7s8mbzgauEq1nj2KgmlZVm8V+j/BH615VsJq9IyY59zCTgyin8ovRx6tifwR90p5VzBUyVbjdkxvoX3lnJikkgS00Tteevpv8GFdRUVchNTymcb054ssJ4hjZ88eNKVq58/jW1X2F0UbyY35no6orrpwd4RAa3vVxxdXXFdeDrdl3MlxXG/VMAuYT9OgHXwTPZTix/rt7MpfiytB42hcW/e7Fu+QwGVi+mL+wLaFTuioeHBzPdBtLIJJJzaz1ZfRc0qg1i1q9/svK7yUyaNIlxbcoXe9cnO+YJt6MBkjnw3UgGjl2Oj0l7xi9Zy++eM5g0aRITB9Wm8Bytoo6qSm7eFzAAWUSlFjdyJJuYJ7fJm/UBvhs5kLHLfTBpP54la3/Hc8YkJk2ayKDaymf/bGIjAynowZkZmUSKihY6xgXV8cQ8Vmj+RtRGX0+V+CfniC084SeTmap8Ji2e6dAdfHHwEqO/W8XA2atoXlWHoqTXfo54ehOYVZ6m4zby5e5AJqzbQn2n/AN+7QT2HQ9Ht8lnDPr5AtMO+DB4Qm+0VYB6I5lXzDG7cuVMBr/mE1LiYx89EzC+HjVUVSEjNbLwIicxTXmkfjyxj/7+nF9OI2+56QmFy41MeaYvL/zf2/RqqtrmVKnvQs+Bg+jRxBaVsFucvexfmAk4OrUvLi4uea+h+3lMDjmvXBEVLAz0ID2t6OIqNo0MNNFRPvT/LhULDPTAtvM6juU/QGdPz4I7KQWieXSg4G8/YpJBU0shhVSpX/6062mnfpXfp3oSUlAXc4Hvuq3itl4zhk4sPtDRHf4x9WIPsfd1rxxfRbcz09ftYffaRcyePZvZ4xpgptwmJpJbhUFdCAnJoKlTFqjE8CV/cWjLSubMns3s2d2o+PqnUgBiIm8VjaUMSSAZTfJmPZwlfx1iy8o5eevVrWKxDwPzi0mGnCxSSSVL+bq1WPnHR1ggigNQUlNfp29pNLcvXuBeigUNun/Ih3070rS6DYYFMYB6Myw/8qbBl4twHOiOY88WKMYHryPt6Q1e2iE1NZLwW3ktola4sKBrW84GlEFPTwPDOt8wKf/pz99Oa0xep2Jfzo2uxiyXHhy5l0ZaoBc/uVRglksFlk3blt/FVPl8l/ea0rfgS+AlVLRQV80hKTYEdOwwNUjmuSGIL6SChoEdNZt35oMh/WlX3ZCEe1c57VOU4dap0p/Vx45xbJ8nbdWvs3bOCl59698YY30NstOTC7OVyckZZKtpoa8HoTv+5FCINQO/6kB5bRPqjf6aNvp32P/nxcJpjeuNZ0f+Z/zgpIY8uyd0sO/8Tf7NqxEUjHYpZFKP0fk3tr7uUJ7CPjHGxuhrZJOeXLhWJGdko6alj17R1GA1hIGOcRw58aJM3fOMjfXRSAjh4s2isszU1PzAJW+bEkIuUlSdSWqqQlgTfZbprj9zR78JH376d69hjaj10UI8P69Lzo2trN1c1MvGwkAPlcw04go+m3GpZKCJtoliNxVthg5rQNLxvRQ9Zy2RO5fP4h9ngnOXAQzq14XmtewwVrpuVbOoQTWbLB7du/dMBlm/QjLnPgnhaL8Ifu4RgbtjmsI1AqCiiXGF2rTo4srgD1xw1Isj4PI5/JQ7pT0nkGsnfQjVqkJ71yH079Gaug5mz52b9GpVp5LmE+7dKubDkKTB0YKkQ4IaCVk5aGrmb7i6LtbVm9Cx7xA+7FKXMmlB+Jy4xj3F6f+DSjxALNlMXmnJJS0qkCvHtuO1aS8XHiRj6tSGXh8OpJXCBa2GiWPhSUrd1BD13BxyX/fM8xIqWrqF81W11FPI4Ly6i2lpyQzYjuekzxgyaDSTFu/mgVYNug8bnN8V9NUybnvlBayuAxky+huWHg4FdGjasxWVkk4xd+THDBs2jHE77il0d3g5457taWh4H69RQxk2bBiffH+ByGdaqKCpbZD/tzpldV43ujemZ/uGGN73YtTQYQwb9gnfX3h2zqCGiXmlwhOchrk+uuSQ/fwtsTfoMHFxORjZtqTs37yAgs406lyL3GtT+bG7Ez90d2K/b9IzX6SZl79hy+BafN+tFasWHCbGrD7tx07LD9hvcWN2W1Z2rcSC4WM5cCubCl2n0bah5mt1Mf03aeqYF54oDbSLu73w79DUMixcrrmu8lfdv8S2KX0HdqNpFSNSgi5wYMsmth++yN2w5OcymACVBtbAOucxAXuVa5TlEpGYDFraRRd1JtpokkHqP33gQ24QT+Mg8tTkosDVxQWXZ8YBmmHXqeDvmpjqQY5iVBu4NX+6D/B4aMfI1Uue7c6Zso37kQUBmDIbvu2sx9kl61C+ffD/UhnSk1bmIXj370L37t3p/tlxFPon5DE1p3phRtMGQz3Izc6AFh/TuWYGF2f2plv37nTvvpbbrxNnKTA1r17UPdfGED1yyZt1Z2pmXGRm725567X29iseyqOD+mtdZeQS9DQOylVhwAuztC+STeKT25w/uJWN247gEwpWddvTd1BPGloCNXtibRVD8C99uPZDX679vIe44u7lvXEhxMWlkeK/mqX5wd8slwrM6tqWswHKbZW9uovpC+m3Z+ovnrS10aBSr5V4r+iInZolraZ6sXSM4nNOi6dTsyODPmiLs5Uq4TeOsWOTN3tP3yC4sLsGpAZsZqSLCy7tP2BZsD3DPBfQ/5VPLY8jLikTNS09CjpQ6ulpopadTlIyVBw4jM7lAvj+i23cT4vm7PTP2BVXjc6DGgHhhMemkXRrLUMUP+Nd88YQ5kklYPPI/Lo5XFC+pIk+y/T86T7bptDtMS6OpEw1tPQK1wo9TTWy05Mo6oSoTsUP2qB1ZQ2b/sb5Kjw8ljRDW5rWK+4LNW+bDG2bUmx1gWhf7kdnoanzd78D4ri8oCMuI/eTUmMwEyc3K+waG5GYTK6GNsYFn01jHTTJIC1W4Ru73ES6GF1i5dpkhe/xggzfX2zccpArjzIwr9WWPh/2o2lhJlcTmyrlMYoL4u79Z6+2JtWKwTyyLM1/tsJxtRXdfHQV5m2Ec5cP6dOmFpaEcv3odjZt2ccZv0ev8XnNz/Dt9GLjnrPcSzCiasseDBziQrXCCNQMJ4dypD28g3LvUgD0M2lbcM/QMBtDdcjNAahGu0ED6Fi/PFpPb3Fqlxebdp3gWlD0Gzvfv61e69T9JpVsJq/05aZFEXjlGNu9vNh95g5RCp8X1TL1sGzVCV37IVg3dUQrMZjEV94pUUO3Ut5YBcuyWqiggrpJS6ycm2NilEjg1WBSjGrRbPYk7Ot/issX9YuyXq/TxfT/paKLZaW8cYkOemqAKtqW+WMUtfPqHPTUQEUDQ0dHqlopDgDRpk43VzrUc8SxqiX6upqoA9npKUVjLDMiSUjWoELjz/PaOTWkSc3n7qkXS0VdG0MNUC3biqF1zMlV0cDQ3gwtVRPsHCtjqqkCqtpYOlbDPm9ApQINdMtqoWJQgz797NFNVUXb3Ar9lIv4PU7FuGYvvupRjxrthzO4VtH6qJrY4VjZlLxZWyqM1VSgoUtZLRUMavShn70uqaramBful1xyrRsx3rU5Tk0H8lXriqjFPeSGn9I83qhk/C7eI9miNQNXrqZu69ZYObekWq/BmCqMjU1OTQfDStQc2g9r5yHU6OhUeBdQXcsMDRXQbr4cJ1sVUDeirLUhYE/l4VNxqtcSq2rl0dPP2xkZaU/zviCcv6DpgL5YO7fE1NgYTQ0VyEknPTb79bqY/r+0yuJQLe+4NVAHVDUxq+qIY0VzdDhOQHAW1o0+Z5iLE/V7T6BjJa1n73i+UixpGbkYObSmdyNHHFu2o7mVKmCATf5yzbVVATX0qjji6GiLkcolrj+MR7dqJ8Z/0AjHlh/xaX3Lv3eyfhhDYrYJFTsMpI2TI46OLWlU8zUGOKc/5d65/WzZtJ3DF+8Sllx0XtDtPJ21f/7EFNeWODu3xHXKKhZ1tCXZdw8/FabbXmzrybsk6jnR9/thtGw5DM/+tdBLfMjl08ot/679HL79FLPm01g1xZWWzs44t3RlUAcbhTbaVOnpjmtLZ7pOGU8TyxweK0a16ob5XdMa0MBMF3TKUlFxzJ5uXyqaQ0ZqMXeeKzWm+uNdLC94Bswbo46etQ7o1GDwl9UwTFZFy9IhPwMFZFhS//vP6OrckmGe3aimmcjDwp2pjraJNmBC6yktsM4BdUMnyr1m8JVhWZ/vP+uKc8theHarhqbi+6SuTd6sWzOlhTU5qGPoVA6diESSsaPuxK6Mr20NFtX5rOsYalnD04hXn7j2H77NU51aDP11IZ91zesK2NK1O/WVG75EduITbp8/yNaNWzl0+SFxhVdw6qjpG4B6JYxb10EnMxc1fbvXDF5fRA9Dx5aYGWqgoqKBjkNLyjlYUPQpu4b/5UdQdQiuC+bi2KglVo0+ok4fl6Ls1Qu9RhfTF0k6zFy3NfjGx3BxmSvDf/UhPv0Wf7oqjEF8iZzkJ1w/uoNN3ns5fSO4+HOshiGVnJ1xdm6Ik5kuavrmVKxgSvWeH1DfWpXkWMW8UYFrHLgRCjbN+fzrnrTsM40xLW3IibjLuVBTrIw1UcnJJl2pN4KGoT0O2rc5ePUxqo4D+P77T+nSyBnnxl0Z2LsOhs82//uuHSBvtT7n654t6TNtDC1tcoi4e47C+486DtSzCWfPWp9iui2+2O2DV3mcZUu7KcuY+mELnJ2dady1N62tAPK2Kcu2HVOWTeXDFs44Ozema+/WPPMT0ma1qGimTkaqQi8SY3s6T2mCnVoysYGv6L4RtIoLQVmY1Xbl46qmqAA7j98hXrcqPWePpE3Lj1j4oTOGyY+4errozbZvVIPwfT9x+wWzz0kO5+6lI/y10Zt9FwKJyV89FYNKVLHVIiLoHsU+u1QtFwcN0C+TwULrTFJVcrEzykWFLBIfXeXI9k1s2XcGv0dxxT7NV7PBeH7e8iffDyy+32lGdBDXTuzEa+MuTt2KKLyBpVbBCQfTWILuBBefAVZPpUOjNAZZZjG/RRz2mtoEPlYFUgnzO8Eur03sOnGNoOj/elhY5B+dHt8lpTX2sVBuGlGB17mtcCGV/ugOOdVGU3PIh1hoh/H4oCdxL78dC5Sl0bS8sQofD6qOAerYd1/HSM81dOoN6ZtHcehsDEaNP2fI919RIfIkAcWdq980nSYMm5w3LnFSC2tQK0vDYfljFOvk1U1qYQ0alenq4cH0UQq/yaTTkDadezMyf/oZI9pSLvUm+zb+ldc1EyDpIJt2XyPWrBnDJ3vgMdONYZ1qFM2jWKmc23mSe5r1Gfu7N3/+0A+D2/481ahM17nufNK8N+M8pvFBdUPUyjZkmIc7bnkDKgGI23mYS3E29Ji/nk2rvqRO7G0eZpel4YgFTOydxN5lG7kQY0KjwZOZNrgqsQ/CC6c17j0Oj2kfUN1QjbINhymM1QSIY+fhS8TZ9GD++k2s+rIOsbcfkl22ISMWTCTvpx5ziLt9H/W2nzHjq15UUX3A0TUr8x728S9K+L0v3n/dJdW6Nd1mrGWk5zr6De2FlUJyNGLxEq6F6VBl4CJGLJpBp66uaLCfi/t9yXJ0Y/yRIMaPr8gTn3BybNsyfNnvOGq5UqfvSPotzDt2h4xuilHUFU7+uopMoHznQbQa9QMjPNcx0tODVg7wcP8iztx7wbfTm1J7EBM98o67Dg6qYFSLge4eeEz6mPrqkaxbvgXfNGvafzqTCd1NiXz4bFb01e6xxvsc4XrV+WCCB+6jBuHSVAPowqcz85Y7tK4pKtjR5lsPPDy+oKcWnFyylhOhOtT+YALuoxqQ/DCk2AzeC0Vu5s99/mTadeazmR54eHzOwOaVXn3Cj7yLz90wFOLCQin37vEwxZQWI2fi6TmTUa0sibv0CxPctr0ii5Rv5wxWHQ9H13kQM2cOwol77Px+Bm/iZwOPfjuF1ZfisGw1ipmennjOHEWPZor9D0LwDbRl8LeeTGhbjmS/jXznqXAyrtAhv2vaTIbU0OOp3xG8fPPrTBszbc+nOCWfZd2iYgKdnGBOer7mPnhNuet3cjLcnM5L93Js51zaJfhyN8OYOiNWM//z/EZJN7mV3paxi2YypIYWIcfzf4Px9Fr2+0HNL7dx7IgXYyxv4BMJFTosZ9n01/vp+qSbt0hvO5ZFM4dQQyuE4z/lvU+n1+7Hj5p8ue0YR7zGYHnDh0gq0GH5Mr6N3cu1KFUcOgylMqmQpUHtjztirxrK9V2vcRfg6LdMWX2BSP2a9J2Q1xVw5sgeNCouafsq2Yk8uX2DgBjAbydPQvSxHryJxpPnY6Vyl9gkPcq2W0jlNs9civ9NbWk5ax39O5VHW9uOppPWMeSbrxRuyMLTX4ayfc991Jxc6TdvHSPnzcSlXctnuy7+G7StMNbPoGAEhOJDaF4lPciPG8GxxV6cF9Cx78w3np54errTv4YOT/1OsCNxIF+Naolp+Ck2rlXoU6nAd9mPbL+VgV37ccwc0wqz6HP8PmcF/g4DGdrKlszIYIVM+V3O3ApFo3oPhtWDuz9Nw3NfEBo1+jBhnieec90Y2Na56IbJ/82XZT9u51aGHe3HzWRMKzOiz/3OnBWK14zpPDz1Ozv+RvYQgLs/Mc1zL/eybGk9wgNPT0/mjh9AW6e8bOXdn6bhufceWbatGeHhiafnXMYPaEt+dd4YRO/RVEs6z8ZVCuvjOhk3lzJEnfJm5f1iTtbPSGX9tnOEa9Xgw0mD83oG7PPgp6OhaNccwPSZQ6ipdp89C92f+a3DnMdnWO4d/+rvu5xkwu/6cCcCQA1zxypYZT7g9u3nLzwX+JoSbvKUPz97hG+vRBIe65FuGMdnQ2NZoJrMfT8/Hr0iXahvY4GpkSlm5q/4FGVEE3TtVv5YQz2qOzqgGezPtWLu8QEQp88tjQRmfhBK//IQfMmULx6rAMHcuhbEexQXFnpvfubi7ZL/Mxch87mx87hypXgnadNk4o985fSI34fP46By9d+R/zMXVjcWMPZvDfAU/y4tern/yodmV5j11VJu/suxq6LqY5Yyo0kcW4YrPVBGvFLBz1wU/iTGf8DzP7/xpuT/zMXd7+g39f+f87+3fkKIt5ZmeVr0bI3pgwPsvFJs/rB0mDWgV4+KPD26mdPPPZ2m4GcuDBnopfev34R/l7zyhvKbduXKFeWiElG//t/pqCLEq6ma2OX91IdTY7qPnMjA2qYk3rvOCeWG4p2lVdaBao55XTR7ffEtXappEnHvDP7/dnBoYJO/3Pp0+mgyIxpYkB7kyyEJDoUQQryNsiLwPbaLIzfeouAQIOEOp3bu5VIxwaF4sRIPEIODS+CpEsUoX/7ZBxYL8U8Z9x6X91MfM7/EtZkNKZfX8p3ngcInj4p3X+1BE/PeY4/P6FOvDJFHljBj2bV/5emhz+jyKTM9PPDwmMjgNhXJvbWJud9vfeZ3z4QQQoi3Rk4a8U9jSX55L9GSl5FIzNNEuTb7m0q8i2n9+vVLJYsoXVuFEEIIIYQQ4uVKPIMomTwhhBBCCCGEeDuVeIBYWkojaymEEEIIIYQQ75L3JkAsrbGPQgghhBBCCPGuKPEAsbQyefIUUyGEEEIIIYR4uRIPEEsrkydjH4UQQgghhBDi5Uo8QJRMnhBCCCGEEEK8nUo8QJRMnhBCCCGEEEK8nUo8QCwtpTX2UQghhBBCCCHeFe9NgFhaYx+FEEIIIYQQ4l1R4gFiaWXyZOyjEEIIIYQQQrxciQeIpZXJk7GPQgghhBBCCPFyJR4gSiZPCCGEEEIIId5OJR4gSiZPCCGEEEIIId5OJR4glpaTJ08qFwkhhBBCCCGEUPDeBIjR0dHKRUIIIYQQQgghFJR4gFhambxWrVopFwkhhBBCCCGEUFDiAWJpZfLMzMyUi4QQQgghhBBCKCjxAFEyeUIIIYQQQgjxdirxAFEyeUIIIYQQQgjxdirxALG0lNbYRyGEEEIIIYR4V7w3AWJpjX18Fc0Gc6k+ZjHmVhrKVe8hdRwGzGTlyun0tVKue5tp4DR8Hr+snEqvtzpBbkHtH/2YcewhM449ZOqGn7FVbiKEEEIIId5rJR4gllYm720d+6hmUAYdQ1O0jHSVq/5j9Gg35Ve8N8ykl+nHLNjkxdIxdZTaqGFS1hQTIzMsLJSq3mqaWJU1xdDQlDJllOv+T2VGsMjbi6VjGtN68i95+025zd8WzR3PT1jt9gVH/ZOVKwuZTD7HjL17UH53Xq0iQ+evw3vFOGo2ncCqzWuZ3a8o0jdtOpJZK9ezydubzRvXsGyaK1U0n5mBeGM0MK7Zg8+mejB/6a+sWbeaWQrvxX9OxaHMX+fNinE1aTphFZvXzua/vLlCCCHEv6nEA8TSyuSV+thHdX1sazajToVni1OPjebKvKE89o9/tuI/KjcjnZT0EGITlWsA0rm6bBwDB33JyuvKdW+zZI7MH82AwRP57a5y3T+RS0ZaBH7RCcoV/6ds0h9fINTnMkkZOcqVb0xWehoZEVHEpysUmnbj8+HtKJ92Fa/57vywKwiN6n0ZP645//VbIyXPlPYTf2TFtAHUs9Ak6eFlTu7dzIZDEcoN/2OySE/LICIqHsVDT7WCM02crNBVUygUQgghxAup2NnZ5SoX/ptatWpVKlnEvn37sm3bNuXif526vi2OdWtTw94cndwE7pzayrmHoNd1AzXrFQStsYR6DeTRPYAKmA32pIJhLOmG5dCOu0VUeiUsrLN5enwqgWcDUDEfSvl+vbEw0yY3MYCQW6qUqxZDwFJ3io27FGm3osm8BTStVhY9rfz7A2FH+eWjEYT338vkEdXR4gnnl93CbkQ7rHWyeXptGesmLyUxB4x7rqHn0KbYmGihlp1B7IOjHJw6hoBaY/ixnyNaysvjMcemzWNrrA6tJy9htPUNFky5S6fFIyjns4BxK67nZxcXM6qOUd4k2eGcXDCOFdcprBthl0ykriXmGXfxCbOhTlVNQo954vbzdfTaTWHxqDoYkU16UhQBh35mwaZbeReJKqZ0+Go6Axtao0cqj8+fJKamCxp7BzNzB6BiRJORk/m4tQMmGipkxgdxeu13rDqb9OxmFEevHVMWj6JgtZ9Zb712TFk8Auug80RXbIKToSqZ8UGc+HUmv15KBw1HBk3/ii5VTFDPjuXmgZsYdanMg4LpTT9mwcp2pGwazLIyi/ipTRIbB89kh9IqFEfng118+lktDMgmPTGa+7snsmP1abIKW1hQ+8cjdC17jvWDR/O4oLj8Skau6cJziZfUm+zu2o0w12nMaG2tXAupN9k0YSWnqMCgebNon7WLqWt1+dLdhYxdU5m+NRTLvrOY19eQi/MmsMovG9Cg5dfLGVP1MWu+nsO97vNx72aP9jMzjuLM7DEs9WvO17+Mo8LN2YxZ6gc2HzBrVj/snmxh6vSthOZnJ78a1JxKZrqo52YQ9+gyWxcv51BoNjT/ml/GNcCYHDISIwk48Qc/rr+a91lp/jW/jKvAzdljWOqXn4kqXG8dhs53xyVjV95yNBoxzvNLmqteYPaYpfgBGvbd+XJcH+pa6aGem0qE316WLfQmIOOZDXneM8sJRaPRODy/bI7qhfxtrNCfWTN6U01fFcghI+4JPvuW8+OOB2QDmLZm7JQhNLY1QINUIm4fYe2P67maCBpNvmLxmErc/92DJcei8toXLThvm3J8uKVZm3q2OpAawY1dnizY9oDs/Ppu9trkZqUSH3KtcD82//oXxtZK5tSyadxotZiRhoeYuiKLkXMG4BC2lanTtxL1kv3R/OtfGFfhZuG+qzh0Pu4uGeyaOp2tOq/YHxr2dP9yHH3qWqGnrpK/LQXHB1BhEPNmtSdr11TW6n5ZNN9QUHVsy6DG5VHLiiM08A43b9wlNOXZvSKEEEKIIiWeQSz1TF6JUEHHuiYtuw1kkGsbnIxSeHBpP15/5gWHACmnZnFj9SRunQkiU3lyQJUgHm67SHoZC7LOLCE0Th89M2ugCmU798VSL4LHO2Zw63QMxnUq87ojGG2++p42Tuo8ObSANW5DWe02lNUzpxOZBex2Y93K80RlG1KtbzXC/hjNX2djMK77AfUtgcar6T+mNWZxJ9n9zVA2b75Jpm1L6vepieqFzSxZtIhFz73+4FA8QKpSJiyXjLS4/L9TOLdmPu7u7iw8/UShTRFVrSgOzThGmKEt6hdnceyJFublygOQcm4N893dcZ/9K7v9UrDv+RVftc2bzqDbFwxsYk7itQ3Mn/snATYtqF0Q0AEG3b5kVDtLnp7+nfmzf+VwuCmtho2l4/OR7vNSzrFmvjvu7u58t/VWMcG5KsZV7EjetQiPxTsJyLGnzYCPqIo6VUeOpntVDYIPLWXWihNkN26MneKkSlnW3Ix0UhTrXyLtwES83Iayesp8Tt9Mo3z/ZXTtotyqGE++Y4fbULzOREBaAMcKjo9vJnAbiDq4ppj3dxGLlm7hMgAPCY5JU5hhFulJqQBUcrBELy6Yy7cLLswzCQiKIEXXFDvz/KLU+xz4MW9/unv5UnzeVINGfVpSSb8gSMgLtiZ/2p7y6T5sXuDOIq+rJJrXoW0np7yA88o6Fri74z73Z3b7JmHTaTRfdDRRmOfrsenVFWdzdYUSJz76oj91NO6xe/kcFnn5kFGlB6M/rs7fS1bZ0KurM8/MOsaf4+sX4u7uztyf9nA73YKG3QbR3gTAkE6fDqK5RSJXvOazaEcgGtW6MXJ0Xja2doNKmCY8IrTCFyxbvwnvzRv5ZdZgaiqkajVtKmN05w/mzv2N05GGOHcZQmczgEfsWjEHd3d3fthwkmDt+gx1+5jKwJV1u/FLN8HSzrhoRpUqY6MVwrnth4j4F/eHYduB9GhgQsTxn5lT3PHxMJhnD7108g89cvyPsn7jLk7fjkXHrh4dXD+kT4cmOFlK/2YhhBCiOCUeIJaWks1aalC5VgMq6kVzY/8WNu8+xgX/MFIVblrnJgaQGupLempx4SHkJEeTkZFNbmYiGfEp5BbkeY0bYVhWlfjrPxPqe5nkKz8QElAQaP09OU99CfM5Rei9UHIAEu4SFpJMTq4BmffcObjlMDcP3eZpjjFlmphRtVs9ymYGcHryKHwvneLu6j6s7tMIr19ukJMSycOgIIKee4WSkN+b8elvExk4bgXXk48w75MPmfjbg/w1ySUlPBB/f3+CXnBnPycpjtCkbHJykogLTSJboYdkbko494NjycwKw+/wEfxj9LGuVgfQoZ6TDTqx19m6cBdX/Q7x229XCC+c0pB29RzQDDqK56pDXPU7wh8/XSVMrxyVnIrm/0K5KYQH+uPv709gTEbePnyGCjy+wNJdV7l1biNLTtwn17IKze0NaWJvSXbQUTx/P8Otc14sP3Lv2QAw+QjzPsnLcj79bSL9h8/jkGL9S+QmBhBxP5yc9Ds83LGVoDh9LGq3V272vKwnRPucIjo5G3IzSPY5RajPKUL97pIOZMeHFvP+BhEUHEX+tThnFo7i4+lbCb2/jslDRzLnQGzR/HOzyVB4e8MjEslU10K74Do9N4uE4Lz96R+VXsz+BGx60cUhiXtPiqKBmu3qYKPykGPLF7Pzqj+Xdv7IN59+ytTf/UgDSIsg8EEMmenh+B46iX+MPjZVbRRmqoq2lSOOjo442uihphB7FtJoRJ+m2jwKVOgKXrMF1S2TubF5MV6nfbm0czl7/FMpY+vI3xlCq9GoD021H6E4axJ8OX78Kv7+/vicP0NAdBoZ8ZE8TgAMm1O/ohFxN7fx886rXNq0hF23kzAt74wDoK2liZpRVeqXvYPXwu/57dQTtKp24MM+eTdUANQTA9j++zF8fQ6yYvNVonTtcK5vAmQS9+gBYcnZJD44z4FLD8k0q0BtK0iLCCMhTQUds4qU1VJFRd2Q8mW1UM1OJSY8gezX2R+q2lg55u1rGz01it/Vz++PsuZGaKWF4HPgGL7FHh9nWDjqY6ZvDeX+uskMHTkHxUOP9GjuXz3Ozs3eHLwWjoaNI41qVlJoIIQQQogC702AWLJjHzMJuHIKvyh9nDr2Z/AH3WnlXAHTN3HDWlUdVLLJTi94yEgS2RlFnQdfJWTxNxz3TcOi/SRG/OHD1N3n6TOiJYrJC0gk+qZfXte0M8NY1b4mW7dFo2+oi2p0IHcVdmVWahK5AC5j+XHlSlY+95pCv7+frHl9KqZ0GL+Etb97MmPSJCZNGEQt04JKVdRVVchNTy3M7mVFp1HU+08DU31dNCr2ZKW3N97e3mxe3A7F0OGfySYm4n7heKjMqCRSVDTRNlZBTVWV3PRkCnZldmJ6sZnkv03VHue5l/h6+z6Gzl7FwBmfUVUh4fNPWLpOK+b9XcnKHz6npXLj4qiooamQSrK0MEAjK520V3XHLKROk37N0b19nCCFaYwM9dBIeMK1oKKyzLS0/K6VprQe68kfa35k+qRJTJo0gDpllPNZZag/wgMPDw88xrTBrpjssWWfblR6epJLcQo98o0M0dMwof7YtXh7e+Pt/Sef1VVIT78WS/p0q8TTk5dQnHWe+oxb7oX3unl0NrjN1lVruZUNlDXDQAOy0uLybyokkJCejYqGNkYFfXRTH3DkFy9O+/pwcMV2fGO1KFvBkYKPYsrTx4QVBOuxcSRnqqOlr4OG44fMXLWWn+ZOZdKkSXzR3gGd/GZwg127rqHSdCwDaxmiU7ET4wdWJPr0Ho6Evub+KFOfER55+3pMG7tiuqQXvz8e3X1CvIYNzp1cqOXoiGNZrb/15aWuZ0P1ph3pO+RDOtcxJTXoOieuBSo3E0IIIURpBIglm8krUrJPMc0lLSqQK8e247VpLxceJGPq1IZeHw6k1Ru5aa2GmpZe/t/6qGk+G969VNpJzn/djCVdauD52RTOhxlR3XUmjV8j5RETHU+2WWWcbIo5bF7ZxfRfYtKDdg0NCNw4iqHDhjHsk++5EPVsExUtHQzy/1Y306YoTk/nSWwiWSFHmO7qimvBa2DB+Md/Sg1Ti4qFF8EaZfXRJZec/HheRUuPgg7XagZar91N+KVs3KjXQIegXxuwoLsTP/T7Et83dG/k1V1MXywk9ClpBlbUrlwQnGlgb1sG7ZQYHkUqNX4RAxd62j9hr9f9vJsS+aKi40g3tKVBNeXAD6jQmY4NjAja/DXDhw1j2DBPzkYo31CJ4szs/Pd+yh4eKHZVBFCvSPcmalz1PvBst8aoaOLSE7m57vOiY8fVNS+DqtjuJdQrdqeJ2lW8DxTXofYKS78YiOvQr1gdUI4+M+cyonLechMzQV3bOP8BP4YYaqmRm5lGfBqkpWcojTvMk52RXHizQreMLeUKdpeJMXoaueRk59CgS0uqpJ9j4fCPGTZsGF9u9qfoebcN6NunDqn7JrD0chwpd735aultTFt0o53Va+6PqDPMzi+fsudBXoZXwYv2R+bFpXw97xDxVT9ggrsHHgNrYfhMixdTdWzPoP4dqG+rxdObJ9jptZldJ67z4Olr35kQQggh3ivFXOn/u0o2k1ektMY+5qZFEXjlGNu9vNh95g5RaQBaaJjXQseqFlo6GoAqaka10LGqhsarooSYsyRE5mBQczjlajVAr/5XlKtQEP68mn6rKTTs2R4r5/oYmhmjrgJkpJGWCVrlm2Jlo4eqigoaZg2xql6ZgufYADw4dJ1I9Sq0WriT1r3bY+XcEvs+n1BeD3iNLqYvpKKLZaW8bmcOumqAGjoWjjhWs6fM8ymGYqigoVcWLRUDavbph71OKmo65ljpJ3Px5mNSjWvS86se1KvZgeFDalH0SxRJnL4YQKJVa8bPHEGHeo44Vm9Ml66NCgM3ABXTjkxauop5w//uDz/kkmvdmPGuzane9EO+bF0RtbiH3PCL58z9UNTsWzJ2cHOqNx3ImBZ2byZABEAFdUM71FUtKD9sLFY66ajqOWBceJikkZqWhbpZbep82A2rRsOp3rIob5oRHk+KtgM1p3xKBeeW2LR2xcb89bqYvsjDk9d4mGlLq1Fj6VnPkYYDvuGjhmbE3TnBKcWugC9RtnZtVK7t4LTSYM+7p3wJybGj7ZfujO5aD0dHR5zbtKNB4ZuohqaeHmpoU/WDTlTSzUVV2wJrw2ICymLoVqxLudBD/BWgFHbdPYVviDpOH0xlYv8W1HJ0xLlNN9pVe93nsupSsW45Qg/9hfKsNZyHMtFtKB3rOeJYzYkq5QxQV9dCRwtIOMOV+/EY1+jL6J71aDjgS3o46RMT7EMQcONyIDF6jnT7bCAtajnTcUxvahkn8PiWf2E35iy9SvQe3ZV6zh0Z078eZTPDuXctv/O1mhbGRmpolGvFh40tIEsdw3JmGFqUQUcdcrOUVlZNB1NLQ9T+xf2hbdGEIYM74mz2lP1TBuK69DKv3bE+NRTf4zvx2ryLE9cfIHGhEEII8XIlHiB27txZuej9kJtGVOB1bocA1MbigwXUHrmA6s0d0MAIiy4LqD3SnXJKP4PxvACi9m8jMt0Gu16zqN6iLKmhr32pRMXug2j/5a+M9FzHyNkTqVM2nls7vscnBmpMWMPIz5tQVk2fyv1XMvK7hVRVjD0vjGbLyuOEaVah2di8eQz57CMqlf+HoY1uU4ZNzut29nULa1ArS8PhHni4j2fAq8YCxu7iyKU4bHvMZ/2mVYyrE8Pth9mUbTiCBRN7kbhnOV4XYjBtNJjJUwdRNeYBig/7Tz7iiaf3DVJtXRg+2QMPdzcGtXWmnEIbNdNylDExokyZwr6rrymHuNv3UW/7GdO/6kkV1QccXbOSc2Rxd/XP7A6ASt3GMWNMa7TDHr/2Q2heKsSTq5eTsHHdydTDZ+hVJ5wHwTmYN53CqDnj8xvFc2/ZOm4llKH2yOWMnDOZNp2KPpfJ3vM5cz0es9aTGeq5juHfTqGOc2H1/ydkC4tXHyFYux4DJ3swoYcDmXf2sPrnM6+93blPfdm9JeD57Nj9DSz8+TD3c+xoNXQyHh4eTB3dk6YO2vBwPwcvR2PVdTYbNv/O1/USuBWcQpn6o/ju697PP7G1OGlBnNl8opiHEN1nw8KfORKsRY2eX/CthwdTP+1F02qvm9uCtKAzbD7x/JzNy5WlnGM7PprkgcfUT+lYIZM7e9byx02ABA6s+pMzEQbUHziZib0qPbMvM8+v48+j91F17MnYb6cyrIkRYcdXs2Rv0c25jMd3iC7fjwlTRtDCPAGfnb/gFQyX953irmodRq3wYv33/TB5dJdozYp0muzBlK+6U1MrlvBHCuebwNsEJZSjSe8OWPyL+6P+0GG0L5+J/77f2PLguSPgpXIe3uL6g6cKXcuFEEII8TIl/jMXpfVzE6W13H9fOUwHLKOSyVVu/TRPoTuYKI5204n8+KUTj34bzrzXferLK6lT9bNFeDRLYOuIGWxNL/qZi6Kf8ngZFSwGz8WziwbHpk2k8Nk9Qrxx+T9zUfDTHcrVQgghhHjvlXgGsbTs379fueidpWJQBR2rWujYdcCs0zfYOGiT/PDUa2di3iuqJpR3dMTRsTqNu49k4sDamCbe49obGAqramJP424fMnz8bL5uWY7kgGucUPyF7pdQ0bWkkqMjjo41cXH9ivEu9uSG+nNGgkMhhBBCCFGK3psAMSXlvxM+6bacQe2RC6j90TgqOJmQfHEJAYfOPvPgDpHPpA9jPTzw8HDnS9dm2CRfZu13nhx8zUDuZUz6jMFtSDda19An/NRa5szfUfhU0lfRbTqMyR4eeHh8y8huNdB9uJsfZv7GXeWGQgghhBBClKAS72Kqq6tbKsFa586d/1NZRCGEEEIIIYR400o8g1gawSH5gakQQgghhBBCiBcr8QDxvX2KqRBCCCGEEEK85Uo8QJRMnhBCCCGEEEK8nUo8QCwtMv5QCCGEEEIIIV7uvQkQS2vsoxBCCCGEEEK8K0o8QCytTJ6MfRRCCCGEEEKIlyvxALG0Mnky9lEIIYQQQgghXq7EA0TJ5AkhhBBCCCHE26nEA0TJ5AkhhBBCCCHE26nEA8TSsm3bNuUiIYQQQgghhBAK3psAUQghhBBCCCHEy5V4gFhamby+ffsqFwkhhBBCCCGEUFDiAaIQQgghhBBCiLdTiQeIkskTQgghhBBCiLdTiQeIQgghhBBCCCHeTu9NgFhaYx+FEEIIIYQQ4l3x3gSIQgghhBBCCCFersQDxNLK5MnYRyGEEEIIIYR4uRIPEIV44wxccV85l+HVAK1GjF20nEkdlRsJIf5LtAzKYGqgqVwshBBCiH+oxANEyeSJN08VE5t6tOrXiYYDBuDibIlRrnKb940uPRZu54iXO82Uq4R41+nXoHWv7jSyV1euEUIIIcQ/VOIBovhn1CqNYeX2/Rw+doxjx45xaI8Xq6b1oYJyw/dJ4jZWb71MVu0xTO9jSfi+Fcw+pNxIvDYVfSp0Hcu8ZatYt2U3e/ZtxP1djzJVzWk86Ft+WPU7Xtt3s3/fCj5WbvOfooJ+ha6MnbeMVeu2sHvPPja+829iARXKVq+MdUYgt3xTlCuFEEII8Q+p2NnZlWiupW/fvqU2DrFUqetj61gbs8SzXH+oXKnEqgaNzBLw939MQqbS26PhRO/h9Ui96Ee4enlaDnKlY82yJF9cwtBpe0l7trV4b+nSY+GfjLPxwX2gB2eVq19Ewxm3n76jSwUVYh4/5OGDAEKCfNi89QQR7+jBpVKmD9+v+owGhsmEPnrIw8AHPLp3gs1/3SBeufF/ggbObj/xXZcKqMQ85uHDBwSEBOGzeSsn3pk3UR1dm6rUNU/jzLX7z1aplKdF/7aUub+LHZejn60rhmoFZxrpRnLjbigp2cq1QgghhFAmAeK/TF3fFse6talhb45ObgJ3Tm3l3MOG2IyZRZno08SbNcKijAa5yY95sm8qT/yjwb45/VtVQTcnkfCgu9zy9edxQibFv1HatJn9B9MaxPPXx1PQnreFbuWV20BOxMm8QEGlDL09fuTjRlYYaEBa1G12L5zET1defeFYxm0NWxRnnpNGpM+ffDPxTxKV6wrbRHDSfSAeZzWo9dlipveoQhktNTLjH3Bh/Wzc/3oIuj1Y+Oc4bO+fIapiM6obqZEZH8SxpV8w/3gaoEKZ3h78+HEjrPJWmtu7FzLppyukUQa3NVvomLKOjmPWgnYbZv8xjSY5p18jMMoLor6qZ/RscaY/6zqOYa1ifU46SVH32P9Dwb7KD8Bs73MmqiLNqhuhlhlP0LGlfDH/OGnP7K8sUmMec2Vj/vYC5K/3M7usYF9df9X+UJg2K5WYx1fYONudvx4Cut2Z+8c4GhtEcfeJDpUNonig5oCDZhA7vh3FshsKy3uOCpaf/8zaLtnsmjielXeePyY0anzEnEn9qGujh1pOGpE+3sz8di130kCn0xzWTmhKWTWALFIi7nPsl/F4Hn9+Ps97yfEBoFGDj+ZMoo+zFQYaqmSlRHBn7w/5x8DLjg9tXOauZ6rDXRaO/paDz0SExQXRCsfTF7vps+AXPneMZMsXn/HzQw3qfruWBS2yODTpIxa8dF8CZdxYs6UbeW9TDI+vbGS2+188LO6zVCD/GFjeaA1bOqZz7rwBdZqXQ4eiz9rD/M+LjY87Az3OomIxmp/W9sc+KO8zoGL5OT+v7UL2romMX3nnmZtG2i5zWT+tJo9WdWfClrwyrWazWTfLmZBVH/Okyz84f+j2YOGfX6H4cXr2uH0N6rrYVK1H7ZoOWOhC8r0zbD79bICoX6MjvZ1zufbXIW6lAGSwc2Q4lo/KkGgdS2WDXLIS9dlz0JgvQ1VQdWzLoMblUcuKIzTwDjdv3CVUIkUhhBDihdSMjIxmKhf+m/z9/ZWLSkTfvn1LcNkq6FjXpGmrtrRsWBGT7Kc89DvPkROXeBALYI1hwzaYmGmSdHE5QedCwL4x5SpYEn/tNBkxj7h16yGxObpYVKhKjdq1qFzOAPX0p0QmZOZ1H7NxwsnBGktLMzJTrKjbrCo6Cb+xZKMPF44f5OBZLWq0sSZy99fM+fkgB4+ewC86GZ0B85jTy4a4C3/iuT4Qy0ataNW8IuHex1C6T/8c3Sa9cLWPZvfXc/j54HHCLBrRpLYDhne3cfj4LXwuHOfgwbNo1WiDdeRuvp7zMwcPHuWEXzTpVSezwK0BWoG7WLrwKDl1WtOqZW30juzmcnpVOvRtTHlzNUK2evLjvihs6zelUQ1zfLefIcJgAPPm9MIm7gJ/eq4n0LIRrVo1p2K4N8fu69KklyuVMm+wYd8NLEZM5vOGZqglB3Ni20keK2/EMzSo2qEvDTV9+fnbH9h48CBntWrQxi6dGxv24UMWT/x9uXz6CEfvxGNs34j2XWqRtOkwd/KnbVzeHLWQrXj+uI8o2/o0bVQDc9/tnImA9IC8fXL40hNUy1WnWefmWFzZyflogLz1to8u2E8HC/dVssor9gfpBNzy4cLxw1x6okq56s3o3NyCKzvPkzFgLJ83MeDBvj8Js21GBf0oTq7zRa9RHSpo32XbqSfKO0GBMYNGjMQp4SrXqo1kzuSxfPJRf9pVTuD88QCS1KszeeFkmmj6s3XFIrYHGFPLpSPNLfzYcTYCcjRJD9iG97bDXArRpmLd+tSvasrlHed4VZ5HvfpLjo8kXXrMX86nzhoE7lnO92uukOlQl8Y1ypFw9Aj+6i85PkIaMXxEZ3QDz5HeayoeX33K8EE9aWTsz95LMVTt0JdGhuEKx4rC8bT3PP5nU6neowvN6+hwKawDUz+pRvTuiUzeFae8Cc9LD+CWzwWOH77EE9VyVG/WmeYWV9h5Prrw2HjR5yWnQS9cq9mgn3KOn77/levaNWnauAGVM7dz4G5FOvRthGH4CbadjKLNN270stcjN/oGG/b5YDxoBCOdErh6rRoj50xm7Ccf0b9dZRLOH+e2fzhV2/egdplMth+4SRbqVPtoOH0tgtnx7S523PoH5w+NqnTo2xBN35/59oeNHL4Oji0aUNM8gz/3+yrvnWdplaN601a0bdWYymVyiQm+ycWjxzl//+mz7VTKUqdZfQxCL3H8fkG0n83AuklUMFLl7gUzpvnpUMM+jsYWmpz31+BJ1AN8/R+TqGKItX01ajjXxMFcD5XkSKKSJFAUQgghlJX4GERdXV3lov8gDSrXakBFvWhu7N/C5t3HuOAfRqrStUhO1GUizp8h9cF6npzzJ9OkCka2+ZWZsQTfOM3eLZvZe/ERORZVqF+rMnl7TweXL7/D09MTT09PFn7ZmLKooqaWw9NAH3x8fPDxTyILyIzN+//GnQjSMKRXs0roxPuxefp6Th1dxbc7/Ekzsqdhw2dW7SUyifXxwcfnCieDY8nOTiLmEeQ8Dcxbro8/SXkLzvv/xh0i0tSp2rsG1jkPOTZ7GQeu/MXc+WcJ07SlWvuC+aqgEnIG9/VnuHZ0FTMOBZJj6UiHamDYqxmVdOLx2zyd9aeOsurbHfinGWGvvNLarfmihS737/3NjoPZqTzxydtP/klZChW5JIX4ExidQdajK+zYc5MYPRtqKQzlUlEJ4Yz7es5cO8qqGYcIzLHEsUM1IG+f+D5OIif2Noe9L/I424qKjYumBYX9VLivCipevD8gh6eBvjxOyiH29mG8Lz4m26oijQGNsvroZgVzYfFejj6MIeuJD7/u+IPb4WqUKef0zKKfp4aelgbqtg1pkLiT+ZO/w/t2KuWafMTYDqBetTc1yiVwbb0bvxy4xvEN89jpn4pl+ToAZAUdYOcBH3x8rnHy8ElCErJJiQ7mVT2q4RXHh2Ff2jsaEHftd8YuO4DPlZ0sHjOYXkMm81fMK44PtTJoa6pgWLMp1ld/ZfI3yzkRoUO1bl/wuWXe0lUtWjH72BH2rZtOG22lVUvZjcfaq6RX6sHi2a0wuLuFOctevUUA5Dwl0PcxSTmx3D7szcXH2VjlHwAv/7zkT5+bwM2tizjgc4W/5v/MlWhdKtbv/swiVCw+wrVqFHcV7oSo6WmhoW5LwwaJ7Jw/me+8b5Nargkfje0AWXfZfjMUnarNGagNqJjTsaIFKfevsJs3c/7ITn2Cj48P1y/fIDIph+TEiKLKF1CpXItGlQ2J8zvAlk27OHr+Nk+KyfKp2FXD3iSGoDuPlKvICNNn2m11TgVrM+GGHtnmKXxomF+ZHs39q8fZudmbg9fC0bBxpFHNSkpzEEIIIQSlESB27txZueg/KJOAK6fwi9LHqWN/Bn/QnVbOFTBVeiJ7Zqx/YfevrJgEstQ0UdPI+19Nx5JqDdvRa9AgujcqR/ZjP05fuUveIxlS2PV1b1xcXHBxcaHD2P+1d+fhUVV5Gse/tSWVSshCgAREICwhhC2yK8oSUME2yKJgi9vYPUq7dbs7oCMSlxbpjKNoq/Rou2J0EFARRYwExHYJKEgghM2ALCEbISGVSlJV80eKEAoI6Wm5VZj38zw8Tzj3VNXl1klR7/3dc24W+/HgPvH7lB8bbSMc4HJytP5RV15NrSmEsBi/rqdi68X1WVlkZX3G/OFu/rHgIV444N/JXwjdohzgdVHp61t3oIoaLNhbtfH18VB6YHPD8ajZX0GVKQRHrC/04MJ5bKeprjURctxOm4i/6Wp6Fa4g63Cj5n+BKXYSc976iCWvzCM9PZ3Zvz+P1n59PKUH2Hxsp6moMhHiiAVbP/7w/GI+zXyOx9LTSZ95MV3+qRX5mzge/f7A84s/JfO5x0hPT2fmxV048ald5JVVgaeWam81dR7/7afmKf6W+Y8vqg+9s1dTQBQd+ycR0i0KhzmaIffUL5CUlfUht5139Bu4T/QtvPhpFisXPkjP0mU8N+fdZsyLPc34sLUlwuFmf96yYw/xOnH6nrg546Nu+zLuffkTfsh5n6cXbqTM1p5uF9Vv8xRm85/TXmNHzAhuvKNHw2OOqvownfdy3ThCivjuzf9pRuDFd8ns8yz+NJPnHksnPX0mF/9zAwDcxexa5fvZlUdZlYkQe3ijDiGMvnMkjpx32eH//nqK+Xb+4yz6cj2fvzib1QUQ1bE/SdSx+dV/sNPcjfNvioeoNBI71LJ7w+JmvE/N+fwwEzcynaysLFYuvIVzfl7Ck81YMcq7bR2rfjiAPekSpl43lQmjBtA11v94RdC/dzesP28j9yQl6cOHbA3vzaZKK26rhwhL/d+t4R3pfcGlTLnuGsaf1xrnzu9ZtX5744eLiIiIj+EBMVCqqoxc7c5LddF2crIWs/CdZXy96witk0cz8ZrfMrLRSWtbTC+OFiysrSOxej14vUDCCKZefRnDukVQkb+WZZnvsOTz79hW6DzJPEQb/Sb1Iq5mD3mf+W/zV0tRZRWEhhHta7FG2bF5a3CW+XU9ldotvJ6aSmrqWKY/U0jPWxfw9CT/Tv5q2FFeBaZQInxVG2u8gxDcVFcc/aZnpnV8csPxCGnfCofXi7sWaosqqSKUsGM7jd3mpabxTlt6cM8oC9nPvU/jGuC/Iubay7kgcgevX3UZaWlpTHpwLQf9+phbx5N8bKdp5fDiddcSNnY6YxMryZ45icvT0kibnkn+6b+BN3Kq4xHG2OljSazMZuaky0lLS2N6Zn7TX+5NdqzN+k13c8RV698IeKl1HsK5rojD3iNsXHBZw8mJ1NTU+rmfRx16iRmXpjJ26j0srxvJf7z+NKcdHqcbH9UFlB620D55YsPxaKzJ8eEuobrG7wEA3lpqG30keIs+ZlexiRDHiWdK7KMfYFJvC1U17Rh6/S3NWzE4bCzTxyZSmT2TSZenkZY2ncx/bgCApQ0Jo3w/hyYR4wBPo7NApshxTO+6m3efzW1oA3AfcXHSd7G2Pth5D7zNul0mOqVMpue080jw7CRnYXP2rTmfHx4Ksx8mNTWVMZfdyWr7OJ74693U19Sb4Cpm5/ovWPL2Qj5au52K6CRGXHEN147u2dDF1LY3CfFOfsrL9Z0oO15kdG3De9Mnog6L14TbC+ZeFzN92iUMOjeUkk2rWLowkw9Wfc+ukpMNDBEREWnW18Zfg+XLl/s3GcJbXcT2nCwWL1zIh1/mUdToe5g5diDxI8fhSLiOcy7oRWhFARV7AVcReV8uI/OdJXz+3TYKnUdjoYnYSXN47c3nuG/KhaQMGM30h19g9qg4Dv2wlFdOW8k7zJK123FG9WVa+nWMGDODxyb2wl6+i2+/9e97KjZiUlJISTmPwf1bYzc5aNf9dF//6ti6eBN7zV1IffgOxg2azMwHhtP+uFDrxdNhOI/dPI4BY2Yw55LuWHz7dXjJWrY7o+g7LZ3rRoxhxmMT6WUvZ1ejnbYlDiFh52IWNK+803wmGxHt7ZgiB3Lj77rhqLIQ1qELR9fh8Ho6MPyxmxk3YAwz5lxCd0uj/TLZsMeEgjme8XcOJc4Ltugk4k6Wck5w6uMBYLLZqX/q8dw5NA4vNqKT4jAXVVJl7cywP03i933iscSncPPEG0iOd1Oyf7P/i/gpZ+nGAjwdR3DPrClcOGAMM2aPoLN7P/lrDuAt/ID1u6z0veYlnrx5HCkpKQyacD1T+gGYaDt9NnMfuo5xKSmk9BtAj1g7ppBQIvxf5gSnGR9HlrNqazmRA3/HS0/eXP/8A0Zz1WX9gNOMD9c6vthRSnjfKWTcPI6UQZO577f9iD6yi/WfH9sDU9vLSGjjpabK70yJI41Hbz+f8O0fcPe8f3CkxyQeuqNZEREwYbPHEIqZ+PF3MrR+AJDUvAEApgiSr5zFlAsHMfmBWxjUtoY9Db8wZtqd1x/vVy+yzC/blS/dSIGnIyPumcWUCwcwZsZsRnR2sz9/DfUfEYd4e9UWahOGc8/Qjpj2bmF5c/JhMz8/LGHnkJKSQsqAIXRsZcPa5hz6Nmy1kXLXy7z/9lNM850MOJ6L4p3r+WLJ2yz8YDWbDzp97VYSkhOIKd3JSa4uBcAWd4S5/WoZ27mav/Q/QkiJnWUVgHMfG79YysLMD1j1/S6UC0VERJpmeEA0tpJ3TMDnPnqrKdr+PZt/Ptbk2p2HJ+kW+l53DXH2/ez5NINDTmDfFr7fVkhDLmzg5fC27exxxZM6Yw4Z8x7m3y6IpWjtC9z7YPNucVGRmc4ra0uIGnIDs2ddSfe6zSz6czqnvwjMx9adtIwMMjLmMWtqEqEHN7DivTz/Xieoy53H04u24u46gfvn3s7wVvtY8/ITjS5P9VKem4/50ruYO2sqPc0/8dnzvv2qyCT9lbWURA3hhtmzuLJ7HZsX/fn4ex3W7CTrmeYdg+Yqe/MjvirtyKQXPubz9x5iWMmP7HS3YcgfXuIJ3030vOW55Jsv5a65s5ja08xPn9Xfg9G58i1WbrUx+L7FZK14hRuiN7Cp2Eb3CfN55oHm3I/uVMfDycq3VrLVNpj7Fmex4pUbiN6wiWJbdybMf4Zb961gY2koieOuoou3GtwOBl+bSifPz6z78HRnAbwcWPAsb+eUET/qNubMm8Xkri5+eP2R+hU76/J49t6n+WSfg5Sr7icjI4O5f5rGiD4AoSS1a0/CsGu5NyODeQ/fyMCIfaxZkMEb/i9zEk2Pjyo+fOgR3sgpI3rAVO7PyKgf+78ZXH/Jb5Pjo5ov5v6V5bts9J56Pxlzb+X8iL2seGYW7/oGizluJHMyb6Bb2Wr+/ty2YztlimXyozcyMHQbHz71EvlfzOGpVSV0ufxR7u9/rNtJOVfy1sqt2Abfx+KsFbxyQzQbNhgbW5YAAAsfSURBVBVj6z6B+c88QHNGAHW7+XFvN258ZC63j2hD+fo3eKLR9dye0nW8e5L5kN4DC3j27RzK4kdx25x5zJrcFdcPr/NIo2VXKz7IIq+yPd27hLD7h//1BcfTO/3nh5k2Q2bUz4+eexsXta1i15cf8WHDdhvnxscSGdOG9kfLkKfgKt7J+lxfGozoQ1KClZ+2rD/lgkclBXbC+xfytyuK6E4ES1eF82EdeH7K5ftdJSgXioiINI/ht7kIlOC6vYbvNhc/P8WGpV/4b2x5/JbtPzuc7BYJv5Bf5Hicwf2TMy727ld579Iq3+1WzgQrSX98kYzxHj668eZmzCMOJBNth04krUsRKzO/5MQCou82F1s6MnSt4ec8RUREfnUM/9804JU8EZEWyhybyOirb2XmU39jblonDq19LcjDIfVXTmxezZKPvz1JOBQREZFfmuEBsWWsYioiEnzsw/+dO266nGHdLWxbNJOb0s+O2rKrooTSCl0kKiIiYgTDLzEN1KWe48ePD9hCNSIiIiIiImcDwyuIgaJwKCIiIiIi0jTDA2KLXcVUREREREQkyBkeEANVydPcRxERERERkaYZHhBVyRMREREREQlOhgdEVfJERERERESCk+EBMVCKi4v9m0RERERERKSRFhMQs7Oz/ZtERERERESkEcMDYqAqeW3atPFvEhERERERkUYMD4iBquSNHDnSv0lEREREREQaMTwgqpInIiIiIiISnAwPiKrkiYiIiIiIBCfDA2KgBGruo4iIiIiIyNmixQTEQM19FBEREREROVsYHhADVcnT3EcREREREZGmGR4QA1XJ09xHERERERGRphkeEFXJExERERERCU6GB0RV8kRERERERIKT4QExUAI191FERERERORs0WICYqDmPoqIiIiIiJwtDA+Igarkae6jiIiIiIhI0wwPiIGq5Gnuo4iIiIiISNMMD4idO3f2bxIREREREZEgYHhAHDRokH+TiIiIiIiIBAHDA2KgFBQU+DeJiIiIiIhIIy0mIObk5Pg3iYiIiIiISCOGB8RAVfI091FERERERKRphgfEQFXyNPdRRERERESkaYYHRFXyREREREREgpPhAVGVPBERERERkeBkeEAMlEDNfRQRERERETlbtJiAGKi5jyIiIiIiImcLwwNioCp5mvsoIiIiIiLSNMMDYqAqeZr7KCIiIiIi0jTDA6IqeSIiIiIiIsHJ8ICoSp6IiIiIiEhwMjwgBsry5cv9m0RERERERKSRFhMQq6qq/JtOzhZOTGwk9hZzZEREREREROoZHoO2bNni3xRE7HS/4HKuuLAnrUz+2wIgpI4XJhby9ehazvHfJiIiIiIi8gszPCBu3rzZvyl4RCfSo5OF3Vs2UeT23/hL8/DohH3kT6pmsP+mo6we2kfVEB3lpoP/NhERERERkV+Y4QExOTnZv8lQFnscPYcNpqfDfwvE9+hKO+dutu9y+m8KjKoQJr12LklL7Hznv+3/qUOfofTt1ApbMFRIRUREREQkqJg6derk9W88k6ZMmcKiRYv8m88wC/a47qSk9KVHh0gs1QV8u/RzNjeelmjvzsgrzicifzmffF+MG8Ds4faLyrg5yUlkqAcTQGU0T74RyYu1YIus4dVLSji/fS1WLJTsiOXBFXZW1NU/ZbuOTv4+ooyesXVYMVN5IIpXV7bi405lvD+ygrBGLw/g2tOO6YvtfBflYuXUQnr4OjS0H+1o9vCfF5fw225OHBYTRwqjeeWzVswrAzpUsv7KSg78GEbHXuVEWer364+f2FnjgYSLpjGyhwNPxQF25uWyIW8PFbWGDgEREREREQlSv/KAaKNt4kAG9OtBh4g6Du3bw46tG9my+zD+mSi633jS+rj4ZnEW+b4CYmLfQywd6aRwY2uezbNSDOA28X2JmQo8PD1pP1NaRbBkbTirQlzcO7yMsK3xXLjGissX8jpVxvDmlw5+iKjm3gsOYc2LY0KOmcQoN9cMP8illhgeXx3KTsBdYybnkAmX2Uvv1h5izW7+NO4AfSqOD4gDB5ay8HwXP6+P5dmDdfxxVDHnlrfld++Fkd2hkvVXlhJZGs072eEUdCznrkEudqyIJ21rfdnQFtOZ5D59SOzclnDzEQp35rFp/Sb2VBk6FEREREREJMgYfompsc4leVAybavzWfV+JotXfMnGghPDIcTTo2s7nLu3c6qrS901Zr45aGF1iZkKgFgXw+LM5H4Tyd07rHywJZz/2mEjqk0d/YChiZV0tjrIymrFnD0WPtgSzpjXOjB6rZVil5mvDloocZvwus3kHrSw+qCFtYdMuAA8JnKLLaw+aKbKc8KecF2XKswHo3j8qxCWbHfw4IZwvDHVjIs52sfC7twIHtpjYcHmcPZVe2gVceyJassK2LBmGe9lLuOb3R7iEgfTL9G/nikiIiIiIi2N4QHR2FVM97BxbQ4FdGHE5Gu5euIYBifG4fD7V9t79qZHZDE78vZS26g9PzeS5zfaiepZxH9fv4ettxzk06F19SuKhroJD6ml36V7KLhzNwV37uaZvq6Gx7Z2uAlxhpJdeOz5aut8AfBf4qVNmAdPrZnDvpaKGjNui4dI29E+FopLT/XWWgiLT2LI2IlMn57G0PZu9vy4hpytp0jGIiIiIiLSYpwqRZwxxq5iWktZwUbWfJTJ20uz2VwSRtfzf8O0a8fRL+Jon2gSu3aAn7eRV+y3dKnHzPzVMZy3oCNDXuvAqz956TG4lMfPAaqsHKq2kp/dkc7Pdmr4k+i7FHTvYRvVYS5Sf/HlR00UO82YbR4ifS2tQjxY3GYON063p5AwYipXXzaMbhEV5K9dRuY7S/j8u20UOk8oq4qIiIiISAtjiYqKmu3feCYlJydTVFTk33zGearLKdydT+7mnyhzm6grPkhZHVjO6c+wvg72r/+aneXHX88Z066G+8/14jV7aRPqpXd7J72jrORucvBxiZmE9pWkJrsY5Q3hsBu6tatjnN3Md5UmCp1mJiQdYlCCh5RaG2UmL0nt6hjosZDrKyN26uhk7Ll1dKwOocjkpX9bD6ZDZspDPQyL9ZAQ7uGiHpXEucPIKzYTbjNxsNrMAUcdU5KOkGINpTzUxUPDyok6FEXGOhsFrWq4JbmG0q0RvFcO2N1c37sK8/4I/r7fjMNh48DGbFavy2dv6RF86+mIiIiIiIj82hepOR07PcdMZmjIJpZ8spHDfkdizPBiXh5QhdUEYKK2KpQdP7bmpm+s7AWw1/GX1DIu6+LEYQW8VratiWfsD/WF2eNWMTUB3lC+XdaOq3b6FouJrOHVS0oZFl+DzQzeyijmvxPFxz1Os8ppM1Yx3b40nqkFQJSLlVOLsa6PZ9Q6i98zioiIiIiIHNOyA2J0P8an9cH1zWKyji5dKiIiIiIi0kIZPgcxqBzZwdcff8RX2xUORUREREREDA+Ixq5iehq1RygrOUz1CbeSEBERERERaXkMv8RUREREREREgpPhFcRBgwb5N4mIiIiIiEgQMDwgdu7c2b9JREREREREgoDhAVFERERERESCkwKiiIiIiIiIQCACYk5Ojn+TiIiIiIiIBAGtYioiIiIiIiIQiAqiVjEVEREREREJToYHRK1iKiIiIiIiEpwMD4giIiIiIiISnBQQRUREREREBAIRELWKqYiIiIiISHDSKqYiIiIiIiICgaggahVTERERERGR4GR4QNQqpiIiIiIiIsHJ8IAoIiIiIiIiwUkBUURERERERCAQATE7O9u/SURERERERIKA4QGxuLjYv0lERERERESCwP8BTmzIqtgdSwYAAAAASUVORK5CYII=;movable=1;resizable=1;rotatable=1;deletable=1;editable=1;locked=0;connectable=1;" vertex="1" parent="Z35FE3b0g6n7arF6alle-15">
          <mxGeometry x="-725" y="80" width="904" height="671" as="geometry" />
        </mxCell>
        <mxCell id="1" value="lines" style="" parent="0" />
        <mxCell id="Z35FE3b0g6n7arF6alle-28" value="" style="endArrow=none;html=1;rounded=0;strokeColor=#FF3399;movable=1;resizable=1;rotatable=1;deletable=1;editable=1;locked=0;connectable=1;" edge="1" parent="1">
          <mxGeometry width="50" height="50" relative="1" as="geometry">
            <mxPoint x="-892" y="308" as="sourcePoint" />
            <mxPoint x="-540" y="294.5" as="targetPoint" />
            <Array as="points">
              <mxPoint x="-540" y="307.5" />
            </Array>
          </mxGeometry>
        </mxCell>
        <mxCell id="Z35FE3b0g6n7arF6alle-37" value="" style="endArrow=none;html=1;rounded=0;strokeColor=#FF3399;" edge="1" parent="1">
          <mxGeometry width="50" height="50" relative="1" as="geometry">
            <mxPoint x="-892" y="166" as="sourcePoint" />
            <mxPoint x="-693" y="167" as="targetPoint" />
          </mxGeometry>
        </mxCell>
        <mxCell id="Z35FE3b0g6n7arF6alle-43" value="" style="endArrow=none;html=1;rounded=0;strokeColor=#FF3399;" edge="1" parent="1">
          <mxGeometry width="50" height="50" relative="1" as="geometry">
            <mxPoint x="-702" y="232" as="sourcePoint" />
            <mxPoint x="-625" y="232" as="targetPoint" />
          </mxGeometry>
        </mxCell>
        <mxCell id="Z35FE3b0g6n7arF6alle-44" value="" style="endArrow=none;html=1;rounded=0;strokeColor=#FF3399;movable=1;resizable=1;rotatable=1;deletable=1;editable=1;locked=0;connectable=1;" edge="1" parent="1">
          <mxGeometry width="50" height="50" relative="1" as="geometry">
            <mxPoint x="-697" y="167" as="sourcePoint" />
            <mxPoint x="-657" y="157" as="targetPoint" />
            <Array as="points">
              <mxPoint x="-657" y="167" />
            </Array>
          </mxGeometry>
        </mxCell>
        <mxCell id="Z35FE3b0g6n7arF6alle-47" value="" style="endArrow=none;html=1;rounded=0;strokeColor=#FF3399;" edge="1" parent="1">
          <mxGeometry width="50" height="50" relative="1" as="geometry">
            <mxPoint x="-703" y="168" as="sourcePoint" />
            <mxPoint x="-703" y="232" as="targetPoint" />
          </mxGeometry>
        </mxCell>
        <mxCell id="Z35FE3b0g6n7arF6alle-54" value="" style="endArrow=none;html=1;rounded=0;strokeColor=#FF3399;" edge="1" parent="1">
          <mxGeometry width="50" height="50" relative="1" as="geometry">
            <mxPoint x="-892" y="270" as="sourcePoint" />
            <mxPoint x="-315" y="270" as="targetPoint" />
          </mxGeometry>
        </mxCell>
        <mxCell id="Z35FE3b0g6n7arF6alle-67" value="By.ID" style="text;html=1;align=center;verticalAlign=middle;resizable=0;points=[];autosize=1;strokeColor=none;fillColor=none;" vertex="1" parent="1">
          <mxGeometry x="-904" y="285" width="50" height="30" as="geometry" />
        </mxCell>
        <mxCell id="Z35FE3b0g6n7arF6alle-69" value="" style="endArrow=none;html=1;rounded=0;strokeColor=#FF3399;" edge="1" parent="1">
          <mxGeometry width="50" height="50" relative="1" as="geometry">
            <mxPoint x="-315" y="270" as="sourcePoint" />
            <mxPoint x="-315" y="230" as="targetPoint" />
          </mxGeometry>
        </mxCell>
        <mxCell id="Z35FE3b0g6n7arF6alle-72" value="" style="group" vertex="1" connectable="0" parent="1">
          <mxGeometry x="-703" y="205" width="59" as="geometry" />
        </mxCell>
        <mxCell id="Z35FE3b0g6n7arF6alle-41" value="" style="endArrow=none;html=1;rounded=0;strokeColor=#FF3399;movable=1;resizable=1;rotatable=1;deletable=1;editable=1;locked=0;connectable=1;" edge="1" parent="Z35FE3b0g6n7arF6alle-72">
          <mxGeometry width="50" height="50" relative="1" as="geometry">
            <mxPoint x="19" as="sourcePoint" />
            <mxPoint x="59" y="-10" as="targetPoint" />
            <Array as="points">
              <mxPoint x="59" />
            </Array>
          </mxGeometry>
        </mxCell>
        <mxCell id="Z35FE3b0g6n7arF6alle-46" value="" style="endArrow=none;html=1;rounded=0;strokeColor=#FF3399;" edge="1" parent="Z35FE3b0g6n7arF6alle-72">
          <mxGeometry width="50" height="50" relative="1" as="geometry">
            <mxPoint as="sourcePoint" />
            <mxPoint x="30" as="targetPoint" />
          </mxGeometry>
        </mxCell>
        <mxCell id="Z35FE3b0g6n7arF6alle-73" value="" style="endArrow=none;html=1;rounded=0;strokeColor=#FF3399;" edge="1" parent="1">
          <mxGeometry width="50" height="50" relative="1" as="geometry">
            <mxPoint x="-892" y="242" as="sourcePoint" />
            <mxPoint x="-432.5" y="242" as="targetPoint" />
          </mxGeometry>
        </mxCell>
        <mxCell id="Z35FE3b0g6n7arF6alle-76" value="" style="endArrow=none;html=1;rounded=0;strokeColor=#FF3399;" edge="1" parent="1">
          <mxGeometry width="50" height="50" relative="1" as="geometry">
            <mxPoint x="-625" y="232" as="sourcePoint" />
            <mxPoint x="-625" y="228" as="targetPoint" />
          </mxGeometry>
        </mxCell>
        <mxCell id="Z35FE3b0g6n7arF6alle-77" value="" style="endArrow=none;html=1;rounded=0;strokeColor=#FF3399;" edge="1" parent="1">
          <mxGeometry width="50" height="50" relative="1" as="geometry">
            <mxPoint x="-433" y="241" as="sourcePoint" />
            <mxPoint x="-433" y="230" as="targetPoint" />
          </mxGeometry>
        </mxCell>
        <mxCell id="Z35FE3b0g6n7arF6alle-78" value="By.CLASS_NAME" style="text;html=1;strokeColor=none;fillColor=none;align=center;verticalAlign=middle;whiteSpace=wrap;rounded=0;" vertex="1" parent="1">
          <mxGeometry x="-895" y="246" width="99" height="30" as="geometry" />
        </mxCell>
        <mxCell id="Z35FE3b0g6n7arF6alle-79" value="&lt;font color=&quot;#e6e6e6&quot; style=&quot;font-size: 18px;&quot;&gt;By strategy&lt;/font&gt;" style="html=1;shadow=0;dashed=0;shape=mxgraph.bootstrap.rrect;rSize=5;strokeColor=none;strokeWidth=1;fillColor=#33A64C;fontColor=#FFFFFF;whiteSpace=wrap;align=left;verticalAlign=middle;spacingLeft=0;fontStyle=1;fontSize=14;spacing=5;" vertex="1" parent="1">
          <mxGeometry x="-1082" y="96" width="143" height="50" as="geometry" />
        </mxCell>
        <mxCell id="Z35FE3b0g6n7arF6alle-82" value="By.LINK_TEXT&lt;br&gt;By.PARTIAL_LINK_TEXT" style="text;whiteSpace=wrap;html=1;" vertex="1" parent="1">
          <mxGeometry x="-895" y="207" width="139" height="30" as="geometry" />
        </mxCell>
        <mxCell id="Z35FE3b0g6n7arF6alle-86" value="By.TAG_NAME" style="text;whiteSpace=wrap;html=1;" vertex="1" parent="1">
          <mxGeometry x="-895" y="146" width="139" height="30" as="geometry" />
        </mxCell>
        <mxCell id="Z35FE3b0g6n7arF6alle-89" value="&lt;font color=&quot;#e6e6e6&quot; style=&quot;font-size: 18px;&quot;&gt;Attributes&lt;/font&gt;" style="html=1;shadow=0;dashed=0;shape=mxgraph.bootstrap.rrect;rSize=5;strokeColor=none;strokeWidth=1;fillColor=#33A64C;fontColor=#FFFFFF;whiteSpace=wrap;align=left;verticalAlign=middle;spacingLeft=0;fontStyle=1;fontSize=14;spacing=5;" vertex="1" parent="1">
          <mxGeometry x="-1082" y="492" width="143" height="50" as="geometry" />
        </mxCell>
        <mxCell id="Z35FE3b0g6n7arF6alle-90" value="" style="endArrow=none;html=1;rounded=0;strokeColor=#FF3399;movable=1;resizable=1;rotatable=1;deletable=1;editable=1;locked=0;connectable=1;" edge="1" parent="1">
          <mxGeometry width="50" height="50" relative="1" as="geometry">
            <mxPoint x="-892" y="566" as="sourcePoint" />
            <mxPoint x="-592" y="556" as="targetPoint" />
            <Array as="points">
              <mxPoint x="-592" y="566" />
            </Array>
          </mxGeometry>
        </mxCell>
        <mxCell id="Z35FE3b0g6n7arF6alle-92" value="innerText" style="text;html=1;align=center;verticalAlign=middle;resizable=0;points=[];autosize=1;strokeColor=none;fillColor=none;" vertex="1" parent="1">
          <mxGeometry x="-905" y="542" width="70" height="30" as="geometry" />
        </mxCell>
        <mxCell id="Z35FE3b0g6n7arF6alle-93" value="href" style="text;html=1;align=center;verticalAlign=middle;resizable=0;points=[];autosize=1;strokeColor=none;fillColor=none;" vertex="1" parent="1">
          <mxGeometry x="-903" y="601" width="40" height="30" as="geometry" />
        </mxCell>
        <mxCell id="Z35FE3b0g6n7arF6alle-94" value="" style="endArrow=none;html=1;rounded=0;strokeColor=#FF3399;movable=1;resizable=1;rotatable=1;deletable=1;editable=1;locked=0;connectable=1;" edge="1" parent="1">
          <mxGeometry width="50" height="50" relative="1" as="geometry">
            <mxPoint x="-892" y="696" as="sourcePoint" />
            <mxPoint x="-352" y="686" as="targetPoint" />
            <Array as="points">
              <mxPoint x="-352" y="696" />
            </Array>
          </mxGeometry>
        </mxCell>
        <mxCell id="Z35FE3b0g6n7arF6alle-95" value="" style="endArrow=none;html=1;rounded=0;strokeColor=#FF3399;movable=1;resizable=1;rotatable=1;deletable=1;editable=1;locked=0;connectable=1;" edge="1" parent="1">
          <mxGeometry width="50" height="50" relative="1" as="geometry">
            <mxPoint x="-892" y="626" as="sourcePoint" />
            <mxPoint x="-122" y="616" as="targetPoint" />
            <Array as="points">
              <mxPoint x="-122" y="626" />
            </Array>
          </mxGeometry>
        </mxCell>
        <mxCell id="Z35FE3b0g6n7arF6alle-97" value="" style="endArrow=none;html=1;rounded=0;strokeColor=#FF3399;movable=1;resizable=1;rotatable=1;deletable=1;editable=1;locked=0;connectable=1;" edge="1" parent="1">
          <mxGeometry width="50" height="50" relative="1" as="geometry">
            <mxPoint x="-892" y="466" as="sourcePoint" />
            <mxPoint x="-402" y="296" as="targetPoint" />
            <Array as="points">
              <mxPoint x="-402" y="466" />
            </Array>
          </mxGeometry>
        </mxCell>
        <mxCell id="Z35FE3b0g6n7arF6alle-98" value="&lt;font color=&quot;#e6e6e6&quot; style=&quot;font-size: 18px;&quot;&gt;Events&lt;/font&gt;" style="html=1;shadow=0;dashed=0;shape=mxgraph.bootstrap.rrect;rSize=5;strokeColor=none;strokeWidth=1;fillColor=#33A64C;fontColor=#FFFFFF;whiteSpace=wrap;align=left;verticalAlign=middle;spacingLeft=0;fontStyle=1;fontSize=14;spacing=5;" vertex="1" parent="1">
          <mxGeometry x="-1082" y="376" width="143" height="50" as="geometry" />
        </mxCell>
      </root>
    </mxGraphModel>
  </diagram>
</mxfile>
